SplineFontDB: 3.0
FontName: Cinzel-Regular
FullName: Cinzel-Regular
FamilyName: Cinzel
Weight: Book
Copyright: Copyright (c) 2012 Natanael Gama (info@ndiscovered.com), with Reserved Font Name 'Cinzel'
Version: 1.001;PS 001.001;hotconv 1.0.56;makeotf.lib2.0.21325
ItalicAngle: 0
UnderlinePosition: -50
UnderlineWidth: 50
Ascent: 800
Descent: 200
sfntRevision: 0x00010041
LayerCount: 2
Layer: 0 1 "Back"  1
Layer: 1 1 "Fore"  0
XUID: [1021 313 1453932280 13185868]
FSType: 0
OS2Version: 3
OS2_WeightWidthSlopeOnly: 0
OS2_UseTypoMetrics: 1
CreationTime: 1336739634
ModificationTime: 1349490219
PfmFamily: 81
TTFWeight: 400
TTFWidth: 5
LineGap: 0
VLineGap: 0
Panose: 0 0 5 0 0 0 0 0 0 0
OS2TypoAscent: 976
OS2TypoAOffset: 0
OS2TypoDescent: -372
OS2TypoDOffset: 0
OS2TypoLinegap: 0
OS2WinAscent: 976
OS2WinAOffset: 0
OS2WinDescent: 372
OS2WinDOffset: 0
HheadAscent: 971
HheadAOffset: 0
HheadDescent: -372
HheadDOffset: 0
OS2SubXSize: 650
OS2SubYSize: 600
OS2SubXOff: 0
OS2SubYOff: 75
OS2SupXSize: 650
OS2SupYSize: 600
OS2SupXOff: 0
OS2SupYOff: 350
OS2StrikeYSize: 50
OS2StrikeYPos: 300
OS2Vendor: 'UKWN'
OS2CodePages: 20000093.00000000
OS2UnicodeRanges: 00000007.00000000.00000000.00000000
Lookup: 258 0 0 "'kern' Horizontal Kerning lookup 0"  {"'kern' Horizontal Kerning lookup 0 per glyph data 0"  "'kern' Horizontal Kerning lookup 0 kerning class 1"  } ['kern' ('DFLT' <'dflt' > 'grek' <'dflt' > 'latn' <'dflt' > ) ]
DEI: 91125
KernClass2: 64+ 43 "'kern' Horizontal Kerning lookup 0 kerning class 1" 
 30 T Tcedilla Tcaron Tbar uni021A
 73 U Ugrave Uacute Ucircumflex Udieresis Umacron Uring Uhungarumlaut Uogonek
 1 V
 4 nine
 37 W Wcircumflex Wgrave Wacute Wdieresis
 1 X
 37 Y Yacute Ycircumflex Ydieresis Ygrave
 49 comma period quotesinglbase quotedblbase ellipsis
 26 Z Zacute Zdotaccent Zcaron
 5 seven
 73 a agrave aacute acircumflex atilde adieresis aring amacron abreve aogonek
 1 b
 35 c ccedilla cacute cdotaccent ccaron
 4 five
 31 hyphen softhyphen endash emdash

StartChar: exclam
Encoding: 33 33 4
Width: 230
GlyphClass: 2
Flags: W
LayerCount: 2
Fore
SplineSet
140 403 m 1,0,-1
 119 170 l 1,1,-1
 109 170 l 1,2,-1
 89 403 l 1,3,-1
 77 702 l 1,4,-1
 152 702 l 1,5,-1
 140 403 l 1,0,-1
115 -4 m 128,-1,7
 96 -4 96 -4 83 9 c 128,-1,8
 70 22 70 22 70 41 c 128,-1,9
 70 60 70 60 83 73 c 128,-1,10
 96 86 96 86 115 86 c 128,-1,11
 134 86 134 86 147 73 c 128,-1,12
 160 60 160 60 160 41 c 128,-1,13
 160 22 160 22 147 9 c 128,-1,6
 134 -4 134 -4 115 -4 c 128,-1,7
EndSplineSet
EndChar

StartChar: quotedbl
Encoding: 34 34 5
Width: 315
GlyphClass: 2
Flags: W
LayerCount: 2
Fore
SplineSet
50 505 m 1,0,1
 68 590 68 590 68 629.5 c 128,-1,2
 68 669 68 669 66 700 c 1,3,-1
 136 714 l 1,4,5
 136 709 136 709 136 693 c 128,-1,6
 136 677 136 677 130.5 640.5 c 128,-1,7
 125 604 125 604 106.5 560 c 128,-1,8
 88 516 88 516 59 500 c 1,9,-1
 50 505 l 1,0,1
180 505 m 1,10,11
 198 590 198 590 198 629.5 c 128,-1,12
 198 669 198 669 196 700 c 1,13,-1
 266 714 l 1,14,15
 266 709 266 709 266 693 c 128,-1,16
 266 677 266 677 260.5 640.5 c 128,-1,17
 255 604 255 604 236.5 560 c 128,-1,18
 218 516 218 516 189 500 c 1,19,-1
 180 505 l 1,10,11
EndSplineSet
EndChar

StartChar: numbersign
Encoding: 35 35 6
Width: 536
GlyphClass: 2
Flags: W
LayerCount: 2
Fore
SplineSet
516 467 m 1,0,-1
 403 467 l 1,1,-1
 365 247 l 1,2,-1
 472 247 l 1,3,-1
 472 217 l 1,4,-1
 359 217 l 1,5,-1
 321 0 l 1,6,-1
 289 0 l 1,7,-1
 327 217 l 1,8,-1
 159 217 l 1,9,-1
 121 0 l 1,10,-1
 89 0 l 1,11,-1
 127 217 l 1,12,-1
 20 217 l 1,13,-1
 20 247 l 1,14,-1
 133 247 l 1,15,-1
 171 467 l 1,16,-1
 64 467 l 1,17,-1
 64 497 l 1,18,-1
 177 497 l 1,19,-1
 212 700 l 1,20,-1
 244 700 l 1,21,-1
 209 497 l 1,22,-1
 377 497 l 1,23,-1
 412 700 l 1,24,-1
 444 700 l 1,25,-1
 409 497 l 1,26,-1
 516 497 l 1,27,-1
 516 467 l 1,0,-1
333 247 m 1,28,-1
 371 467 l 1,29,-1
 203 467 l 1,30,-1
 165 247 l 1,31,-1
 333 247 l 1,28,-1
EndSplineSet
EndChar

StartChar: dollar
Encoding: 36 36 7
Width: 469
GlyphClass: 2
Flags: W
LayerCount: 2
Fore
SplineSet
59 41 m 1,0,1
 55 55 55 55 55 95 c 128,-1,2
 55 135 55 135 70 180 c 1,3,-1
 79 180 l 1,4,5
 78 169 78 169 78 159 c 0,6,7
 78 105 78 105 106 66 c 128,-1,8
 134 27 134 27 190 18 c 1,9,-1
 215 339 l 1,10,-1
 126 421 l 2,11,12
 72 471 72 471 72 546 c 0,13,14
 72 592 72 592 94 630.5 c 128,-1,15
 116 669 116 669 155.5 691.5 c 128,-1,16
 195 714 195 714 243 714 c 1,17,-1
 249 788 l 1,18,-1
 279 787 l 1,19,-1
 274 713 l 1,20,21
 306 710 306 710 335 704 c 1,22,-1
 373 704 l 1,23,-1
 373 581 l 1,24,-1
 364 581 l 1,25,26
 364 637 364 637 320 665 c 0,27,28
 299 678 299 678 271 682 c 1,29,-1
 250 402 l 1,30,-1
 365 295 l 2,31,32
 415 249 415 249 415 182 c 128,-1,33
 415 115 415 115 392 73 c 0,34,35
 344 -13 344 -13 218 -14 c 1,36,-1
 211 -102 l 1,37,-1
 181 -99 l 1,38,-1
 188 -11 l 1,39,40
 99 -1 99 -1 59 41 c 1,0,1
161 647.5 m 128,-1,42
 128 614 128 614 128 564 c 128,-1,43
 128 514 128 514 169 477 c 1,44,-1
 221 428 l 1,45,-1
 241 683 l 1,46,41
 194 681 194 681 161 647.5 c 128,-1,42
318.5 55.5 m 128,-1,48
 357 93 357 93 357 150 c 128,-1,49
 357 207 357 207 318 243 c 2,50,-1
 243 313 l 1,51,-1
 220 16 l 1,52,-1
 223 16 l 1,53,47
 280 18 280 18 318.5 55.5 c 128,-1,48
EndSplineSet
EndChar

StartChar: percent
Encoding: 37 37 8
Width: 684
GlyphClass: 2
Flags: W
LayerCount: 2
Fore
SplineSet
311 660 m 1,0,1
 327 629 327 629 327 596 c 0,2,3
 327 476 327 476 261 408 c 0,4,5
 215 361 215 361 154 361 c 128,-1,6
 93 361 93 361 64 408 c 0,7,8
 44 440 44 440 44 476 c 0,9,10
 44 598 44 598 109 665 c 0,11,12
 154 712 154 712 217 714 c 0,13,14
 235 714 235 714 253.5 709 c 128,-1,15
 272 704 272 704 311 681 c 1,16,17
 355 657 355 657 381.5 657 c 128,-1,18
 408 657 408 657 430.5 664.5 c 128,-1,19
 453 672 453 672 484.5 690 c 128,-1,20
 516 708 516 708 519 709 c 1,21,-1
 541 700 l 1,22,-1
 168 -11 l 1,23,-1
 143 0 l 1,24,-1
 499 676 l 1,25,26
 495 674 495 674 484.5 668.5 c 128,-1,27
 474 663 474 663 469 660.5 c 128,-1,28
 464 658 464 658 452.5 652.5 c 128,-1,29
 441 647 441 647 435.5 645.5 c 128,-1,30
 430 644 430 644 417.5 640.5 c 128,-1,31
 405 637 405 637 397.5 638 c 128,-1,32
 390 639 390 639 376 638 c 1,33,34
 349 640 349 640 311 660 c 1,0,1
269 537 m 0,35,36
 275 571 275 571 275 600 c 128,-1,37
 275 629 275 629 267 652 c 0,38,39
 252 694 252 694 213 694 c 0,40,41
 160 694 160 694 127 621 c 0,42,43
 96 554 96 554 96 477 c 0,44,45
 96 445 96 445 104 423 c 0,46,47
 119 381 119 381 158 381 c 128,-1,48
 197 381 197 381 226.5 423 c 128,-1,49
 256 465 256 465 269 537 c 0,35,36
531 339 m 128,-1,51
 592 339 592 339 621 291 c 0,52,53
 641 259 641 259 641 224 c 0,54,55
 641 101 641 101 576 34 c 0,56,57
 529 -14 529 -14 468 -14 c 128,-1,58
 407 -14 407 -14 378 34 c 0,59,60
 358 66 358 66 358 101 c 0,61,62
 358 224 358 224 423 291 c 0,63,50
 470 339 470 339 531 339 c 128,-1,51
583 162 m 0,64,65
 589 196 589 196 589 225.5 c 128,-1,66
 589 255 589 255 581 277 c 0,67,68
 566 319 566 319 527 319 c 128,-1,69
 488 319 488 319 458.5 277 c 128,-1,70
 429 235 429 235 416 162 c 0,71,72
 410 129 410 129 410 99.5 c 128,-1,73
 410 70 410 70 418 48 c 0,74,75
 433 6 433 6 472 6 c 128,-1,76
 511 6 511 6 540.5 48 c 128,-1,77
 570 90 570 90 583 162 c 0,64,65
EndSplineSet
EndChar

StartChar: ampersand
Encoding: 38 38 9
Width: 646
GlyphClass: 2
Flags: W
LayerCount: 2
Fore
SplineSet
627 375 m 2,0,1
 606 375 606 375 597.5 364.5 c 128,-1,2
 589 354 589 354 589 344.5 c 128,-1,3
 589 335 589 335 593.5 313 c 128,-1,4
 598 291 598 291 598 255 c 0,5,6
 598 176 598 176 561 111 c 1,7,8
 597 80 597 80 618 63.5 c 128,-1,9
 639 47 639 47 673 29.5 c 128,-1,10
 707 12 707 12 736 10 c 1,11,-1
 736 0 l 1,12,13
 735 0 735 0 719.5 0 c 128,-1,14
 704 0 704 0 697.5 0 c 128,-1,15
 691 0 691 0 673.5 1 c 128,-1,16
 656 2 656 2 645 4.5 c 128,-1,17
 634 7 634 7 616 11 c 128,-1,18
 598 15 598 15 584 22 c 0,19,20
 548 38 548 38 521 59 c 1,21,22
 450 -10 450 -10 336 -10 c 0,23,24
 190 -10 190 -10 110 51 c 128,-1,25
 30 112 30 112 30 224 c 0,26,27
 30 348 30 348 151 409 c 1,28,29
 113 470 113 470 113 543 c 0,30,31
 113 617 113 617 167 665 c 0,32,33
 223 714 223 714 314 714 c 0,34,35
 365 714 365 714 411 694.5 c 128,-1,36
 457 675 457 675 484 643 c 1,37,-1
 466 530 l 1,38,-1
 456 530 l 1,39,40
 456 602 456 602 417 643 c 256,41,42
 378 684 378 684 317.5 684 c 128,-1,43
 257 684 257 684 219.5 644 c 128,-1,44
 182 604 182 604 182 544 c 128,-1,45
 182 484 182 484 219 431 c 128,-1,46
 256 378 256 378 364 282 c 128,-1,47
 472 186 472 186 522 144 c 1,48,49
 543 190 543 190 543 239 c 128,-1,50
 543 288 543 288 521.5 331.5 c 128,-1,51
 500 375 500 375 458 375 c 2,52,-1
 443 375 l 1,53,-1
 443 385 l 1,54,-1
 642 385 l 1,55,-1
 642 375 l 1,56,-1
 627 375 l 2,0,1
487 88 m 1,57,58
 231 299 231 299 167 385 c 1,59,60
 103 325 103 325 103 228.5 c 128,-1,61
 103 132 103 132 164.5 76 c 128,-1,62
 226 20 226 20 336 20 c 0,63,64
 428 20 428 20 487 88 c 1,57,58
EndSplineSet
EndChar

StartChar: quotesingle
Encoding: 39 39 10
Width: 170
GlyphClass: 2
Flags: W
LayerCount: 2
Fore
SplineSet
35 505 m 1,0,1
 53 590 53 590 53 629.5 c 128,-1,2
 53 669 53 669 51 700 c 1,3,-1
 121 714 l 1,4,5
 121 709 121 709 121 693 c 128,-1,6
 121 677 121 677 115.5 640.5 c 128,-1,7
 110 604 110 604 91.5 560 c 128,-1,8
 73 516 73 516 44 500 c 1,9,-1
 35 505 l 1,0,1
EndSplineSet
EndChar

StartChar: parenleft
Encoding: 40 40 11
Width: 338
GlyphClass: 2
Flags: W
LayerCount: 2
Fore
SplineSet
204.5 73.5 m 128,-1,1
 249 -51 249 -51 307 -91 c 1,2,-1
 301 -100 l 1,3,4
 215 -55 215 -55 153 68 c 0,5,6
 90 194 90 194 90 335.5 c 128,-1,7
 90 477 90 477 152 589 c 128,-1,8
 214 701 214 701 303 732 c 1,9,-1
 309 724 l 1,10,11
 246 694 246 694 203 586 c 128,-1,12
 160 478 160 478 160 338 c 128,-1,0
 160 198 160 198 204.5 73.5 c 128,-1,1
EndSplineSet
EndChar

StartChar: parenright
Encoding: 41 41 12
Width: 338
GlyphClass: 2
Flags: W
LayerCount: 2
Fore
SplineSet
135.5 586 m 128,-1,1
 92 694 92 694 30 724 c 1,2,-1
 36 732 l 1,3,4
 125 701 125 701 187 589 c 128,-1,5
 249 477 249 477 249 340 c 0,6,7
 249 194 249 194 186 69.5 c 128,-1,8
 123 -55 123 -55 38 -100 c 1,9,-1
 32 -91 l 1,10,11
 90 -51 90 -51 133 71 c 1,12,13
 179 198 179 198 179 338 c 128,-1,0
 179 478 179 478 135.5 586 c 128,-1,1
EndSplineSet
EndChar

StartChar: asterisk
Encoding: 42 42 13
Width: 386
GlyphClass: 2
Flags: W
LayerCount: 2
Fore
SplineSet
348 623 m 1,0,-1
 248 604 l 1,1,-1
 200 605 l 1,2,-1
 239 579 l 1,3,-1
 310 505 l 1,4,-1
 291 474 l 1,5,-1
 256 466 l 1,6,-1
 207 555 l 1,7,-1
 194 601 l 1,8,-1
 180 555 l 1,9,-1
 132 466 l 1,10,-1
 97 474 l 1,11,-1
 78 504 l 1,12,-1
 148 579 l 1,13,-1
 187 605 l 1,14,-1
 140 604 l 1,15,-1
 39 623 l 1,16,-1
 36 658 l 1,17,-1
 60 685 l 1,18,-1
 152 642 l 1,19,-1
 190 613 l 1,20,-1
 174 658 l 1,21,-1
 160 759 l 1,22,-1
 193 773 l 1,23,-1
 226 759 l 1,24,-1
 214 658 l 1,25,-1
 198 613 l 1,26,-1
 235 642 l 1,27,-1
 327 686 l 1,28,-1
 351 659 l 1,29,-1
 348 623 l 1,0,-1
EndSplineSet
EndChar

StartChar: plus
Encoding: 43 43 14
Width: 481
GlyphClass: 2
Flags: W
LayerCount: 2
Fore
SplineSet
442 332 m 1,0,-1
 442 287 l 1,1,-1
 263 287 l 1,2,-1
 263 109 l 1,3,-1
 218 109 l 1,4,-1
 218 287 l 1,5,-1
 40 287 l 1,6,-1
 40 332 l 1,7,-1
 218 332 l 1,8,-1
 218 511 l 1,9,-1
 263 511 l 1,10,-1
 263 332 l 1,11,-1
 442 332 l 1,0,-1
EndSplineSet
EndChar

StartChar: comma
Encoding: 44 44 15
Width: 185
GlyphClass: 2
Flags: W
LayerCount: 2
Fore
SplineSet
45 -81 m 1,0,1
 72 -72 72 -72 81.5 -56 c 128,-1,2
 91 -40 91 -40 91 -32 c 0,3,4
 91 -7 91 -7 71 15 c 1,5,6
 56 33 56 33 54 40 c 0,7,8
 51 54 51 54 56 66 c 0,9,10
 65 86 65 86 89 86 c 0,11,12
 119 86 119 86 130 58.5 c 128,-1,13
 141 31 141 31 141 14 c 0,14,15
 141 -38 141 -38 104 -67 c 1,16,17
 79 -88 79 -88 47 -89 c 1,18,-1
 45 -81 l 1,0,1
EndSplineSet
EndChar

StartChar: hyphen
Encoding: 45 45 16
Width: 380
GlyphClass: 2
Flags: W
LayerCount: 2
Fore
SplineSet
34 292 m 1,0,-1
 40 314 l 1,1,-1
 340 314 l 1,2,-1
 346 292 l 1,3,-1
 340 269 l 1,4,-1
 40 269 l 1,5,-1
 34 292 l 1,0,-1
EndSplineSet
EndChar

StartChar: period
Encoding: 46 46 17
Width: 179
GlyphClass: 2
Flags: W
LayerCount: 2
Fore
SplineSet
90 -4 m 128,-1,1
 71 -4 71 -4 58 9 c 128,-1,2
 45 22 45 22 45 41 c 128,-1,3
 45 60 45 60 58 73 c 128,-1,4
 71 86 71 86 90 86 c 128,-1,5
 109 86 109 86 122 73 c 128,-1,6
 135 60 135 60 135 41 c 128,-1,7
 135 22 135 22 122 9 c 128,-1,0
 109 -4 109 -4 90 -4 c 128,-1,1
EndSplineSet
EndChar

StartChar: slash
Encoding: 47 47 18
Width: 406
GlyphClass: 2
Flags: W
LayerCount: 2
Fore
SplineSet
7 5 m 1,0,-1
 368 714 l 1,1,-1
 399 696 l 1,2,-1
 38 -14 l 1,3,-1
 7 5 l 1,0,-1
EndSplineSet
EndChar

StartChar: zero
Encoding: 48 48 19
Width: 596
GlyphClass: 2
Flags: W
LayerCount: 2
Fore
SplineSet
298 714 m 128,-1,1
 407 714 407 714 470 616.5 c 128,-1,2
 533 519 533 519 533 350 c 128,-1,3
 533 181 533 181 470 83.5 c 128,-1,4
 407 -14 407 -14 298 -14 c 128,-1,5
 189 -14 189 -14 126 83.5 c 128,-1,6
 63 181 63 181 63 350 c 128,-1,7
 63 519 63 519 126 616.5 c 128,-1,0
 189 714 189 714 298 714 c 128,-1,1
298 684 m 128,-1,9
 221 684 221 684 177 594.5 c 128,-1,10
 133 505 133 505 133 350 c 128,-1,11
 133 195 133 195 177 105.5 c 128,-1,12
 221 16 221 16 298 16 c 128,-1,13
 375 16 375 16 419 105.5 c 128,-1,14
 463 195 463 195 463 350 c 128,-1,15
 463 505 463 505 419 594.5 c 128,-1,8
 375 684 375 684 298 684 c 128,-1,9
EndSplineSet
EndChar

StartChar: one
Encoding: 49 49 20
Width: 344
GlyphClass: 2
Flags: W
LayerCount: 2
Fore
SplineSet
263 10 m 2,0,-1
 284 10 l 1,1,-1
 284 0 l 1,2,-1
 67 0 l 1,3,-1
 68 10 l 1,4,-1
 89 10 l 2,5,6
 111 10 111 10 127.5 26 c 128,-1,7
 144 42 144 42 144 64 c 2,8,-1
 144 591 l 2,9,10
 144 640 144 640 98 640 c 2,11,-1
 60 640 l 1,12,-1
 60 650 l 1,13,14
 107 656 107 656 139 669 c 128,-1,15
 171 682 171 682 198 714 c 1,16,-1
 208 714 l 1,17,-1
 208 64 l 2,18,19
 208 41 208 41 224 25.5 c 128,-1,20
 240 10 240 10 263 10 c 2,0,-1
EndSplineSet
EndChar

StartChar: two
Encoding: 50 50 21
Width: 553
GlyphClass: 2
Flags: W
LayerCount: 2
Fore
SplineSet
253 714 m 0,0,1
 353 714 353 714 412.5 661 c 128,-1,2
 472 608 472 608 472 516 c 0,3,4
 472 459 472 459 444 400 c 0,5,6
 413 336 413 336 382 297 c 128,-1,7
 351 258 351 258 331 234 c 128,-1,8
 311 210 311 210 285 182.5 c 128,-1,9
 259 155 259 155 240.5 136 c 128,-1,10
 222 117 222 117 197.5 92.5 c 128,-1,11
 173 68 173 68 161 56 c 1,12,-1
 391 56 l 2,13,14
 434 56 434 56 457.5 74 c 128,-1,15
 481 92 481 92 508 141 c 1,16,-1
 518 141 l 1,17,-1
 470 0 l 1,18,-1
 60 0 l 1,19,-1
 60 10 l 1,20,21
 166 108 166 108 271 242 c 0,22,23
 326 313 326 313 361.5 385.5 c 128,-1,24
 397 458 397 458 397 512 c 0,25,26
 397 593 397 593 359 638.5 c 128,-1,27
 321 684 321 684 256 684 c 0,28,29
 183 684 183 684 141.5 645 c 128,-1,30
 100 606 100 606 102 536 c 1,31,-1
 92 535 l 1,32,-1
 74 649 l 1,33,34
 113 688 113 688 187 706 c 0,35,36
 221 714 221 714 253 714 c 0,0,1
EndSplineSet
EndChar

StartChar: three
Encoding: 51 51 22
Width: 503
GlyphClass: 2
Flags: W
LayerCount: 2
Fore
SplineSet
61 641 m 1,0,1
 124 712 124 712 233 712 c 0,2,3
 311 712 311 712 362.5 671 c 128,-1,4
 414 630 414 630 414 566 c 128,-1,5
 414 502 414 502 371 452 c 128,-1,6
 328 402 328 402 277 397 c 1,7,8
 341 386 341 386 387 338.5 c 128,-1,9
 433 291 433 291 433 224.5 c 128,-1,10
 433 158 433 158 403 107 c 0,11,12
 340 0 340 0 203 -30 c 0,13,14
 165 -38 165 -38 129.5 -38 c 128,-1,15
 94 -38 94 -38 60 -32 c 1,16,-1
 62 -22 l 1,17,18
 67 -22 67 -22 72 -22 c 0,19,20
 145 -22 145 -22 210.5 7 c 128,-1,21
 276 36 276 36 317 92.5 c 128,-1,22
 358 149 358 149 358 225 c 128,-1,23
 358 301 358 301 302 342.5 c 128,-1,24
 246 384 246 384 153 384 c 1,25,-1
 155 394 l 1,26,27
 155 394 155 394 156 394 c 0,28,29
 226 394 226 394 282 438 c 0,30,31
 309 459 309 459 323.5 490.5 c 128,-1,32
 338 522 338 522 338 556 c 0,33,34
 338 611 338 611 306 646.5 c 128,-1,35
 274 682 274 682 213.5 682 c 128,-1,36
 153 682 153 682 120.5 646.5 c 128,-1,37
 88 611 88 611 88 558 c 0,38,39
 88 553 88 553 88 548 c 1,40,-1
 78 548 l 1,41,-1
 61 641 l 1,0,1
EndSplineSet
EndChar

StartChar: four
Encoding: 52 52 23
Width: 583
GlyphClass: 2
Flags: W
LayerCount: 2
Fore
SplineSet
416 249 m 1,0,-1
 416 63 l 2,1,2
 416 41 416 41 432 25.5 c 128,-1,3
 448 10 448 10 471 10 c 2,4,-1
 482 10 l 1,5,-1
 482 0 l 1,6,-1
 284 0 l 1,7,-1
 285 10 l 1,8,-1
 295 10 l 2,9,10
 318 10 318 10 334 25 c 128,-1,11
 350 40 350 40 351 62 c 1,12,-1
 351 249 l 1,13,-1
 40 249 l 1,14,-1
 40 259 l 1,15,-1
 406 714 l 1,16,-1
 416 714 l 1,17,-1
 416 304 l 1,18,-1
 459 304 l 2,19,20
 485 304 485 304 494.5 308 c 128,-1,21
 504 312 504 312 514 324 c 1,22,-1
 524 324 l 1,23,-1
 503 249 l 1,24,-1
 416 249 l 1,0,-1
351 304 m 1,25,-1
 351 596 l 1,26,-1
 115 304 l 1,27,-1
 351 304 l 1,25,-1
EndSplineSet
EndChar

StartChar: five
Encoding: 53 53 24
Width: 498
GlyphClass: 2
Flags: W
LayerCount: 2
Fore
SplineSet
108 451 m 1,0,1
 164 463 164 463 209.5 463 c 128,-1,2
 255 463 255 463 294 449 c 0,3,4
 423 403 423 403 423 265 c 0,5,6
 423 209 423 209 404.5 163.5 c 128,-1,7
 386 118 386 118 359 88.5 c 128,-1,8
 332 59 332 59 298 35 c 128,-1,9
 264 11 264 11 229 -2 c 0,10,11
 140 -33 140 -33 98 -33 c 0,12,13
 74 -33 74 -33 50 -31 c 1,14,-1
 52 -21 l 2,15,16
 53 -21 53 -21 64.5 -21 c 128,-1,17
 76 -21 76 -21 103.5 -14 c 128,-1,18
 131 -7 131 -7 163 6.5 c 128,-1,19
 195 20 195 20 226.5 43 c 128,-1,20
 258 66 258 66 284 95 c 0,21,22
 348 165 348 165 348 261 c 0,23,24
 348 317 348 317 313 358 c 0,25,26
 270 408 270 408 182 408 c 0,27,28
 130 408 130 408 66 389 c 1,29,-1
 57 393 l 1,30,-1
 135 664 l 1,31,-1
 333 679 l 1,32,33
 387 679 387 679 412 729 c 1,34,-1
 422 729 l 1,35,-1
 389 624 l 1,36,-1
 154 609 l 1,37,-1
 108 451 l 1,0,1
EndSplineSet
EndChar

StartChar: six
Encoding: 54 54 25
Width: 560
GlyphClass: 2
Flags: W
LayerCount: 2
Fore
SplineSet
296 367 m 0,0,1
 224 367 224 367 185 315 c 1,2,-1
 179 324 l 1,3,4
 210 361 210 361 251 382.5 c 128,-1,5
 292 404 292 404 334 404 c 128,-1,6
 376 404 376 404 413 386 c 128,-1,7
 450 368 450 368 476 324 c 1,8,9
 505 271 505 271 505 195 c 128,-1,10
 505 119 505 119 449 53 c 0,11,12
 392 -15 392 -15 291.5 -15 c 128,-1,13
 191 -15 191 -15 128 60.5 c 128,-1,14
 65 136 65 136 65 264 c 0,15,16
 65 373 65 373 102 477 c 0,17,18
 138 577 138 577 213 648 c 0,19,20
 289 721 289 721 401 734 c 1,21,-1
 405 727 l 1,22,23
 335 705 335 705 283.5 660 c 128,-1,24
 232 615 232 615 201 553 c 0,25,26
 140 433 140 433 140 272 c 0,27,28
 140 155 140 155 180 85 c 128,-1,29
 220 15 220 15 291 15 c 128,-1,30
 362 15 362 15 396 68.5 c 128,-1,31
 430 122 430 122 430 196 c 0,32,33
 430 305 430 305 368 346 c 0,34,35
 338 367 338 367 296 367 c 0,0,1
EndSplineSet
EndChar

StartChar: seven
Encoding: 55 55 26
Width: 502
GlyphClass: 2
Flags: W
LayerCount: 2
Fore
SplineSet
120 645 m 2,0,1
 91 645 91 645 74 630.5 c 128,-1,2
 57 616 57 616 45 585 c 1,3,-1
 35 585 l 1,4,-1
 63 698 l 1,5,-1
 463 698 l 1,6,-1
 355 410 l 2,7,8
 325 329 325 329 281.5 200.5 c 128,-1,9
 238 72 238 72 221 0 c 1,10,11
 221 0 221 0 151 0 c 1,12,13
 264 284 264 284 314 414 c 2,14,-1
 402 645 l 1,15,-1
 120 645 l 2,0,1
EndSplineSet
EndChar

StartChar: eight
Encoding: 56 56 27
Width: 552
GlyphClass: 2
Flags: W
LayerCount: 2
Fore
SplineSet
433 38.5 m 128,-1,1
 374 -14 374 -14 275.5 -14 c 128,-1,2
 177 -14 177 -14 118.5 38.5 c 128,-1,3
 60 91 60 91 60 171 c 0,4,5
 60 240 60 240 97 286.5 c 128,-1,6
 134 333 134 333 204 366 c 1,7,8
 96 444 96 444 96 547 c 0,9,10
 96 619 96 619 145 666 c 0,11,12
 195 714 195 714 276 714 c 128,-1,13
 357 714 357 714 406.5 669 c 128,-1,14
 456 624 456 624 456 545 c 0,15,16
 456 485 456 485 424 439.5 c 128,-1,17
 392 394 392 394 333 373 c 1,18,19
 424 328 424 328 458 283 c 1,20,21
 492 236 492 236 492 175 c 0,22,0
 492 91 492 91 433 38.5 c 128,-1,1
171 560 m 0,23,24
 171 462 171 462 274 403 c 1,25,-1
 296 391 l 1,26,27
 381 454 381 454 381 553 c 0,28,29
 381 613 381 613 353 648.5 c 128,-1,30
 325 684 325 684 276 684 c 128,-1,31
 227 684 227 684 199 647.5 c 128,-1,32
 171 611 171 611 171 560 c 0,23,24
135 168 m 0,33,34
 135 99 135 99 172.5 57.5 c 128,-1,35
 210 16 210 16 277.5 16 c 128,-1,36
 345 16 345 16 381 58.5 c 128,-1,37
 417 101 417 101 417 161 c 0,38,39
 417 197 417 197 408.5 214.5 c 128,-1,40
 400 232 400 232 393.5 242 c 128,-1,41
 387 252 387 252 376.5 261.5 c 128,-1,42
 366 271 366 271 358 277.5 c 128,-1,43
 350 284 350 284 336.5 291.5 c 128,-1,44
 323 299 323 299 315 303.5 c 128,-1,45
 307 308 307 308 292 315 c 0,46,47
 257 333 257 333 234 347 c 1,48,49
 135 280 135 280 135 168 c 0,33,34
EndSplineSet
EndChar

StartChar: nine
Encoding: 57 57 28
Width: 560
GlyphClass: 2
Flags: W
LayerCount: 2
Fore
SplineSet
381 612 m 128,-1,1
 342 682 342 682 270 682 c 128,-1,2
 198 682 198 682 164.5 630 c 128,-1,3
 131 578 131 578 131 500.5 c 128,-1,4
 131 423 131 423 166.5 376.5 c 128,-1,5
 202 330 202 330 269 330 c 128,-1,6
 336 330 336 330 376 382 c 1,7,-1
 381 373 l 1,8,9
 352 336 352 336 311 315.5 c 128,-1,10
 270 295 270 295 229 295 c 0,11,12
 128 295 128 295 82 376 c 0,13,14
 56 423 56 423 56 491 c 0,15,16
 56 588 56 588 114 649 c 0,17,18
 174 712 174 712 273.5 712 c 128,-1,19
 373 712 373 712 434 636.5 c 128,-1,20
 495 561 495 561 495 424 c 0,21,22
 495 322 495 322 459 221 c 0,23,24
 424 120 424 120 349 47 c 0,25,26
 272 -27 272 -27 159 -37 c 1,27,-1
 156 -30 l 1,28,29
 224 -11 224 -11 276 33.5 c 128,-1,30
 328 78 328 78 359 140 c 0,31,32
 420 261 420 261 420 401.5 c 128,-1,0
 420 542 420 542 381 612 c 128,-1,1
EndSplineSet
EndChar

StartChar: colon
Encoding: 58 58 29
Width: 170
GlyphClass: 2
Flags: W
LayerCount: 2
Fore
SplineSet
90 379 m 128,-1,1
 71 379 71 379 58 392 c 128,-1,2
 45 405 45 405 45 423.5 c 128,-1,3
 45 442 45 442 58 455.5 c 128,-1,4
 71 469 71 469 90 469 c 128,-1,5
 109 469 109 469 122 455.5 c 128,-1,6
 135 442 135 442 135 423.5 c 128,-1,7
 135 405 135 405 122 392 c 128,-1,0
 109 379 109 379 90 379 c 128,-1,1
90 -4 m 128,-1,9
 71 -4 71 -4 58 9 c 128,-1,10
 45 22 45 22 45 41 c 128,-1,11
 45 60 45 60 58 73 c 128,-1,12
 71 86 71 86 90 86 c 128,-1,13
 109 86 109 86 122 73 c 128,-1,14
 135 60 135 60 135 41 c 128,-1,15
 135 22 135 22 122 9 c 128,-1,8
 109 -4 109 -4 90 -4 c 128,-1,9
EndSplineSet
EndChar

StartChar: semicolon
Encoding: 59 59 30
Width: 600
GlyphClass: 2
Flags: W
LayerCount: 2
Fore
SplineSet
90 407 m 128,-1,1
 71 407 71 407 58 420.5 c 128,-1,2
 45 434 45 434 45 452.5 c 128,-1,3
 45 471 45 471 58 484 c 128,-1,4
 71 497 71 497 90 497 c 128,-1,5
 109 497 109 497 122 484 c 128,-1,6
 135 471 135 471 135 452.5 c 128,-1,7
 135 434 135 434 122 420.5 c 128,-1,0
 109 407 109 407 90 407 c 128,-1,1
45 -81 m 1,8,9
 72 -72 72 -72 81.5 -56 c 128,-1,10
 91 -40 91 -40 91 -32 c 0,11,12
 91 -7 91 -7 71 15 c 1,13,14
 56 33 56 33 54 40 c 0,15,16
 51 54 51 54 56 66 c 0,17,18
 65 86 65 86 89 86 c 0,19,20
 119 86 119 86 130 58.5 c 128,-1,21
 141 31 141 31 141 14 c 0,22,23
 141 -38 141 -38 104 -67 c 1,24,25
 79 -88 79 -88 47 -89 c 1,26,-1
 45 -81 l 1,8,9
EndSplineSet
EndChar

StartChar: less
Encoding: 60 60 31
Width: 481
GlyphClass: 2
Flags: W
LayerCount: 2
Fore
SplineSet
442 523 m 1,0,-1
 442 475 l 1,1,-1
 99 310 l 1,2,-1
 442 144 l 1,3,-1
 442 96 l 1,4,-1
 40 287 l 1,5,-1
 40 332 l 1,6,-1
 442 523 l 1,0,-1
EndSplineSet
EndChar

StartChar: equal
Encoding: 61 61 32
Width: 481
GlyphClass: 2
Flags: W
LayerCount: 2
Fore
SplineSet
40 364 m 1,0,-1
 40 409 l 1,1,-1
 442 409 l 1,2,-1
 442 364 l 1,3,-1
 40 364 l 1,0,-1
40 189 m 1,4,-1
 40 234 l 1,5,-1
 442 234 l 1,6,-1
 442 189 l 1,7,-1
 40 189 l 1,4,-1
EndSplineSet
EndChar

StartChar: greater
Encoding: 62 62 33
Width: 481
GlyphClass: 2
Flags: W
LayerCount: 2
Fore
SplineSet
40 523 m 1,0,-1
 442 332 l 1,1,-1
 442 287 l 1,2,-1
 40 96 l 1,3,-1
 40 144 l 1,4,-1
 382 310 l 1,5,-1
 40 475 l 1,6,-1
 40 523 l 1,0,-1
EndSplineSet
EndChar

StartChar: question
Encoding: 63 63 34
Width: 413
GlyphClass: 2
Flags: W
LayerCount: 2
Fore
SplineSet
168 714 m 0,0,1
 259 714 259 714 311 669 c 128,-1,2
 363 624 363 624 363 544 c 0,3,4
 363 482 363 482 323 433 c 0,5,6
 290 392 290 392 257 362 c 0,7,8
 198 308 198 308 186 267 c 1,9,10
 179 247 179 247 179 222.5 c 128,-1,11
 179 198 179 198 196 175 c 1,12,-1
 190 170 l 1,13,14
 146 211 146 211 146 266 c 0,15,16
 146 311 146 311 196 369 c 0,17,18
 217 393 217 393 238 419 c 0,19,20
 288 480 288 480 288 544 c 0,21,22
 288 633 288 633 232 667 c 0,23,24
 205 684 205 684 168 684 c 0,25,26
 108 684 108 684 74 643.5 c 128,-1,27
 40 603 40 603 40 536 c 0,28,29
 40 533 40 533 40 530 c 1,30,-1
 30 530 l 1,31,-1
 20 625 l 1,32,33
 43 667 43 667 81.5 690.5 c 128,-1,34
 120 714 120 714 168 714 c 0,0,1
180.5 -4 m 128,-1,36
 162 -4 162 -4 148.5 9 c 128,-1,37
 135 22 135 22 135 41 c 128,-1,38
 135 60 135 60 148.5 73 c 128,-1,39
 162 86 162 86 180.5 86 c 128,-1,40
 199 86 199 86 212 73 c 128,-1,41
 225 60 225 60 225 41 c 128,-1,42
 225 22 225 22 212 9 c 128,-1,35
 199 -4 199 -4 180.5 -4 c 128,-1,36
EndSplineSet
EndChar

StartChar: at
Encoding: 64 64 35
Width: 977
GlyphClass: 2
Flags: W
LayerCount: 2
Fore
SplineSet
59 240 m 128,-1,1
 59 314 59 314 91 395 c 1,2,3
 156 549 156 549 298 630 c 0,4,5
 408 693 408 693 540 693 c 0,6,7
 748 693 748 693 849 562 c 0,8,9
 917 473 917 473 917 357 c 0,10,11
 917 275 917 275 892 202.5 c 128,-1,12
 867 130 867 130 833 78 c 128,-1,13
 799 26 799 26 754 -15 c 0,14,15
 661 -100 661 -100 520 -119 c 0,16,17
 493 -123 493 -123 455 -123 c 0,18,19
 336 -123 336 -123 194 -63 c 1,20,-1
 190 -53 l 1,21,22
 312 -98 312 -98 416 -98 c 0,23,24
 465 -98 465 -98 510 -88 c 0,25,26
 650 -57 650 -57 740.5 49.5 c 128,-1,27
 831 156 831 156 850 309 c 0,28,29
 853 339 853 339 853 367 c 0,30,31
 853 471 853 471 803 546 c 0,32,33
 725 662 725 662 553 662 c 0,34,35
 440 662 440 662 343 606 c 0,36,37
 220 534 220 534 156 390 c 0,38,39
 115 299 115 299 115 220 c 0,40,41
 115 175 115 175 130 145 c 0,42,43
 150 103 150 103 192 103 c 0,44,45
 252 103 252 103 332 210 c 0,46,47
 343 224 343 224 363.5 253.5 c 128,-1,48
 384 283 384 283 390 291 c 2,49,-1
 517 464 l 1,50,51
 564 521 564 521 572 541 c 1,52,-1
 579 541 l 1,53,-1
 620 137 l 2,54,55
 623 114 623 114 634.5 102 c 128,-1,56
 646 90 646 90 661 90 c 2,57,-1
 666 90 l 1,58,-1
 665 83 l 1,59,-1
 507 83 l 1,60,-1
 508 90 l 1,61,-1
 515 90 l 2,62,63
 528 90 528 90 542 100.5 c 128,-1,64
 556 111 556 111 556 127 c 2,65,-1
 550 234 l 1,66,-1
 386 234 l 1,67,68
 326 150 326 150 283 112 c 0,69,70
 240 73 240 73 188 73 c 128,-1,71
 136 73 136 73 97.5 119.5 c 128,-1,0
 59 166 59 166 59 240 c 128,-1,1
538 451 m 1,72,-1
 402 257 l 1,73,-1
 549 257 l 1,74,-1
 538 451 l 1,72,-1
EndSplineSet
EndChar

StartChar: A
Encoding: 65 65 36
Width: 712
GlyphClass: 2
Flags: W
LayerCount: 2
Fore
SplineSet
715 10 m 2,0,-1
 723 10 l 1,1,-1
 723 0 l 1,2,-1
 498 0 l 1,3,-1
 498 10 l 1,4,-1
 507 10 l 2,5,6
 528 10 528 10 538.5 23.5 c 128,-1,7
 549 37 549 37 549 49 c 128,-1,8
 549 61 549 61 545 73 c 2,9,-1
 481 243 l 1,10,-1
 211 243 l 1,11,-1
 144 72 l 2,12,13
 140 60 140 60 140 48.5 c 128,-1,14
 140 37 140 37 150.5 23.5 c 128,-1,15
 161 10 161 10 182 10 c 2,16,-1
 191 10 l 1,17,-1
 191 0 l 1,18,-1
 -10 0 l 1,19,-1
 -10 10 l 1,20,-1
 -1 10 l 2,21,22
 24 10 24 10 48 26 c 128,-1,23
 72 42 72 42 87 73 c 1,24,-1
 313 611 l 1,25,26
 350 692 350 692 350 714 c 1,27,-1
 359 714 l 1,28,-1
 627 73 l 2,29,30
 641 42 641 42 665 26 c 128,-1,31
 689 10 689 10 715 10 c 2,0,-1
223 273 m 1,32,-1
 469 273 l 1,33,-1
 349 594 l 1,34,-1
 223 273 l 1,32,-1
EndSplineSet
EndChar

StartChar: B
Encoding: 66 66 37
Width: 586
GlyphClass: 2
Flags: W
LayerCount: 2
Fore
SplineSet
304 0 m 2,0,-1
 60 0 l 1,1,-1
 61 10 l 1,2,-1
 73 10 l 2,3,4
 99 10 99 10 117.5 28 c 128,-1,5
 136 46 136 46 137 72 c 1,6,-1
 137 628 l 2,7,8
 137 654 137 654 118 672 c 128,-1,9
 99 690 99 690 73 690 c 2,10,-1
 61 690 l 1,11,-1
 60 700 l 1,12,-1
 259 700 l 2,13,14
 362 700 362 700 419 654.5 c 128,-1,15
 476 609 476 609 476 533 c 0,16,17
 476 473 476 473 444 433.5 c 128,-1,18
 412 394 412 394 366 381 c 1,19,20
 445 369 445 369 491 316 c 128,-1,21
 537 263 537 263 537 182.5 c 128,-1,22
 537 102 537 102 475.5 51 c 128,-1,23
 414 0 414 0 304 0 c 2,0,-1
202 36 m 1,24,-1
 300 36 l 2,25,26
 301 36 301 36 302 36 c 0,27,28
 378 36 378 36 420 77.5 c 128,-1,29
 462 119 462 119 462 195 c 0,30,31
 462 238 462 238 447.5 270.5 c 128,-1,32
 433 303 433 303 411 322 c 0,33,34
 353 370 353 370 237 370 c 2,35,36
 237 370 237 370 236 370 c 1,37,-1
 236 379 l 1,38,39
 237 379 237 379 245.5 379 c 128,-1,40
 254 379 254 379 270 381 c 128,-1,41
 286 383 286 383 306 388 c 128,-1,42
 326 393 326 393 342 404 c 128,-1,43
 358 415 358 415 372 430 c 0,44,45
 401 463 401 463 401 528.5 c 128,-1,46
 401 594 401 594 363.5 631 c 128,-1,47
 326 668 326 668 255 668 c 2,48,-1
 202 668 l 1,49,-1
 202 36 l 1,24,-1
EndSplineSet
EndChar

StartChar: C
Encoding: 67 67 38
Width: 760
GlyphClass: 2
Flags: W
LayerCount: 2
Fore
SplineSet
159.5 87 m 128,-1,1
 60 187 60 187 60 350.5 c 128,-1,2
 60 514 60 514 159.5 614 c 128,-1,3
 259 714 259 714 423 714 c 0,4,5
 557 714 557 714 660 646 c 1,6,-1
 680 505 l 1,7,-1
 671 505 l 1,8,9
 649 591 649 591 582 637.5 c 128,-1,10
 515 684 515 684 423 684 c 0,11,12
 292 684 292 684 213.5 593 c 128,-1,13
 135 502 135 502 135 352 c 128,-1,14
 135 202 135 202 212.5 110.5 c 128,-1,15
 290 19 290 19 417 16 c 1,16,17
 529 16 529 16 604 77 c 0,18,19
 685 143 685 143 702 292 c 1,20,-1
 710 292 l 1,21,-1
 698 135 l 1,22,23
 607 -14 607 -14 417 -14 c 1,24,0
 259 -13 259 -13 159.5 87 c 128,-1,1
EndSplineSet
EndChar

StartChar: D
Encoding: 68 68 39
Width: 807
GlyphClass: 2
Flags: W
LayerCount: 2
Fore
SplineSet
658.5 603.5 m 128,-1,1
 758 507 758 507 758 350 c 128,-1,2
 758 193 758 193 658.5 96.5 c 128,-1,3
 559 0 559 0 399 0 c 2,4,-1
 60 0 l 1,5,-1
 60 10 l 1,6,-1
 73 10 l 2,7,8
 99 10 99 10 117.5 28.5 c 128,-1,9
 136 47 136 47 137 73 c 1,10,-1
 137 633 l 2,11,12
 137 657 137 657 117.5 673.5 c 128,-1,13
 98 690 98 690 73 690 c 2,14,-1
 61 690 l 1,15,-1
 60 700 l 1,16,-1
 399 700 l 2,17,0
 559 700 559 700 658.5 603.5 c 128,-1,1
202 670 m 1,18,-1
 202 30 l 1,19,-1
 399 30 l 2,20,21
 483 30 483 30 547.5 70 c 128,-1,22
 612 110 612 110 647.5 182.5 c 128,-1,23
 683 255 683 255 683 350 c 0,24,25
 683 494 683 494 604.5 582 c 128,-1,26
 526 670 526 670 399 670 c 2,27,-1
 202 670 l 1,18,-1
EndSplineSet
EndChar

StartChar: E
Encoding: 69 69 40
Width: 577
GlyphClass: 2
Flags: W
LayerCount: 2
Fore
SplineSet
73 10 m 2,0,1
 99 10 99 10 117.5 28.5 c 128,-1,2
 136 47 136 47 137 73 c 1,3,-1
 137 633 l 1,4,5
 134 657 134 657 116 673.5 c 128,-1,6
 98 690 98 690 73 690 c 2,7,-1
 61 690 l 1,8,-1
 60 700 l 1,9,-1
 353 700 l 2,10,11
 384 700 384 700 420.5 706 c 128,-1,12
 457 712 457 712 472 718 c 1,13,-1
 472 592 l 1,14,-1
 462 592 l 1,15,-1
 462 610 l 2,16,17
 462 634 462 634 445.5 651 c 128,-1,18
 429 668 429 668 406 669 c 1,19,-1
 202 669 l 1,20,-1
 202 360 l 1,21,-1
 371 360 l 1,22,23
 391 361 391 361 405 375 c 128,-1,24
 419 389 419 389 419 410 c 2,25,-1
 419 424 l 1,26,-1
 429 424 l 1,27,-1
 429 266 l 1,28,-1
 419 266 l 1,29,-1
 419 281 l 2,30,31
 419 301 419 301 405.5 315 c 128,-1,32
 392 329 392 329 372 330 c 1,33,-1
 202 330 l 1,34,-1
 202 31 l 1,35,-1
 345 31 l 2,36,37
 419 31 419 31 458 64 c 128,-1,38
 497 97 497 97 523 162 c 1,39,-1
 533 162 l 1,40,-1
 475 0 l 1,41,-1
 60 0 l 1,42,-1
 60 10 l 1,43,-1
 73 10 l 2,0,1
EndSplineSet
EndChar

StartChar: F
Encoding: 70 70 41
Width: 541
GlyphClass: 2
Flags: W
LayerCount: 2
Fore
SplineSet
472 689 m 1,0,-1
 472 605 l 1,1,-1
 462 605 l 1,2,-1
 462 620 l 2,3,4
 462 640 462 640 448 654.5 c 128,-1,5
 434 669 434 669 413 669 c 2,6,-1
 202 669 l 1,7,-1
 202 360 l 1,8,-1
 371 360 l 1,9,10
 391 361 391 361 405 375 c 128,-1,11
 419 389 419 389 419 409 c 2,12,-1
 419 424 l 1,13,-1
 429 424 l 1,14,-1
 429 266 l 1,15,-1
 419 266 l 1,16,-1
 419 281 l 2,17,18
 419 301 419 301 405.5 315 c 128,-1,19
 392 329 392 329 372 330 c 1,20,-1
 202 330 l 1,21,-1
 202 73 l 2,22,23
 202 47 202 47 221 28.5 c 128,-1,24
 240 10 240 10 266 10 c 2,25,-1
 279 10 l 1,26,-1
 279 0 l 1,27,-1
 60 0 l 1,28,-1
 60 10 l 1,29,-1
 73 10 l 2,30,31
 99 10 99 10 117.5 28.5 c 128,-1,32
 136 47 136 47 137 73 c 1,33,-1
 137 633 l 2,34,35
 137 657 137 657 117.5 673.5 c 128,-1,36
 98 690 98 690 73 690 c 2,37,-1
 61 690 l 1,38,-1
 60 700 l 1,39,-1
 353 700 l 2,40,41
 384 700 384 700 420.5 706 c 128,-1,42
 457 712 457 712 472 718 c 1,43,-1
 472 689 l 1,0,-1
EndSplineSet
EndChar

StartChar: G
Encoding: 71 71 42
Width: 798
GlyphClass: 2
Flags: W
LayerCount: 2
Fore
SplineSet
159.5 87 m 128,-1,1
 60 187 60 187 60 350 c 128,-1,2
 60 513 60 513 159.5 613.5 c 128,-1,3
 259 714 259 714 419 714 c 0,4,5
 557 714 557 714 662 646 c 1,6,-1
 682 505 l 1,7,-1
 673 505 l 1,8,9
 651 591 651 591 584.5 637.5 c 128,-1,10
 518 684 518 684 419 684 c 0,11,12
 292 684 292 684 213.5 592 c 128,-1,13
 135 500 135 500 135 350 c 128,-1,14
 135 200 135 200 213.5 108.5 c 128,-1,15
 292 17 292 17 419 16 c 0,16,17
 484 16 484 16 542.5 39 c 128,-1,18
 601 62 601 62 645 103 c 1,19,-1
 645 280 l 2,20,21
 645 302 645 302 631.5 313.5 c 128,-1,22
 618 325 618 325 594 325 c 2,23,-1
 578 325 l 1,24,-1
 578 335 l 1,25,-1
 774 335 l 1,26,-1
 774 325 l 1,27,-1
 759 325 l 2,28,29
 734 325 734 325 721 313.5 c 128,-1,30
 708 302 708 302 709 280 c 1,31,-1
 709 115 l 1,32,33
 683 81 683 81 647 54 c 128,-1,34
 611 27 611 27 550.5 6.5 c 128,-1,35
 490 -14 490 -14 419 -14 c 0,36,0
 259 -13 259 -13 159.5 87 c 128,-1,1
EndSplineSet
EndChar

StartChar: H
Encoding: 72 72 43
Width: 813
GlyphClass: 2
Flags: W
LayerCount: 2
Fore
SplineSet
547 10 m 2,0,1
 573 10 573 10 591.5 28 c 128,-1,2
 610 46 610 46 611 72 c 1,3,-1
 611 331 l 1,4,-1
 202 331 l 1,5,-1
 202 73 l 2,6,7
 202 47 202 47 221 28.5 c 128,-1,8
 240 10 240 10 266 10 c 2,9,-1
 279 10 l 1,10,-1
 279 0 l 1,11,-1
 60 0 l 1,12,-1
 60 10 l 1,13,-1
 73 10 l 2,14,15
 99 10 99 10 117.5 28.5 c 128,-1,16
 136 47 136 47 137 73 c 1,17,-1
 137 628 l 1,18,19
 136 654 136 654 117.5 672 c 128,-1,20
 99 690 99 690 73 690 c 2,21,-1
 60 690 l 1,22,-1
 60 700 l 1,23,-1
 279 700 l 1,24,-1
 279 690 l 1,25,-1
 266 690 l 2,26,27
 240 690 240 690 221.5 672 c 128,-1,28
 203 654 203 654 202 628 c 1,29,-1
 202 361 l 1,30,-1
 611 361 l 1,31,-1
 611 628 l 1,32,33
 610 664 610 664 579 682 c 0,34,35
 564 690 564 690 547 690 c 2,36,-1
 534 690 l 1,37,-1
 534 700 l 1,38,-1
 753 700 l 1,39,-1
 753 690 l 1,40,-1
 740 690 l 2,41,42
 714 690 714 690 695.5 671.5 c 128,-1,43
 677 653 677 653 676 627 c 1,44,-1
 676 73 l 1,45,46
 677 47 677 47 695.5 28.5 c 128,-1,47
 714 10 714 10 740 10 c 2,48,-1
 753 10 l 1,49,-1
 753 0 l 1,50,-1
 534 0 l 1,51,-1
 534 10 l 1,52,-1
 547 10 l 2,0,1
EndSplineSet
EndChar

StartChar: I
Encoding: 73 73 44
Width: 338
GlyphClass: 2
Flags: W
LayerCount: 2
Fore
SplineSet
73 10 m 2,0,1
 99 10 99 10 117.5 28.5 c 128,-1,2
 136 47 136 47 137 73 c 1,3,-1
 137 628 l 1,4,5
 136 654 136 654 117.5 672 c 128,-1,6
 99 690 99 690 73 690 c 2,7,-1
 60 690 l 1,8,-1
 60 700 l 1,9,-1
 279 700 l 1,10,-1
 279 690 l 1,11,-1
 266 690 l 2,12,13
 240 690 240 690 221.5 672 c 128,-1,14
 203 654 203 654 202 628 c 1,15,-1
 202 73 l 2,16,17
 202 47 202 47 221 28.5 c 128,-1,18
 240 10 240 10 266 10 c 2,19,-1
 279 10 l 1,20,-1
 279 0 l 1,21,-1
 60 0 l 1,22,-1
 60 10 l 1,23,-1
 73 10 l 2,0,1
EndSplineSet
EndChar

StartChar: J
Encoding: 74 74 45
Width: 324
GlyphClass: 2
Flags: W
LayerCount: 2
Fore
SplineSet
266 690 m 2,0,1
 230 690 230 690 211 659 c 0,2,3
 203 645 203 645 202 627 c 1,4,-1
 202 0 l 2,5,6
 202 -84 202 -84 149.5 -142 c 128,-1,7
 97 -200 97 -200 20 -200 c 1,8,-1
 20 -191 l 1,9,10
 69 -174 69 -174 103 -117.5 c 128,-1,11
 137 -61 137 -61 137 3 c 2,12,-1
 137 627 l 1,13,14
 136 653 136 653 117.5 671.5 c 128,-1,15
 99 690 99 690 73 690 c 2,16,-1
 60 690 l 1,17,-1
 60 700 l 1,18,-1
 279 700 l 1,19,-1
 279 690 l 1,20,-1
 266 690 l 2,0,1
EndSplineSet
EndChar

StartChar: K
Encoding: 75 75 46
Width: 657
GlyphClass: 2
Flags: W
LayerCount: 2
Fore
SplineSet
266 10 m 2,0,-1
 279 10 l 1,1,-1
 279 0 l 1,2,-1
 60 0 l 1,3,-1
 60 10 l 1,4,-1
 73 10 l 2,5,6
 99 10 99 10 117.5 28.5 c 128,-1,7
 136 47 136 47 137 73 c 1,8,-1
 137 628 l 1,9,10
 136 654 136 654 117.5 672 c 128,-1,11
 99 690 99 690 73 690 c 2,12,-1
 60 690 l 1,13,-1
 60 700 l 1,14,-1
 279 700 l 1,15,-1
 279 690 l 1,16,-1
 266 690 l 2,17,18
 240 690 240 690 221.5 672 c 128,-1,19
 203 654 203 654 202 628 c 1,20,-1
 202 73 l 2,21,22
 202 47 202 47 221 28.5 c 128,-1,23
 240 10 240 10 266 10 c 2,0,-1
668 0 m 1,24,-1
 625 0 l 2,25,26
 523 0 523 0 475 57 c 2,27,-1
 234 348 l 1,28,-1
 470 644 l 2,29,30
 478 654 478 654 478 662 c 128,-1,31
 478 670 478 670 475 676 c 0,32,33
 467 691 467 691 446 691 c 2,34,-1
 436 691 l 1,35,-1
 436 700 l 1,36,-1
 647 700 l 1,37,-1
 647 691 l 1,38,-1
 643 691 l 2,39,40
 577 691 577 691 535 644 c 1,41,-1
 300 372 l 1,42,-1
 573 51 l 1,43,44
 613 11 613 11 668 10 c 1,45,-1
 668 0 l 1,24,-1
EndSplineSet
EndChar

StartChar: L
Encoding: 76 76 47
Width: 562
GlyphClass: 2
Flags: W
LayerCount: 2
Fore
SplineSet
73 10 m 2,0,1
 99 10 99 10 117.5 28.5 c 128,-1,2
 136 47 136 47 137 73 c 1,3,-1
 137 627 l 1,4,5
 136 653 136 653 117.5 671.5 c 128,-1,6
 99 690 99 690 73 690 c 2,7,-1
 60 690 l 1,8,-1
 60 700 l 1,9,-1
 279 700 l 1,10,-1
 279 690 l 1,11,-1
 266 690 l 2,12,13
 230 690 230 690 211 659 c 0,14,15
 202 644 202 644 202 627 c 2,16,-1
 202 31 l 1,17,-1
 345 31 l 2,18,19
 419 31 419 31 458 64 c 128,-1,20
 497 97 497 97 523 162 c 1,21,-1
 533 162 l 1,22,-1
 475 0 l 1,23,-1
 60 0 l 1,24,-1
 60 10 l 1,25,-1
 73 10 l 2,0,1
EndSplineSet
EndChar

StartChar: M
Encoding: 77 77 48
Width: 931
GlyphClass: 2
Flags: W
LayerCount: 2
Fore
SplineSet
900 10 m 2,0,-1
 916 10 l 1,1,-1
 916 0 l 1,2,-1
 699 0 l 1,3,-1
 699 9 l 1,4,-1
 714 9 l 2,5,6
 731 9 731 9 743 22.5 c 128,-1,7
 755 36 755 36 753 52 c 2,8,-1
 708 555 l 1,9,-1
 498 88 l 2,10,11
 470 27 470 27 464 -14 c 1,12,-1
 454 -14 l 1,13,-1
 198 541 l 1,14,-1
 155 52 l 2,15,16
 153 36 153 36 165 22.5 c 128,-1,17
 177 9 177 9 193 9 c 2,18,-1
 209 9 l 1,19,-1
 209 0 l 1,20,-1
 15 0 l 1,21,-1
 15 10 l 1,22,-1
 31 10 l 2,23,24
 59 10 59 10 79.5 27 c 128,-1,25
 100 44 100 44 104 73 c 2,26,-1
 179 714 l 1,27,-1
 189 714 l 1,28,-1
 468 111 l 1,29,-1
 741 714 l 1,30,-1
 750 714 l 1,31,-1
 827 73 l 2,32,33
 832 33 832 33 867 17 c 0,34,35
 882 10 882 10 900 10 c 2,0,-1
EndSplineSet
EndChar

StartChar: N
Encoding: 78 78 49
Width: 841
GlyphClass: 2
Flags: W
LayerCount: 2
Fore
SplineSet
778 690 m 2,0,1
 753 690 753 690 735 672.5 c 128,-1,2
 717 655 717 655 716 630 c 1,3,-1
 716 114 l 2,4,5
 716 56 716 56 723 4 c 1,6,-1
 725 -14 l 1,7,-1
 716 -14 l 1,8,-1
 171 568 l 1,9,-1
 171 70 l 1,10,11
 172 35 172 35 202 18 c 0,12,13
 216 10 216 10 232 10 c 2,14,-1
 251 10 l 1,15,-1
 251 0 l 1,16,-1
 45 0 l 1,17,-1
 45 10 l 1,18,-1
 64 10 l 2,19,20
 89 10 89 10 107 27.5 c 128,-1,21
 125 45 125 45 125 71 c 2,22,-1
 125 590 l 2,23,24
 125 651 125 651 118 699 c 2,25,-1
 116 715 l 1,26,-1
 126 715 l 1,27,-1
 671 133 l 1,28,-1
 671 629 l 1,29,30
 670 655 670 655 652 672.5 c 128,-1,31
 634 690 634 690 609 690 c 2,32,-1
 590 690 l 1,33,-1
 590 700 l 1,34,-1
 796 700 l 1,35,-1
 796 690 l 1,36,-1
 778 690 l 2,0,1
EndSplineSet
EndChar

StartChar: O
Encoding: 79 79 50
Width: 838
GlyphClass: 2
Flags: W
LayerCount: 2
Fore
SplineSet
429 714 m 128,-1,1
 589 714 589 714 689 613.5 c 128,-1,2
 789 513 789 513 789 350 c 128,-1,3
 789 187 789 187 689 86.5 c 128,-1,4
 589 -14 589 -14 429 -14 c 128,-1,5
 269 -14 269 -14 169.5 86.5 c 128,-1,6
 70 187 70 187 70 350 c 128,-1,7
 70 513 70 513 169.5 613.5 c 128,-1,0
 269 714 269 714 429 714 c 128,-1,1
429.5 16 m 128,-1,9
 557 16 557 16 634.5 108 c 128,-1,10
 712 200 712 200 712 350 c 0,11,12
 712 449 712 449 677 525 c 128,-1,13
 642 601 642 601 577.5 642.5 c 128,-1,14
 513 684 513 684 429 684 c 0,15,16
 302 684 302 684 224.5 592 c 128,-1,17
 147 500 147 500 147 350 c 128,-1,18
 147 200 147 200 224.5 108 c 128,-1,8
 302 16 302 16 429.5 16 c 128,-1,9
EndSplineSet
EndChar

StartChar: P
Encoding: 80 80 51
Width: 577
GlyphClass: 2
Flags: W
LayerCount: 2
Fore
SplineSet
527 507 m 0,0,1
 527 463 527 463 509 425 c 0,2,3
 476 354 476 354 393 326 c 0,4,5
 364 316 364 316 343 316 c 0,6,7
 281 316 281 316 236 339 c 1,8,-1
 236 349 l 1,9,10
 309 333 309 333 371 365 c 0,11,12
 426 393 426 393 446 457 c 0,13,14
 452 477 452 477 452 495 c 128,-1,15
 452 513 452 513 452 517 c 0,16,17
 450 587 450 587 415 628.5 c 128,-1,18
 380 670 380 670 317 670 c 2,19,-1
 202 670 l 1,20,-1
 202 73 l 1,21,22
 203 47 203 47 221.5 28.5 c 128,-1,23
 240 10 240 10 266 10 c 2,24,-1
 279 10 l 1,25,-1
 279 0 l 1,26,-1
 60 0 l 1,27,-1
 60 10 l 1,28,-1
 73 10 l 2,29,30
 99 10 99 10 117.5 28.5 c 128,-1,31
 136 47 136 47 137 73 c 1,32,-1
 137 632 l 1,33,34
 134 657 134 657 116 673.5 c 128,-1,35
 98 690 98 690 73 690 c 2,36,-1
 61 690 l 1,37,-1
 60 700 l 1,38,-1
 321 700 l 2,39,40
 417 700 417 700 472 648.5 c 128,-1,41
 527 597 527 597 527 507 c 0,0,1
EndSplineSet
EndChar

StartChar: Q
Encoding: 81 81 52
Width: 837
GlyphClass: 2
Flags: W
LayerCount: 2
Fore
SplineSet
1224 -188.5 m 128,-1,1
 1178 -214 1178 -214 1131 -226.5 c 128,-1,2
 1084 -239 1084 -239 1048 -239 c 0,3,4
 932 -239 932 -239 828 -194 c 0,5,6
 791 -178 791 -178 703 -133 c 0,7,8
 506 -32 506 -32 408 -14 c 1,9,10
 253 -10 253 -10 156.5 90 c 128,-1,11
 60 190 60 190 60 351.5 c 128,-1,12
 60 513 60 513 159.5 613.5 c 128,-1,13
 259 714 259 714 419 714 c 128,-1,14
 579 714 579 714 678 613.5 c 128,-1,15
 777 513 777 513 777 350 c 0,16,17
 777 211 777 211 703 116 c 128,-1,18
 629 21 629 21 505 -5 c 1,19,20
 614 -38 614 -38 836 -133 c 1,21,22
 942 -177 942 -177 1052 -177 c 0,23,24
 1114 -177 1114 -177 1177 -162 c 1,25,26
 1265 -139 1265 -139 1324 -84 c 1,27,-1
 1328 -89 l 1,28,29
 1320 -110 1320 -110 1295 -136.5 c 128,-1,0
 1270 -163 1270 -163 1224 -188.5 c 128,-1,1
213 592 m 128,-1,31
 135 500 135 500 135 350 c 128,-1,32
 135 200 135 200 213.5 108 c 128,-1,33
 292 16 292 16 419.5 16 c 128,-1,34
 547 16 547 16 624.5 108 c 128,-1,35
 702 200 702 200 702 350 c 0,36,37
 702 449 702 449 667 525 c 128,-1,38
 632 601 632 601 567.5 642.5 c 128,-1,39
 503 684 503 684 419 684 c 0,40,30
 291 684 291 684 213 592 c 128,-1,31
EndSplineSet
EndChar

StartChar: R
Encoding: 82 82 53
Width: 677
GlyphClass: 2
Flags: W
LayerCount: 2
Fore
SplineSet
266 669 m 2,0,-1
 202 669 l 1,1,-1
 202 73 l 2,2,3
 202 47 202 47 220.5 28.5 c 128,-1,4
 239 10 239 10 266 10 c 2,5,-1
 278 10 l 1,6,-1
 279 0 l 1,7,-1
 60 0 l 1,8,-1
 60 10 l 1,9,-1
 73 10 l 2,10,11
 99 10 99 10 117.5 28 c 128,-1,12
 136 46 136 46 137 72 c 1,13,-1
 137 627 l 1,14,15
 136 653 136 653 117.5 671.5 c 128,-1,16
 99 690 99 690 73 690 c 2,17,-1
 60 690 l 1,18,-1
 60 700 l 1,19,-1
 330 700 l 2,20,21
 421 700 421 700 473 649.5 c 128,-1,22
 525 599 525 599 525 518.5 c 128,-1,23
 525 438 525 438 475.5 379.5 c 128,-1,24
 426 321 426 321 355 321 c 1,25,26
 370 314 370 314 390.5 293.5 c 128,-1,27
 411 273 411 273 427 251 c 0,28,29
 513 128 513 128 539 99.5 c 128,-1,30
 565 71 565 71 576 60.5 c 128,-1,31
 587 50 587 50 600 40 c 128,-1,32
 613 30 613 30 626 24 c 0,33,34
 655 10 655 10 688 10 c 1,35,-1
 688 0 l 1,36,-1
 633 0 l 2,37,38
 590 0 590 0 553 15.5 c 128,-1,39
 516 31 516 31 497.5 47.5 c 128,-1,40
 479 64 479 64 465.5 79.5 c 128,-1,41
 452 95 452 95 391 183 c 128,-1,42
 330 271 330 271 320 283.5 c 128,-1,43
 310 296 310 296 299 308 c 0,44,45
 267 342 267 342 235 342 c 1,46,-1
 235 352 l 1,47,48
 243 351 243 351 256 351 c 128,-1,49
 269 351 269 351 288 352 c 0,50,51
 412 355 412 355 444 456 c 0,52,53
 450 476 450 476 450 493.5 c 128,-1,54
 450 511 450 511 450 516 c 0,55,56
 448 583 448 583 415 624 c 128,-1,57
 382 665 382 665 326 668 c 0,58,59
 302 669 302 669 266 669 c 2,0,-1
EndSplineSet
EndChar

StartChar: S
Encoding: 83 83 54
Width: 475
GlyphClass: 2
Flags: W
LayerCount: 2
Fore
SplineSet
61 41 m 1,0,1
 58 55 58 55 58 95 c 128,-1,2
 58 135 58 135 73 180 c 1,3,-1
 82 180 l 1,4,5
 81 169 81 169 81 158 c 0,6,7
 81 97 81 97 118 56.5 c 128,-1,8
 155 16 155 16 216 16 c 0,9,10
 279 16 279 16 319.5 54 c 128,-1,11
 360 92 360 92 360 149.5 c 128,-1,12
 360 207 360 207 321 243 c 2,13,-1
 129 421 l 2,14,15
 75 471 75 471 75 542 c 128,-1,16
 75 613 75 613 122.5 663.5 c 128,-1,17
 170 714 170 714 251 714 c 0,18,19
 289 714 289 714 337 704 c 1,20,-1
 376 704 l 1,21,-1
 376 581 l 1,22,-1
 367 581 l 1,23,24
 367 628 367 628 334.5 656 c 128,-1,25
 302 684 302 684 251 684 c 128,-1,26
 200 684 200 684 165.5 650 c 128,-1,27
 131 616 131 616 131 565 c 128,-1,28
 131 514 131 514 171 477 c 2,29,-1
 368 295 l 2,30,31
 418 249 418 249 418 169 c 128,-1,32
 418 89 418 89 367 37.5 c 128,-1,33
 316 -14 316 -14 231 -14 c 0,34,35
 187 -14 187 -14 137.5 -0.5 c 128,-1,36
 88 13 88 13 61 41 c 1,0,1
EndSplineSet
EndChar

StartChar: T
Encoding: 84 84 55
Width: 618
GlyphClass: 2
Flags: W
LayerCount: 2
Fore
SplineSet
589 611 m 2,0,1
 589 635 589 635 572 652.5 c 128,-1,2
 555 670 555 670 532 671 c 1,3,-1
 342 671 l 1,4,-1
 342 72 l 1,5,6
 343 46 343 46 361.5 28 c 128,-1,7
 380 10 380 10 406 10 c 2,8,-1
 419 10 l 1,9,-1
 419 0 l 1,10,-1
 200 0 l 1,11,-1
 200 10 l 1,12,-1
 213 10 l 2,13,14
 239 10 239 10 257.5 28 c 128,-1,15
 276 46 276 46 277 71 c 1,16,-1
 277 671 l 1,17,-1
 87 671 l 1,18,19
 63 670 63 670 46.5 652.5 c 128,-1,20
 30 635 30 635 30 611 c 2,21,-1
 30 594 l 1,22,-1
 20 593 l 1,23,-1
 20 719 l 1,24,25
 35 713 35 713 72 707 c 128,-1,26
 109 701 109 701 140 701 c 2,27,-1
 478 701 l 2,28,29
 527 701 527 701 559.5 708.5 c 128,-1,30
 592 716 592 716 599 719 c 1,31,-1
 599 593 l 1,32,-1
 589 594 l 1,33,-1
 589 611 l 2,0,1
EndSplineSet
EndChar

StartChar: U
Encoding: 85 85 56
Width: 785
GlyphClass: 2
Flags: W
LayerCount: 2
Fore
SplineSet
735 690 m 1,0,-1
 719 690 l 2,1,2
 698 690 698 690 682.5 676.5 c 128,-1,3
 667 663 667 663 666 643 c 1,4,-1
 666 247 l 2,5,6
 666 130 666 130 592 58 c 128,-1,7
 518 -14 518 -14 395 -14 c 128,-1,8
 272 -14 272 -14 195.5 57.5 c 128,-1,9
 119 129 119 129 119 246 c 2,10,-1
 119 640 l 2,11,12
 119 670 119 670 93 684 c 0,13,14
 81 690 81 690 66 690 c 2,15,-1
 50 690 l 1,16,-1
 50 700 l 1,17,-1
 253 700 l 1,18,-1
 253 690 l 1,19,-1
 237 690 l 2,20,21
 215 690 215 690 200 676.5 c 128,-1,22
 185 663 185 663 184 642 c 1,23,-1
 184 260 l 2,24,25
 184 151 184 151 242.5 84 c 128,-1,26
 301 17 301 17 399 17 c 128,-1,27
 497 17 497 17 558 80.5 c 128,-1,28
 619 144 619 144 619 247 c 2,29,-1
 619 642 l 1,30,31
 618 663 618 663 603 676.5 c 128,-1,32
 588 690 588 690 566 690 c 2,33,-1
 550 690 l 1,34,-1
 550 700 l 1,35,-1
 735 700 l 1,36,-1
 735 690 l 1,0,-1
EndSplineSet
EndChar

StartChar: V
Encoding: 86 86 57
Width: 740
GlyphClass: 2
Flags: W
LayerCount: 2
Fore
SplineSet
750 690 m 1,0,-1
 741 690 l 2,1,2
 707 690 707 690 679 663 c 1,3,4
 663 649 663 649 654 628 c 2,5,-1
 413 89 l 2,6,7
 376 8 376 8 376 -14 c 1,8,-1
 367 -14 l 1,9,-1
 86 627 l 2,10,11
 72 659 72 659 47.5 674.5 c 128,-1,12
 23 690 23 690 -2 690 c 2,13,-1
 -10 690 l 1,14,-1
 -10 700 l 1,15,-1
 215 700 l 1,16,-1
 215 690 l 1,17,-1
 206 690 l 2,18,19
 176 690 176 690 166 662 c 0,20,21
 164 656 164 656 164 648 c 128,-1,22
 164 640 164 640 169 628 c 2,23,-1
 378 104 l 1,24,-1
 596 628 l 2,25,26
 600 640 600 640 600 651.5 c 128,-1,27
 600 663 600 663 589.5 676.5 c 128,-1,28
 579 690 579 690 558 690 c 2,29,-1
 549 690 l 1,30,-1
 549 700 l 1,31,-1
 750 700 l 1,32,-1
 750 690 l 1,0,-1
EndSplineSet
EndChar

StartChar: W
Encoding: 87 87 58
Width: 982
GlyphClass: 2
Flags: W
LayerCount: 2
Fore
SplineSet
992 690 m 1,0,-1
 984 690 l 2,1,2
 947 690 947 690 919 663 c 1,3,4
 903 649 903 649 896 628 c 2,5,-1
 730 99 l 2,6,7
 710 36 710 36 708 -12 c 1,8,-1
 699 -12 l 1,9,-1
 495 560 l 1,10,-1
 343 99 l 1,11,12
 324 37 324 37 322 -12 c 1,13,-1
 313 -12 l 1,14,-1
 86 629 l 1,15,16
 74 659 74 659 49 674.5 c 128,-1,17
 24 690 24 690 -2 690 c 2,18,-1
 -10 690 l 1,19,-1
 -10 700 l 1,20,-1
 212 700 l 1,21,-1
 212 690 l 1,22,-1
 203 690 l 2,23,24
 182 690 182 690 171.5 676.5 c 128,-1,25
 161 663 161 663 161 651 c 128,-1,26
 161 639 161 639 164 629 c 2,27,-1
 316 142 l 1,28,-1
 502 716 l 1,29,-1
 511 715 l 1,30,-1
 708 162 l 1,31,-1
 842 630 l 2,32,33
 845 641 845 641 845 652.5 c 128,-1,34
 845 664 845 664 835 677 c 128,-1,35
 825 690 825 690 804 690 c 2,36,-1
 795 690 l 1,37,-1
 795 700 l 1,38,-1
 992 700 l 1,39,-1
 992 690 l 1,0,-1
EndSplineSet
EndChar

StartChar: X
Encoding: 88 88 59
Width: 662
GlyphClass: 2
Flags: W
LayerCount: 2
Fore
SplineSet
659 10 m 2,0,-1
 673 10 l 1,1,-1
 673 0 l 1,2,-1
 429 0 l 1,3,-1
 429 10 l 1,4,-1
 441 10 l 2,5,6
 463 10 463 10 475 30 c 0,7,8
 482 41 482 41 482 51 c 128,-1,9
 482 61 482 61 477 71 c 1,10,-1
 323 314 l 1,11,-1
 169 72 l 2,12,13
 163 62 163 62 163 51.5 c 128,-1,14
 163 41 163 41 170 31 c 0,15,16
 183 10 183 10 204 10 c 2,17,-1
 217 10 l 1,18,-1
 217 0 l 1,19,-1
 -10 0 l 1,20,-1
 -10 10 l 1,21,-1
 4 10 l 2,22,23
 34 10 34 10 61 27 c 128,-1,24
 88 44 88 44 106 69 c 1,25,-1
 297 354 l 1,26,-1
 122 631 l 1,27,28
 98 666 98 666 61 682 c 0,29,30
 41 690 41 690 21 690 c 2,31,-1
 7 690 l 1,32,-1
 7 700 l 1,33,-1
 249 700 l 1,34,-1
 249 690 l 1,35,-1
 237 690 l 2,36,37
 216 690 216 690 203 670 c 0,38,39
 196 659 196 659 196 649 c 128,-1,40
 196 639 196 639 201 629 c 1,41,-1
 339 413 l 1,42,-1
 475 628 l 2,43,44
 481 638 481 638 481 648.5 c 128,-1,45
 481 659 481 659 475 669 c 0,46,47
 463 690 463 690 441 690 c 2,48,-1
 429 690 l 1,49,-1
 429 700 l 1,50,-1
 654 700 l 1,51,-1
 654 690 l 1,52,-1
 640 690 l 2,53,54
 610 690 610 690 583.5 673 c 128,-1,55
 557 656 557 656 539 631 c 2,56,-1
 364 373 l 1,57,-1
 558 68 l 1,58,59
 582 34 582 34 619 18 c 0,60,61
 639 10 639 10 659 10 c 2,0,-1
EndSplineSet
EndChar

StartChar: Y
Encoding: 89 89 60
Width: 661
GlyphClass: 2
Flags: W
LayerCount: 2
Fore
SplineSet
672 690 m 1,0,-1
 658 690 l 2,1,2
 628 690 628 690 601.5 673.5 c 128,-1,3
 575 657 575 657 557 632 c 1,4,-1
 360 312 l 1,5,-1
 360 73 l 2,6,7
 360 47 360 47 378.5 28.5 c 128,-1,8
 397 10 397 10 424 10 c 2,9,-1
 436 10 l 1,10,-1
 436 0 l 1,11,-1
 218 0 l 1,12,-1
 218 10 l 1,13,-1
 231 10 l 2,14,15
 257 10 257 10 275.5 28 c 128,-1,16
 294 46 294 46 295 72 c 1,17,-1
 295 313 l 1,18,-1
 104 632 l 2,19,20
 89 656 89 656 61.5 673 c 128,-1,21
 34 690 34 690 4 690 c 2,22,-1
 -10 690 l 1,23,-1
 -10 700 l 1,24,-1
 236 700 l 1,25,-1
 236 690 l 1,26,-1
 223 690 l 2,27,28
 201 690 201 690 189 670 c 0,29,30
 183 659 183 659 183 648.5 c 128,-1,31
 183 638 183 638 188 628 c 2,32,-1
 338 348 l 1,33,-1
 498 629 l 2,34,35
 503 639 503 639 503 649 c 128,-1,36
 503 659 503 659 496 670 c 0,37,38
 484 690 484 690 462 690 c 2,39,-1
 450 690 l 1,40,-1
 450 700 l 1,41,-1
 672 700 l 1,42,-1
 672 690 l 1,0,-1
EndSplineSet
EndChar

StartChar: Z
Encoding: 90 90 61
Width: 651
GlyphClass: 2
Flags: W
LayerCount: 2
Fore
SplineSet
584 0 m 1,0,-1
 60 0 l 1,1,-1
 60 9 l 1,2,-1
 480 671 l 1,3,-1
 143 671 l 1,4,5
 118 670 118 670 101 653 c 128,-1,6
 84 636 84 636 84 611 c 2,7,-1
 84 593 l 1,8,-1
 74 593 l 1,9,-1
 74 719 l 1,10,11
 89 713 89 713 127 707 c 128,-1,12
 165 701 165 701 180.5 701 c 128,-1,13
 196 701 196 701 196 701 c 1,14,-1
 474 701 l 2,15,16
 523 701 523 701 549 706.5 c 128,-1,17
 575 712 575 712 580 714 c 1,18,-1
 580 705 l 1,19,-1
 152 30 l 1,20,-1
 470 30 l 2,21,22
 523 30 523 30 557 64 c 128,-1,23
 591 98 591 98 607 154 c 1,24,-1
 617 154 l 1,25,-1
 584 0 l 1,0,-1
EndSplineSet
EndChar

StartChar: bracketleft
Encoding: 91 91 62
Width: 332
GlyphClass: 2
Flags: W
LayerCount: 2
Fore
SplineSet
120 -90 m 1,0,-1
 120 722 l 1,1,-1
 289 722 l 1,2,-1
 289 712 l 1,3,-1
 185 692 l 1,4,-1
 185 -60 l 1,5,-1
 292 -80 l 1,6,-1
 292 -90 l 1,7,-1
 120 -90 l 1,0,-1
EndSplineSet
EndChar

StartChar: backslash
Encoding: 92 92 63
Width: 406
GlyphClass: 2
Flags: W
LayerCount: 2
Fore
SplineSet
7 696 m 1,0,-1
 38 714 l 1,1,-1
 399 5 l 1,2,-1
 368 -14 l 1,3,-1
 7 696 l 1,0,-1
EndSplineSet
EndChar

StartChar: bracketright
Encoding: 93 93 64
Width: 332
GlyphClass: 2
Flags: W
LayerCount: 2
Fore
SplineSet
43 722 m 1,0,-1
 212 722 l 1,1,-1
 212 -90 l 1,2,-1
 40 -90 l 1,3,-1
 40 -80 l 1,4,-1
 147 -60 l 1,5,-1
 147 692 l 1,6,-1
 43 712 l 1,7,-1
 43 722 l 1,0,-1
EndSplineSet
EndChar

StartChar: asciicircum
Encoding: 94 94 65
Width: 523
GlyphClass: 2
Flags: W
LayerCount: 2
Fore
SplineSet
232 371 m 1,0,-1
 292 371 l 1,1,-1
 488 182 l 1,2,-1
 425 182 l 1,3,-1
 262 336 l 1,4,-1
 98 182 l 1,5,-1
 35 182 l 1,6,-1
 232 371 l 1,0,-1
EndSplineSet
EndChar

StartChar: underscore
Encoding: 95 95 66
Width: 500
GlyphClass: 2
Flags: W
LayerCount: 2
Fore
SplineSet
0 -90 m 1,0,-1
 0 -60 l 1,1,-1
 500 -60 l 1,2,-1
 500 -90 l 1,3,-1
 0 -90 l 1,0,-1
EndSplineSet
EndChar

StartChar: grave
Encoding: 96 96 67
Width: 439
GlyphClass: 2
Flags: W
LayerCount: 2
Fore
SplineSet
240 753 m 1,0,-1
 233 746 l 1,1,2
 152 784 152 784 72 831 c 1,3,4
 86 859 86 859 113 884 c 1,5,6
 176 823 176 823 240 753 c 1,0,-1
EndSplineSet
EndChar

StartChar: a
Encoding: 97 97 68
Width: 663
GlyphClass: 2
Flags: W
LayerCount: 2
Fore
SplineSet
660 10 m 2,0,-1
 668 10 l 1,1,-1
 668 0 l 1,2,-1
 463 0 l 1,3,-1
 463 10 l 1,4,-1
 471 10 l 2,5,6
 490 10 490 10 500 23 c 128,-1,7
 510 36 510 36 510 47.5 c 128,-1,8
 510 59 510 59 506 70 c 2,9,-1
 451 203 l 1,10,-1
 198 203 l 1,11,-1
 143 73 l 2,12,13
 138 60 138 60 138 48.5 c 128,-1,14
 138 37 138 37 148 23.5 c 128,-1,15
 158 10 158 10 178 10 c 2,16,-1
 186 10 l 1,17,-1
 186 0 l 1,18,-1
 -5 0 l 1,19,-1
 -5 10 l 1,20,-1
 3 10 l 2,21,22
 24 10 24 10 45.5 24.5 c 128,-1,23
 67 39 67 39 81 68 c 0,24,25
 300 536 300 536 309 558 c 0,26,27
 326 600 326 600 327 614 c 1,28,-1
 336 614 l 1,29,-1
 583 68 l 1,30,31
 612 10 612 10 660 10 c 2,0,-1
211 233 m 1,32,-1
 439 233 l 1,33,-1
 327 507 l 1,34,-1
 211 233 l 1,32,-1
EndSplineSet
EndChar

StartChar: b
Encoding: 98 98 69
Width: 570
GlyphClass: 2
Flags: W
LayerCount: 2
Fore
SplineSet
452 517 m 0,0,1
 467 488 467 488 467 447 c 128,-1,2
 467 406 467 406 434 371.5 c 128,-1,3
 401 337 401 337 357 326 c 1,4,5
 430 318 430 318 477.5 273 c 128,-1,6
 525 228 525 228 525 174.5 c 128,-1,7
 525 121 525 121 504.5 87 c 128,-1,8
 484 53 484 53 450 35 c 0,9,10
 385 0 385 0 303 0 c 2,11,-1
 55 0 l 1,12,-1
 55 10 l 1,13,-1
 67 10 l 2,14,15
 92 10 92 10 109 25.5 c 128,-1,16
 126 41 126 41 127 64 c 1,17,-1
 127 536 l 1,18,19
 126 569 126 569 97 583 c 0,20,21
 84 590 84 590 67 590 c 2,22,-1
 55 590 l 1,23,-1
 55 600 l 1,24,-1
 259 600 l 2,25,26
 408 600 408 600 452 517 c 0,0,1
454 168 m 0,27,28
 454 317 454 317 221 317 c 1,29,-1
 221 327 l 1,30,31
 397 327 397 327 397 450 c 0,32,33
 397 570 397 570 258 570 c 2,34,-1
 190 570 l 1,35,-1
 190 30 l 1,36,-1
 302 30 l 2,37,38
 370 30 370 30 412 64.5 c 128,-1,39
 454 99 454 99 454 168 c 0,27,28
EndSplineSet
EndChar

StartChar: c
Encoding: 99 99 70
Width: 705
GlyphClass: 2
Flags: W
LayerCount: 2
Fore
SplineSet
138.5 71 m 128,-1,1
 50 155 50 155 50 300.5 c 128,-1,2
 50 446 50 446 138.5 530 c 128,-1,3
 227 614 227 614 380 614 c 0,4,5
 442 614 442 614 505 598 c 128,-1,6
 568 582 568 582 614 554 c 1,7,-1
 636 412 l 1,8,-1
 627 412 l 1,9,10
 584 584 584 584 379 584 c 0,11,12
 260 584 260 584 191 508 c 128,-1,13
 122 432 122 432 122 300 c 0,14,15
 122 214 122 214 153 150.5 c 128,-1,16
 184 87 184 87 243 52 c 256,17,18
 302 17 302 17 380 17 c 128,-1,19
 458 17 458 17 516.5 40.5 c 128,-1,20
 575 64 575 64 613.5 118 c 128,-1,21
 652 172 652 172 657 252 c 1,22,-1
 666 252 l 1,23,-1
 655 115 l 1,24,25
 616 55 616 55 542 20.5 c 128,-1,26
 468 -14 468 -14 380 -14 c 0,27,0
 227 -13 227 -13 138.5 71 c 128,-1,1
EndSplineSet
EndChar

StartChar: d
Encoding: 100 100 71
Width: 760
GlyphClass: 2
Flags: W
LayerCount: 2
Fore
SplineSet
710 300 m 0,0,1
 710 161 710 161 623.5 80.5 c 128,-1,2
 537 0 537 0 389 0 c 2,3,-1
 55 0 l 1,4,-1
 55 10 l 1,5,-1
 68 10 l 2,6,7
 92 10 92 10 108 26 c 128,-1,8
 124 42 124 42 125 64 c 1,9,-1
 125 536 l 1,10,11
 124 560 124 560 107.5 575 c 128,-1,12
 91 590 91 590 67 590 c 2,13,-1
 55 590 l 1,14,-1
 55 600 l 1,15,-1
 389 600 l 2,16,17
 487 600 487 600 559.5 564 c 128,-1,18
 632 528 632 528 671 460 c 128,-1,19
 710 392 710 392 710 300 c 0,0,1
190 570 m 1,20,-1
 190 30 l 1,21,-1
 389 30 l 2,22,23
 504 30 504 30 571 102.5 c 128,-1,24
 638 175 638 175 638 300 c 256,25,26
 638 425 638 425 571 497.5 c 128,-1,27
 504 570 504 570 389 570 c 2,28,-1
 190 570 l 1,20,-1
EndSplineSet
EndChar

StartChar: e
Encoding: 101 101 72
Width: 546
GlyphClass: 2
Flags: W
LayerCount: 2
Fore
SplineSet
69 10 m 2,0,1
 93 10 93 10 109.5 25.5 c 128,-1,2
 126 41 126 41 127 63 c 1,3,-1
 127 538 l 2,4,5
 127 560 127 560 110 575 c 128,-1,6
 93 590 93 590 69 590 c 2,7,-1
 55 590 l 1,8,-1
 55 600 l 1,9,-1
 347 600 l 2,10,11
 388 600 388 600 419 606 c 128,-1,12
 450 612 450 612 459 616 c 1,13,-1
 459 502 l 1,14,-1
 448 503 l 1,15,-1
 448 518 l 2,16,17
 448 539 448 539 434 554 c 128,-1,18
 420 569 420 569 398 569 c 2,19,-1
 190 569 l 1,20,-1
 190 315 l 1,21,-1
 361 315 l 2,22,23
 381 315 381 315 391.5 327 c 128,-1,24
 402 339 402 339 402 357 c 2,25,-1
 402 370 l 1,26,-1
 413 370 l 1,27,-1
 413 230 l 1,28,-1
 402 230 l 1,29,-1
 402 243 l 2,30,31
 402 271 402 271 381 281 c 0,32,33
 373 284 373 284 364 285 c 1,34,-1
 190 285 l 1,35,-1
 190 31 l 1,36,-1
 347 31 l 2,37,38
 393 31 393 31 424.5 47 c 128,-1,39
 456 63 456 63 472.5 85 c 128,-1,40
 489 107 489 107 506 143 c 1,41,-1
 516 143 l 1,42,-1
 461 0 l 1,43,-1
 55 0 l 1,44,-1
 55 10 l 1,45,-1
 69 10 l 2,0,1
EndSplineSet
EndChar

StartChar: f
Encoding: 102 102 73
Width: 523
GlyphClass: 2
Flags: W
LayerCount: 2
Fore
SplineSet
452 518 m 2,0,1
 452 552 452 552 423 565 c 0,2,3
 413 569 413 569 402 569 c 2,4,-1
 191 569 l 1,5,-1
 191 315 l 1,6,-1
 365 315 l 2,7,8
 385 315 385 315 395 327 c 128,-1,9
 405 339 405 339 405 357 c 2,10,-1
 405 370 l 1,11,-1
 417 370 l 1,12,-1
 417 230 l 1,13,-1
 405 230 l 1,14,-1
 405 243 l 2,15,16
 405 267 405 267 389 278 c 0,17,18
 380 284 380 284 367 285 c 1,19,-1
 191 285 l 1,20,-1
 191 64 l 1,21,22
 192 37 192 37 215 20 c 0,23,24
 230 10 230 10 250 10 c 2,25,-1
 264 10 l 1,26,-1
 264 0 l 1,27,-1
 55 0 l 1,28,-1
 55 10 l 1,29,-1
 69 10 l 2,30,31
 93 10 93 10 110 25.5 c 128,-1,32
 127 41 127 41 128 63 c 1,33,-1
 128 538 l 1,34,35
 127 569 127 569 99 583 c 0,36,37
 85 590 85 590 69 590 c 2,38,-1
 55 590 l 1,39,-1
 55 600 l 1,40,-1
 191 600 l 1,41,-1
 350 600 l 2,42,43
 379 600 379 600 414 605 c 128,-1,44
 449 610 449 610 463 616 c 1,45,-1
 463 502 l 1,46,-1
 452 503 l 1,47,-1
 452 518 l 2,0,1
EndSplineSet
EndChar

StartChar: g
Encoding: 103 103 74
Width: 742
GlyphClass: 2
Flags: W
LayerCount: 2
Fore
SplineSet
139.5 71.5 m 128,-1,1
 50 156 50 156 50 300.5 c 128,-1,2
 50 445 50 445 139.5 529.5 c 128,-1,3
 229 614 229 614 370.5 614 c 128,-1,4
 512 614 512 614 611 554 c 1,5,-1
 633 412 l 1,6,-1
 624 412 l 1,7,8
 603 500 603 500 542.5 542 c 128,-1,9
 482 584 482 584 371.5 584 c 128,-1,10
 261 584 261 584 191.5 507.5 c 128,-1,11
 122 431 122 431 122 300 c 128,-1,12
 122 169 122 169 192 92.5 c 128,-1,13
 262 16 262 16 385.5 16 c 128,-1,14
 509 16 509 16 598 103 c 1,15,-1
 599 236 l 2,16,17
 600 254 600 254 587.5 264.5 c 128,-1,18
 575 275 575 275 553 275 c 2,19,-1
 539 275 l 1,20,-1
 539 285 l 1,21,-1
 722 285 l 1,22,-1
 722 275 l 1,23,-1
 708 275 l 2,24,25
 663 275 663 275 663 235 c 2,26,-1
 663 115 l 1,27,28
 621 63 621 63 547.5 24.5 c 128,-1,29
 474 -14 474 -14 378 -14 c 0,30,0
 229 -13 229 -13 139.5 71.5 c 128,-1,1
EndSplineSet
EndChar

StartChar: h
Encoding: 104 104 75
Width: 746
GlyphClass: 2
Flags: W
LayerCount: 2
Fore
SplineSet
500 10 m 2,0,1
 523 10 523 10 540 25.5 c 128,-1,2
 557 41 557 41 558 63 c 1,3,-1
 558 281 l 1,4,-1
 189 281 l 1,5,-1
 189 63 l 1,6,7
 190 41 190 41 207 25.5 c 128,-1,8
 224 10 224 10 247 10 c 2,9,-1
 259 10 l 1,10,-1
 259 0 l 1,11,-1
 55 0 l 1,12,-1
 55 10 l 1,13,-1
 67 10 l 2,14,15
 91 10 91 10 107.5 26 c 128,-1,16
 124 42 124 42 125 64 c 1,17,-1
 125 536 l 1,18,19
 124 558 124 558 107 574 c 128,-1,20
 90 590 90 590 67 590 c 2,21,-1
 55 590 l 1,22,-1
 55 600 l 1,23,-1
 259 600 l 1,24,-1
 259 590 l 1,25,-1
 247 590 l 2,26,27
 224 590 224 590 207 574.5 c 128,-1,28
 190 559 190 559 189 537 c 1,29,-1
 189 311 l 1,30,-1
 558 311 l 1,31,-1
 558 536 l 2,32,33
 558 558 558 558 545 570 c 0,34,35
 524 590 524 590 500 590 c 2,36,-1
 488 590 l 1,37,-1
 488 600 l 1,38,-1
 692 600 l 1,39,-1
 692 590 l 1,40,-1
 680 590 l 2,41,42
 657 590 657 590 640 575 c 128,-1,43
 623 560 623 560 622 538 c 1,44,-1
 622 63 l 1,45,46
 623 41 623 41 635 30 c 0,47,48
 657 10 657 10 680 10 c 2,49,-1
 692 10 l 1,50,-1
 692 0 l 1,51,-1
 488 0 l 1,52,-1
 488 10 l 1,53,-1
 500 10 l 2,0,1
EndSplineSet
EndChar

StartChar: i
Encoding: 105 105 76
Width: 336
GlyphClass: 2
Flags: W
LayerCount: 2
Fore
SplineSet
69 10 m 2,0,1
 96 10 96 10 116 26 c 128,-1,2
 136 42 136 42 136 64 c 2,3,-1
 136 536 l 2,4,5
 136 558 136 558 116 574 c 128,-1,6
 96 590 96 590 68 590 c 2,7,-1
 55 590 l 1,8,-1
 55 600 l 1,9,-1
 281 600 l 1,10,-1
 281 590 l 1,11,-1
 268 590 l 2,12,13
 241 590 241 590 221.5 575 c 128,-1,14
 202 560 202 560 200 538 c 1,15,-1
 200 63 l 1,16,17
 201 41 201 41 221 25.5 c 128,-1,18
 241 10 241 10 268 10 c 2,19,-1
 281 10 l 1,20,-1
 282 0 l 1,21,-1
 55 0 l 1,22,-1
 55 10 l 1,23,-1
 69 10 l 2,0,1
EndSplineSet
EndChar

StartChar: j
Encoding: 106 106 77
Width: 309
GlyphClass: 2
Flags: W
LayerCount: 2
Fore
SplineSet
261 590 m 2,0,1
 224 590 224 590 205 563 c 0,2,3
 197 551 197 551 196 536 c 1,4,-1
 196 0 l 2,5,6
 196 -73 196 -73 141.5 -125.5 c 128,-1,7
 87 -178 87 -178 13 -178 c 1,8,-1
 13 -168 l 1,9,10
 62 -153 62 -153 97 -104 c 128,-1,11
 132 -55 132 -55 132 0 c 2,12,-1
 132 540 l 1,13,14
 130 561 130 561 111.5 575.5 c 128,-1,15
 93 590 93 590 67 590 c 2,16,-1
 55 590 l 1,17,-1
 54 600 l 1,18,-1
 274 600 l 1,19,-1
 274 590 l 1,20,-1
 261 590 l 2,0,1
EndSplineSet
EndChar

StartChar: k
Encoding: 107 107 78
Width: 624
GlyphClass: 2
Flags: W
LayerCount: 2
Fore
SplineSet
629 0 m 1,0,-1
 592 0 l 2,1,2
 494 0 494 0 445 57 c 1,3,-1
 225 298 l 1,4,-1
 440 551 l 2,5,6
 451 565 451 565 443.5 577.5 c 128,-1,7
 436 590 436 590 418 590 c 2,8,-1
 409 590 l 1,9,-1
 409 600 l 1,10,-1
 613 600 l 1,11,-1
 613 590 l 1,12,-1
 609 590 l 2,13,14
 548 590 548 590 512 554 c 1,15,-1
 294 321 l 1,16,-1
 542 51 l 1,17,18
 560 29 560 29 579 20 c 128,-1,19
 598 11 598 11 629 10 c 1,20,-1
 629 0 l 1,0,-1
249 10 m 2,21,-1
 260 10 l 1,22,-1
 260 0 l 1,23,-1
 55 0 l 1,24,-1
 55 10 l 1,25,-1
 67 10 l 2,26,27
 91 10 91 10 108 26 c 128,-1,28
 125 42 125 42 126 64 c 1,29,-1
 126 536 l 1,30,31
 125 558 125 558 108 574 c 128,-1,32
 91 590 91 590 67 590 c 2,33,-1
 55 590 l 1,34,-1
 55 600 l 1,35,-1
 260 600 l 1,36,-1
 260 590 l 1,37,-1
 248 590 l 2,38,39
 216 590 216 590 198 564 c 0,40,41
 190 552 190 552 190 537 c 2,42,-1
 190 63 l 2,43,44
 190 41 190 41 207.5 25.5 c 128,-1,45
 225 10 225 10 249 10 c 2,21,-1
EndSplineSet
EndChar

StartChar: l
Encoding: 108 108 79
Width: 536
GlyphClass: 2
Flags: W
LayerCount: 2
Fore
SplineSet
69 10 m 2,0,1
 93 10 93 10 109.5 25.5 c 128,-1,2
 126 41 126 41 127 63 c 1,3,-1
 127 536 l 1,4,5
 126 558 126 558 108.5 574 c 128,-1,6
 91 590 91 590 67 590 c 2,7,-1
 55 590 l 1,8,-1
 55 600 l 1,9,-1
 262 600 l 1,10,-1
 262 590 l 1,11,-1
 250 590 l 2,12,13
 226 590 226 590 208.5 574 c 128,-1,14
 191 558 191 558 191 536 c 2,15,-1
 191 31 l 1,16,-1
 347 31 l 2,17,18
 393 31 393 31 425 47 c 128,-1,19
 457 63 457 63 473.5 85 c 128,-1,20
 490 107 490 107 506 143 c 1,21,-1
 516 143 l 1,22,-1
 461 0 l 1,23,-1
 55 0 l 1,24,-1
 55 10 l 1,25,-1
 69 10 l 2,0,1
EndSplineSet
EndChar

StartChar: m
Encoding: 109 109 80
Width: 878
GlyphClass: 2
Flags: W
LayerCount: 2
Fore
SplineSet
856 10 m 2,0,-1
 871 10 l 1,1,-1
 871 0 l 1,2,-1
 663 0 l 1,3,-1
 663 9 l 1,4,-1
 678 9 l 2,5,6
 693 9 693 9 704.5 20.5 c 128,-1,7
 716 32 716 32 714 48 c 2,8,-1
 662 460 l 1,9,-1
 473 88 l 1,10,11
 445 27 445 27 438 -14 c 1,12,-1
 428 -14 l 1,13,-1
 187 451 l 1,14,-1
 142 48 l 2,15,16
 140 33 140 33 151.5 21 c 128,-1,17
 163 9 163 9 179 9 c 2,18,-1
 193 9 l 1,19,-1
 193 0 l 1,20,-1
 8 0 l 1,21,-1
 8 10 l 1,22,-1
 23 10 l 2,23,24
 59 10 59 10 79 36 c 0,25,26
 89 49 89 49 91 67 c 2,27,-1
 169 614 l 1,28,-1
 179 614 l 1,29,-1
 443 106 l 1,30,-1
 698 614 l 1,31,-1
 707 614 l 1,32,-1
 788 65 l 2,33,34
 792 40 792 40 811 25 c 128,-1,35
 830 10 830 10 856 10 c 2,0,-1
EndSplineSet
EndChar

StartChar: n
Encoding: 110 110 81
Width: 779
GlyphClass: 2
Flags: W
LayerCount: 2
Fore
SplineSet
727 590 m 2,0,1
 705 590 705 590 689 575.5 c 128,-1,2
 673 561 673 561 672 540 c 1,3,-1
 672 114 l 2,4,5
 672 56 672 56 679 4 c 1,6,-1
 681 -14 l 1,7,-1
 672 -14 l 1,8,-1
 152 479 l 1,9,-1
 152 62 l 2,10,11
 152 40 152 40 168 25 c 128,-1,12
 184 10 184 10 207 10 c 2,13,-1
 224 10 l 1,14,-1
 224 0 l 1,15,-1
 35 0 l 1,16,-1
 35 10 l 1,17,-1
 52 10 l 2,18,19
 75 10 75 10 91 25 c 128,-1,20
 107 40 107 40 107 62 c 2,21,-1
 107 490 l 2,22,23
 107 551 107 551 100 599 c 2,24,-1
 98 615 l 1,25,-1
 109 614 l 1,26,-1
 628 125 l 1,27,-1
 628 540 l 1,28,29
 626 561 626 561 610 575.5 c 128,-1,30
 594 590 594 590 572 590 c 2,31,-1
 555 590 l 1,32,-1
 555 600 l 1,33,-1
 744 600 l 1,34,-1
 744 590 l 1,35,-1
 727 590 l 2,0,1
EndSplineSet
EndChar

StartChar: o
Encoding: 111 111 82
Width: 774
GlyphClass: 2
Flags: W
LayerCount: 2
Fore
SplineSet
387.5 614 m 128,-1,1
 480 614 480 614 557 574.5 c 128,-1,2
 634 535 634 535 679.5 463 c 128,-1,3
 725 391 725 391 725 300 c 128,-1,4
 725 209 725 209 679.5 137 c 128,-1,5
 634 65 634 65 557 25.5 c 128,-1,6
 480 -14 480 -14 399 -14 c 128,-1,7
 318 -14 318 -14 256 9 c 128,-1,8
 194 32 194 32 148.5 73 c 128,-1,9
 103 114 103 114 76.5 173 c 128,-1,10
 50 232 50 232 50 311.5 c 128,-1,11
 50 391 50 391 95.5 463 c 128,-1,12
 141 535 141 535 218 574.5 c 128,-1,0
 295 614 295 614 387.5 614 c 128,-1,1
387 16 m 128,-1,14
 499 16 499 16 575 95.5 c 128,-1,15
 651 175 651 175 651 300 c 128,-1,16
 651 425 651 425 575 504.5 c 128,-1,17
 499 584 499 584 387 584 c 128,-1,18
 275 584 275 584 199.5 504.5 c 128,-1,19
 124 425 124 425 124 300 c 128,-1,20
 124 175 124 175 199.5 95.5 c 128,-1,13
 275 16 275 16 387 16 c 128,-1,14
EndSplineSet
EndChar

StartChar: p
Encoding: 112 112 83
Width: 553
GlyphClass: 2
Flags: W
LayerCount: 2
Fore
SplineSet
229 284 m 1,0,1
 252 278 252 278 271 278 c 128,-1,2
 290 278 290 278 302 279 c 128,-1,3
 314 280 314 280 336 285.5 c 128,-1,4
 358 291 358 291 376 303 c 0,5,6
 418 329 418 329 438 385 c 0,7,8
 445 405 445 405 445 439 c 0,9,10
 445 500 445 500 403 535 c 128,-1,11
 361 570 361 570 287 570 c 2,12,-1
 190 570 l 1,13,-1
 190 64 l 1,14,15
 191 32 191 32 219 17 c 0,16,17
 232 10 232 10 248 10 c 2,18,-1
 262 10 l 1,19,-1
 262 0 l 1,20,-1
 55 0 l 1,21,-1
 55 10 l 1,22,-1
 69 10 l 2,23,24
 93 10 93 10 109.5 25.5 c 128,-1,25
 126 41 126 41 127 63 c 1,26,-1
 127 537 l 1,27,28
 126 560 126 560 109.5 575 c 128,-1,29
 93 590 93 590 69 590 c 2,30,-1
 55 590 l 1,31,-1
 55 600 l 1,32,-1
 289 600 l 2,33,34
 394 600 394 600 455.5 554 c 128,-1,35
 517 508 517 508 517 430 c 0,36,37
 517 374 517 374 491 332 c 0,38,39
 440 250 440 250 333 250 c 0,40,41
 280 250 280 250 229 274 c 1,42,-1
 229 284 l 1,0,1
EndSplineSet
EndChar

StartChar: q
Encoding: 113 113 84
Width: 777
GlyphClass: 2
Flags: W
LayerCount: 2
Fore
SplineSet
953 -153 m 0,0,1
 1105 -153 1105 -153 1191 -74 c 1,2,-1
 1194 -78 l 1,3,4
 1187 -96 1187 -96 1164.5 -119 c 128,-1,5
 1142 -142 1142 -142 1102 -166 c 1,6,7
 1021 -212 1021 -212 932 -212 c 0,8,9
 841 -212 841 -212 752 -174 c 0,10,11
 715 -159 715 -159 642 -121 c 0,12,13
 468 -30 468 -30 385 -14 c 1,14,15
 242 -14 242 -14 146 74 c 128,-1,16
 50 162 50 162 50 300 c 0,17,18
 50 368 50 368 76 427 c 128,-1,19
 102 486 102 486 146.5 527 c 128,-1,20
 191 568 191 568 252 591 c 128,-1,21
 313 614 313 614 392.5 614 c 128,-1,22
 472 614 472 614 547.5 574.5 c 128,-1,23
 623 535 623 535 667 463 c 128,-1,24
 711 391 711 391 711 300 c 0,25,26
 711 184 711 184 641.5 101.5 c 128,-1,27
 572 19 572 19 461 -5 c 1,28,29
 547 -30 547 -30 758 -114 c 0,30,31
 855 -153 855 -153 953 -153 c 0,0,1
124 300 m 128,-1,33
 124 175 124 175 197.5 95.5 c 128,-1,34
 271 16 271 16 380.5 16 c 128,-1,35
 490 16 490 16 564 95.5 c 128,-1,36
 638 175 638 175 638 300 c 128,-1,37
 638 425 638 425 564 504.5 c 128,-1,38
 490 584 490 584 380.5 584 c 128,-1,39
 271 584 271 584 197.5 504.5 c 128,-1,32
 124 425 124 425 124 300 c 128,-1,33
EndSplineSet
EndChar

StartChar: r
Encoding: 114 114 85
Width: 627
GlyphClass: 2
Flags: W
LayerCount: 2
Fore
SplineSet
242 569 m 2,0,-1
 189 569 l 1,1,-1
 189 64 l 1,2,3
 190 33 190 33 217 17 c 0,4,5
 230 10 230 10 246 10 c 2,6,-1
 259 10 l 1,7,-1
 260 0 l 1,8,-1
 55 0 l 1,9,-1
 55 10 l 1,10,-1
 69 10 l 2,11,12
 92 10 92 10 108.5 25.5 c 128,-1,13
 125 41 125 41 125 63 c 2,14,-1
 125 538 l 2,15,16
 125 560 125 560 108.5 575 c 128,-1,17
 92 590 92 590 69 590 c 2,18,-1
 55 590 l 1,19,-1
 55 600 l 1,20,-1
 306 600 l 2,21,22
 400 600 400 600 454.5 557 c 128,-1,23
 509 514 509 514 509 444 c 128,-1,24
 509 374 509 374 465 327 c 128,-1,25
 421 280 421 280 353 273 c 1,26,27
 385 259 385 259 430 195 c 1,28,29
 429 195 429 195 464.5 151 c 128,-1,30
 500 107 500 107 521.5 82.5 c 128,-1,31
 543 58 543 58 557 45 c 0,32,33
 594 10 594 10 642 10 c 1,34,-1
 642 0 l 1,35,-1
 611 0 l 2,36,37
 532 0 532 0 487 31 c 0,38,39
 453 54 453 54 425 88 c 0,40,41
 419 96 419 96 374.5 158.5 c 128,-1,42
 330 221 330 221 327 225 c 0,43,44
 273 292 273 292 226 292 c 1,45,-1
 226 302 l 1,46,47
 343 302 343 302 367 314 c 0,48,49
 400 331 400 331 412 350 c 0,50,51
 437 390 437 390 437 438 c 0,52,53
 437 499 437 499 401 532 c 128,-1,54
 365 565 365 565 304 568 c 0,55,56
 277 569 277 569 242 569 c 2,0,-1
EndSplineSet
EndChar

StartChar: s
Encoding: 115 115 86
Width: 462
GlyphClass: 2
Flags: W
LayerCount: 2
Fore
SplineSet
58 33 m 1,0,1
 55 45 55 45 55 82 c 128,-1,2
 55 119 55 119 68 157 c 1,3,-1
 80 157 l 1,4,5
 79 148 79 148 79 139 c 0,6,7
 79 85 79 85 114.5 50.5 c 128,-1,8
 150 16 150 16 213 16 c 0,9,10
 279 16 279 16 316 46.5 c 128,-1,11
 353 77 353 77 353 125.5 c 128,-1,12
 353 174 353 174 317 206 c 1,13,-1
 117 360 l 1,14,15
 69 401 69 401 69 470 c 0,16,17
 69 509 69 509 90.5 542 c 128,-1,18
 112 575 112 575 150.5 594.5 c 128,-1,19
 189 614 189 614 241 614 c 128,-1,20
 293 614 293 614 333 605 c 1,21,-1
 366 605 l 1,22,-1
 368 496 l 1,23,-1
 357 496 l 1,24,25
 357 538 357 538 328 561 c 128,-1,26
 299 584 299 584 245 584 c 128,-1,27
 191 584 191 584 156 556.5 c 128,-1,28
 121 529 121 529 121 485.5 c 128,-1,29
 121 442 121 442 160 410 c 1,30,-1
 362 254 l 1,31,32
 408 216 408 216 408 148 c 128,-1,33
 408 80 408 80 356.5 33 c 128,-1,34
 305 -14 305 -14 231 -14 c 0,35,36
 182 -14 182 -14 133 -2 c 128,-1,37
 84 10 84 10 58 33 c 1,0,1
EndSplineSet
EndChar

StartChar: t
Encoding: 116 116 87
Width: 578
GlyphClass: 2
Flags: W
LayerCount: 2
Fore
SplineSet
322 571 m 1,0,-1
 322 63 l 1,1,2
 323 32 323 32 352 17 c 0,3,4
 365 10 365 10 381 10 c 2,5,-1
 392 10 l 1,6,-1
 392 0 l 1,7,-1
 186 0 l 1,8,-1
 186 10 l 1,9,-1
 198 10 l 2,10,11
 222 10 222 10 239 26 c 128,-1,12
 256 42 256 42 257 64 c 1,13,-1
 257 571 l 1,14,-1
 76 571 l 2,15,16
 53 571 53 571 39.5 556 c 128,-1,17
 26 541 26 541 26 520 c 2,18,-1
 26 504 l 1,19,-1
 15 504 l 1,20,-1
 15 617 l 1,21,22
 35 609 35 609 71.5 605 c 128,-1,23
 108 601 108 601 126 601 c 2,24,-1
 452 601 l 2,25,26
 524 601 524 601 564 617 c 1,27,-1
 564 504 l 1,28,-1
 553 504 l 1,29,-1
 553 520 l 2,30,31
 553 541 553 541 539 556 c 128,-1,32
 525 571 525 571 503 571 c 2,33,-1
 322 571 l 1,0,-1
EndSplineSet
EndChar

StartChar: u
Encoding: 117 117 88
Width: 700
GlyphClass: 2
Flags: W
LayerCount: 2
Fore
SplineSet
665 590 m 1,0,-1
 650 590 l 2,1,2
 623 590 623 590 609 569 c 0,3,4
 603 560 603 560 602 548 c 1,5,-1
 602 211 l 2,6,7
 602 107 602 107 535.5 46.5 c 128,-1,8
 469 -14 469 -14 353 -14 c 128,-1,9
 237 -14 237 -14 170 46 c 128,-1,10
 103 106 103 106 103 210 c 2,11,-1
 103 547 l 2,12,13
 103 565 103 565 89 577.5 c 128,-1,14
 75 590 75 590 55 590 c 2,15,-1
 40 590 l 1,16,-1
 40 600 l 1,17,-1
 230 600 l 1,18,-1
 230 590 l 1,19,-1
 215 590 l 2,20,21
 195 590 195 590 181 577.5 c 128,-1,22
 167 565 167 565 167 547 c 2,23,-1
 167 222 l 2,24,25
 167 125 167 125 216.5 69 c 128,-1,26
 266 13 266 13 356.5 13 c 128,-1,27
 447 13 447 13 501.5 66 c 128,-1,28
 556 119 556 119 556 211 c 2,29,-1
 556 547 l 1,30,31
 555 566 555 566 541.5 578 c 128,-1,32
 528 590 528 590 508 590 c 2,33,-1
 493 590 l 1,34,-1
 493 600 l 1,35,-1
 665 600 l 1,36,-1
 665 590 l 1,0,-1
EndSplineSet
EndChar

StartChar: v
Encoding: 118 118 89
Width: 663
GlyphClass: 2
Flags: W
LayerCount: 2
Fore
SplineSet
668 590 m 1,0,-1
 660 590 l 2,1,2
 638 590 638 590 617 575.5 c 128,-1,3
 596 561 596 561 581 532 c 1,4,5
 363 64 363 64 354 42 c 0,6,7
 337 0 337 0 336 -14 c 1,8,-1
 327 -14 l 1,9,-1
 80 531 l 1,10,11
 51 590 51 590 3 590 c 2,12,-1
 -5 590 l 1,13,-1
 -5 600 l 1,14,-1
 200 600 l 1,15,-1
 200 590 l 1,16,-1
 192 590 l 2,17,18
 173 590 173 590 163.5 576.5 c 128,-1,19
 154 563 154 563 154 552 c 128,-1,20
 154 541 154 541 157 529 c 1,21,-1
 336 93 l 1,22,-1
 520 527 l 2,23,24
 525 540 525 540 525 551.5 c 128,-1,25
 525 563 525 563 515 576.5 c 128,-1,26
 505 590 505 590 485 590 c 2,27,-1
 478 590 l 1,28,-1
 478 600 l 1,29,-1
 668 600 l 1,30,-1
 668 590 l 1,0,-1
EndSplineSet
EndChar

StartChar: w
Encoding: 119 119 90
Width: 899
GlyphClass: 2
Flags: W
LayerCount: 2
Fore
SplineSet
904 590 m 1,0,-1
 897 590 l 2,1,2
 837 590 837 590 815 531 c 1,3,-1
 670 99 l 2,4,5
 648 36 648 36 647 -12 c 1,6,-1
 637 -12 l 1,7,-1
 451 464 l 1,8,-1
 321 99 l 1,9,10
 301 37 301 37 299 -12 c 1,11,-1
 290 -12 l 1,12,-1
 80 535 l 1,13,14
 57 590 57 590 0 590 c 2,15,-1
 -8 590 l 1,16,-1
 -8 600 l 1,17,-1
 198 600 l 1,18,-1
 198 590 l 1,19,-1
 190 590 l 2,20,21
 172 590 172 590 162.5 579 c 128,-1,22
 153 568 153 568 153 557 c 128,-1,23
 153 546 153 546 156 536 c 2,24,-1
 289 129 l 1,25,-1
 458 616 l 1,26,-1
 468 615 l 1,27,-1
 647 159 l 1,28,-1
 759 530 l 2,29,30
 764 544 764 544 764 555 c 128,-1,31
 764 566 764 566 756 578 c 128,-1,32
 748 590 748 590 729 590 c 2,33,-1
 721 590 l 1,34,-1
 721 600 l 1,35,-1
 904 600 l 1,36,-1
 904 590 l 1,0,-1
EndSplineSet
EndChar

StartChar: x
Encoding: 120 120 91
Width: 626
GlyphClass: 2
Flags: W
LayerCount: 2
Fore
SplineSet
637 0 m 1,0,-1
 400 0 l 1,1,-1
 400 10 l 1,2,-1
 412 10 l 2,3,4
 432 10 432 10 441.5 23.5 c 128,-1,5
 451 37 451 37 451 45.5 c 128,-1,6
 451 54 451 54 446 63 c 1,7,-1
 308 261 l 1,8,-1
 162 64 l 2,9,10
 155 55 155 55 155 46 c 128,-1,11
 155 37 155 37 164.5 23.5 c 128,-1,12
 174 10 174 10 195 10 c 2,13,-1
 207 10 l 1,14,-1
 207 0 l 1,15,-1
 -11 0 l 1,16,-1
 -11 10 l 1,17,-1
 2 10 l 2,18,19
 56 10 56 10 97 59 c 1,20,-1
 283 297 l 1,21,-1
 114 540 l 2,22,23
 99 561 99 561 72.5 575.5 c 128,-1,24
 46 590 46 590 18 590 c 2,25,-1
 5 590 l 1,26,-1
 5 600 l 1,27,-1
 240 600 l 1,28,-1
 240 590 l 1,29,-1
 228 590 l 2,30,31
 208 590 208 590 198.5 576.5 c 128,-1,32
 189 563 189 563 189 554.5 c 128,-1,33
 189 546 189 546 195 537 c 2,34,-1
 322 355 l 1,35,-1
 443 537 l 2,36,37
 449 545 449 545 449 554 c 128,-1,38
 449 563 449 563 439.5 576.5 c 128,-1,39
 430 590 430 590 410 590 c 2,40,-1
 398 590 l 1,41,-1
 398 600 l 1,42,-1
 620 600 l 1,43,-1
 620 590 l 1,44,-1
 606 590 l 2,45,46
 578 590 578 590 552.5 575.5 c 128,-1,47
 527 561 527 561 510 539 c 2,48,-1
 349 315 l 1,49,-1
 528 59 l 1,50,51
 550 30 550 30 577.5 20 c 128,-1,52
 605 10 605 10 624 10 c 2,53,-1
 637 10 l 1,54,-1
 637 0 l 1,0,-1
EndSplineSet
EndChar

StartChar: y
Encoding: 121 121 92
Width: 640
GlyphClass: 2
Flags: W
LayerCount: 2
Fore
SplineSet
645 590 m 1,0,-1
 633 590 l 2,1,2
 606 590 606 590 581.5 575.5 c 128,-1,3
 557 561 557 561 541 539 c 1,4,-1
 349 248 l 1,5,-1
 349 64 l 2,6,7
 349 42 349 42 366 26 c 128,-1,8
 383 10 383 10 407 10 c 2,9,-1
 419 10 l 1,10,-1
 419 0 l 1,11,-1
 214 0 l 1,12,-1
 214 10 l 1,13,-1
 226 10 l 2,14,15
 250 10 250 10 267 26 c 128,-1,16
 284 42 284 42 284 64 c 2,17,-1
 284 249 l 1,18,-1
 99 540 l 1,19,20
 65 590 65 590 7 590 c 2,21,-1
 -5 590 l 1,22,-1
 -5 600 l 1,23,-1
 227 600 l 1,24,-1
 227 590 l 1,25,-1
 215 590 l 2,26,27
 196 590 196 590 187.5 578 c 128,-1,28
 179 566 179 566 179 557.5 c 128,-1,29
 179 549 179 549 181 542 c 1,30,-1
 327 283 l 1,31,-1
 482 541 l 1,32,33
 485 549 485 549 485 557.5 c 128,-1,34
 485 566 485 566 476.5 578 c 128,-1,35
 468 590 468 590 448 590 c 2,36,-1
 436 590 l 1,37,-1
 436 600 l 1,38,-1
 645 600 l 1,39,-1
 645 590 l 1,0,-1
EndSplineSet
EndChar

StartChar: z
Encoding: 122 122 93
Width: 608
GlyphClass: 2
Flags: W
LayerCount: 2
Fore
SplineSet
76 520 m 2,0,-1
 76 504 l 1,1,-1
 65 504 l 1,2,-1
 65 617 l 1,3,4
 78 611 78 611 112.5 606.5 c 128,-1,5
 147 602 147 602 177 601 c 1,6,-1
 407 601 l 2,7,8
 438 601 438 601 474 605 c 128,-1,9
 510 609 510 609 520 614 c 1,10,-1
 520 605 l 1,11,-1
 140 30 l 1,12,-1
 414 30 l 1,13,14
 460 31 460 31 492 46.5 c 128,-1,15
 524 62 524 62 540.5 84 c 128,-1,16
 557 106 557 106 573 143 c 1,17,-1
 583 143 l 1,18,-1
 529 0 l 1,19,-1
 50 0 l 1,20,-1
 50 9 l 1,21,-1
 423 571 l 1,22,-1
 125 571 l 1,23,24
 95 570 95 570 82 545 c 0,25,26
 76 533 76 533 76 520 c 2,0,-1
EndSplineSet
EndChar

StartChar: braceleft
Encoding: 123 123 94
Width: 337
GlyphClass: 2
Flags: W
LayerCount: 2
Fore
SplineSet
192 210 m 2,0,-1
 189 121 l 1,1,2
 189 31 189 31 204.5 -8.5 c 128,-1,3
 220 -48 220 -48 242 -65.5 c 128,-1,4
 264 -83 264 -83 298 -92 c 1,5,-1
 296 -100 l 1,6,7
 210 -100 210 -100 167 -40 c 128,-1,8
 124 20 124 20 124 119 c 0,9,10
 124 144 124 144 129 186 c 0,11,12
 138 257 138 257 138 267.5 c 128,-1,13
 138 278 138 278 135 292 c 1,14,15
 127 310 127 310 85 314 c 1,16,-1
 85 324 l 1,17,18
 130 325 130 325 138 340 c 1,19,20
 140 352 140 352 140 362.5 c 128,-1,21
 140 373 140 373 138 389 c 0,22,23
 124 484 124 484 124 514 c 0,24,25
 124 613 124 613 167 673 c 128,-1,26
 210 733 210 733 296 733 c 1,27,-1
 298 725 l 1,28,29
 230 707 230 707 209 652 c 0,30,31
 189 602 189 602 189 511 c 1,32,-1
 191 424 l 1,33,34
 191 379 191 379 185 362 c 0,35,36
 171 325 171 325 141 316 c 1,37,38
 185 306 185 306 190 241 c 0,39,40
 192 224 192 224 192 210 c 2,0,-1
EndSplineSet
EndChar

StartChar: bar
Encoding: 124 124 95
Width: 245
GlyphClass: 2
Flags: W
LayerCount: 2
Fore
SplineSet
100 -180 m 1,0,-1
 100 700 l 1,1,-1
 145 700 l 1,2,-1
 145 -180 l 1,3,-1
 100 -180 l 1,0,-1
EndSplineSet
EndChar

StartChar: braceright
Encoding: 125 125 96
Width: 337
GlyphClass: 2
Flags: W
LayerCount: 2
Fore
SplineSet
146 424 m 2,0,-1
 148 511 l 1,1,2
 148 602 148 602 133 641.5 c 128,-1,3
 118 681 118 681 96 698.5 c 128,-1,4
 74 716 74 716 40 725 c 1,5,-1
 42 733 l 1,6,7
 100 733 100 733 139 703 c 0,8,9
 213 648 213 648 213 514 c 0,10,11
 213 476 213 476 206 434 c 0,12,13
 192 352 192 352 200 340 c 1,14,15
 207 325 207 325 253 324 c 1,16,-1
 253 314 l 1,17,18
 210 310 210 310 202 292 c 1,19,20
 200 278 200 278 200 267.5 c 128,-1,21
 200 257 200 257 206.5 200.5 c 128,-1,22
 213 144 213 144 213 119 c 0,23,24
 213 20 213 20 170.5 -40 c 128,-1,25
 128 -100 128 -100 42 -100 c 1,26,-1
 40 -92 l 1,27,28
 107 -75 107 -75 129 -20 c 1,29,30
 148 31 148 31 148 121 c 1,31,-1
 146 210 l 2,32,33
 146 254 146 254 152 272 c 0,34,35
 166 309 166 309 197 316 c 1,36,37
 154 329 154 329 148 391 c 0,38,39
 146 410 146 410 146 424 c 2,0,-1
EndSplineSet
EndChar

StartChar: asciitilde
Encoding: 126 126 97
Width: 493
GlyphClass: 2
Flags: W
LayerCount: 2
Fore
SplineSet
458 313 m 0,0,1
 458 274 458 274 435 249 c 0,2,3
 402 214 402 214 346 214 c 0,4,5
 310 214 310 214 260 248 c 0,6,7
 239 262 239 262 219 277 c 0,8,9
 167 313 167 313 138 313 c 128,-1,10
 109 313 109 313 95.5 294 c 128,-1,11
 82 275 82 275 82 255 c 128,-1,12
 82 235 82 235 85 219 c 1,13,-1
 40 219 l 1,14,15
 37 237 37 237 37 253 c 0,16,17
 37 295 37 295 59 321 c 0,18,19
 90 358 90 358 142 358 c 0,20,21
 186 358 186 358 250 309 c 0,22,23
 317 259 317 259 349 259 c 128,-1,24
 381 259 381 259 401 284 c 0,25,26
 414 299 414 299 414 317 c 128,-1,27
 414 335 414 335 408 353 c 1,28,-1
 453 353 l 1,29,30
 458 331 458 331 458 313 c 0,0,1
EndSplineSet
EndChar

StartChar: exclamdown
Encoding: 161 161 98
Width: 230
GlyphClass: 2
Flags: W
LayerCount: 2
Fore
SplineSet
115 706 m 128,-1,1
 134 706 134 706 147 692.5 c 128,-1,2
 160 679 160 679 160 660.5 c 128,-1,3
 160 642 160 642 147 629 c 128,-1,4
 134 616 134 616 115 616 c 128,-1,5
 96 616 96 616 83 629 c 128,-1,6
 70 642 70 642 70 660.5 c 128,-1,7
 70 679 70 679 83 692.5 c 128,-1,0
 96 706 96 706 115 706 c 128,-1,1
90 299 m 1,8,-1
 111 529 l 1,9,-1
 121 529 l 1,10,-1
 141 299 l 1,11,-1
 153 0 l 1,12,-1
 78 0 l 1,13,-1
 90 299 l 1,8,-1
EndSplineSet
EndChar

StartChar: cent
Encoding: 162 162 99
Width: 602
GlyphClass: 2
Flags: W
LayerCount: 2
Fore
SplineSet
115.5 159.5 m 128,-1,1
 50 231 50 231 50 352 c 128,-1,2
 50 473 50 473 127 545 c 128,-1,3
 204 617 204 617 336 617 c 1,4,-1
 343 701 l 1,5,-1
 373 700 l 1,6,-1
 367 615 l 1,7,8
 457 606 457 606 521 565 c 1,9,-1
 539 443 l 1,10,-1
 532 443 l 1,11,12
 501 572 501 572 364 586 c 1,13,-1
 325 105 l 1,14,15
 425 105 425 105 487 154 c 128,-1,16
 549 203 549 203 555 304 c 1,17,-1
 563 304 l 1,18,-1
 555 186 l 1,19,20
 522 133 522 133 462 104 c 128,-1,21
 402 75 402 75 322 75 c 1,22,-1
 315 -9 l 1,23,-1
 286 -6 l 1,24,-1
 293 77 l 1,25,0
 181 88 181 88 115.5 159.5 c 128,-1,1
125 346 m 0,26,27
 125 209 125 209 203 146 c 0,28,29
 241 116 241 116 295 108 c 1,30,-1
 334 587 l 1,31,32
 234 587 234 587 179.5 524 c 128,-1,33
 125 461 125 461 125 346 c 0,26,27
EndSplineSet
EndChar

StartChar: sterling
Encoding: 163 163 100
Width: 577
GlyphClass: 2
Flags: W
LayerCount: 2
Fore
SplineSet
337 46 m 0,0,1
 481 46 481 46 538 159 c 1,2,-1
 548 159 l 1,3,-1
 502 24 l 1,4,5
 427 -10 427 -10 346 -10 c 0,6,7
 293 -10 293 -10 199 17 c 0,8,9
 165 27 165 27 130 27 c 128,-1,10
 95 27 95 27 68 0 c 1,11,-1
 58 0 l 1,12,-1
 58 10 l 1,13,14
 100 44 100 44 129.5 128 c 128,-1,15
 159 212 159 212 160 329 c 1,16,-1
 50 329 l 1,17,-1
 62 365 l 1,18,-1
 159 365 l 1,19,20
 158 387 158 387 158 407 c 0,21,22
 158 695 158 695 360 714 c 0,23,24
 369 715 369 715 391 715 c 128,-1,25
 413 715 413 715 446.5 700 c 128,-1,26
 480 685 480 685 502 657 c 1,27,-1
 475 566 l 1,28,-1
 465 566 l 1,29,30
 467 579 467 579 467 592 c 0,31,32
 467 636 467 636 441.5 660.5 c 128,-1,33
 416 685 416 685 374 685 c 0,34,35
 330 685 330 685 302 666.5 c 128,-1,36
 274 648 274 648 259 621 c 0,37,38
 228 562 228 562 228 431 c 0,39,40
 228 400 228 400 229 365 c 1,41,-1
 413 365 l 1,42,-1
 400 329 l 1,43,-1
 229 329 l 1,44,45
 228 202 228 202 194 141 c 0,46,47
 176 109 176 109 163 93 c 128,-1,48
 150 77 150 77 125 54 c 1,49,50
 156 64 156 64 191.5 61 c 128,-1,51
 227 58 227 58 241 56 c 0,52,53
 311 46 311 46 337 46 c 0,0,1
EndSplineSet
EndChar

StartChar: currency
Encoding: 164 164 101
Width: 541
GlyphClass: 2
Flags: W
LayerCount: 2
Fore
SplineSet
410 193 m 1,0,1
 350 139 350 139 270 139 c 128,-1,2
 190 139 190 139 130 191 c 1,3,-1
 71 132 l 1,4,-1
 50 154 l 1,5,-1
 109 212 l 1,6,7
 56 272 56 272 56 352.5 c 128,-1,8
 56 433 56 433 110 493 c 1,9,-1
 50 553 l 1,10,-1
 71 574 l 1,11,-1
 131 514 l 1,12,13
 191 565 191 565 270 565 c 128,-1,14
 349 565 349 565 409 513 c 1,15,-1
 470 574 l 1,16,-1
 492 553 l 1,17,-1
 430 492 l 1,18,19
 482 432 482 432 482 352.5 c 128,-1,20
 482 273 482 273 431 214 c 1,21,-1
 492 154 l 1,22,-1
 470 132 l 1,23,-1
 410 193 l 1,0,1
269.5 169 m 128,-1,25
 345 169 345 169 398.5 222.5 c 128,-1,26
 452 276 452 276 452 352 c 128,-1,27
 452 428 452 428 398.5 481.5 c 128,-1,28
 345 535 345 535 269.5 535 c 128,-1,29
 194 535 194 535 140 481.5 c 128,-1,30
 86 428 86 428 86 352 c 128,-1,31
 86 276 86 276 140 222.5 c 128,-1,24
 194 169 194 169 269.5 169 c 128,-1,25
EndSplineSet
EndChar

StartChar: yen
Encoding: 165 165 102
Width: 661
GlyphClass: 2
Flags: W
LayerCount: 2
Fore
SplineSet
672 690 m 1,0,-1
 658 690 l 2,1,2
 628 690 628 690 601.5 673.5 c 128,-1,3
 575 657 575 657 557 632 c 1,4,-1
 423 415 l 1,5,-1
 550 415 l 1,6,-1
 550 385 l 1,7,-1
 405 385 l 1,8,-1
 360 312 l 1,9,-1
 360 295 l 1,10,-1
 550 295 l 1,11,-1
 550 265 l 1,12,-1
 360 265 l 1,13,-1
 360 72 l 2,14,15
 360 46 360 46 379 28 c 128,-1,16
 398 10 398 10 424 10 c 2,17,-1
 436 10 l 1,18,-1
 436 0 l 1,19,-1
 218 0 l 1,20,-1
 218 10 l 1,21,-1
 231 10 l 2,22,23
 257 10 257 10 275.5 28.5 c 128,-1,24
 294 47 294 47 295 73 c 1,25,-1
 295 265 l 1,26,-1
 105 265 l 1,27,-1
 105 295 l 1,28,-1
 295 295 l 1,29,-1
 295 313 l 1,30,-1
 252 385 l 1,31,-1
 105 385 l 1,32,-1
 105 415 l 1,33,-1
 234 415 l 1,34,-1
 104 632 l 2,35,36
 89 656 89 656 61.5 673 c 128,-1,37
 34 690 34 690 4 690 c 2,38,-1
 -10 690 l 1,39,-1
 -10 700 l 1,40,-1
 236 700 l 1,41,-1
 236 690 l 1,42,-1
 223 690 l 2,43,44
 201 690 201 690 189 670 c 0,45,46
 183 659 183 659 183 648.5 c 128,-1,47
 183 638 183 638 188 628 c 2,48,-1
 338 348 l 1,49,-1
 498 629 l 2,50,51
 503 639 503 639 503 649 c 128,-1,52
 503 659 503 659 496 670 c 0,53,54
 484 690 484 690 462 690 c 2,55,-1
 450 690 l 1,56,-1
 450 700 l 1,57,-1
 672 700 l 1,58,-1
 672 690 l 1,0,-1
EndSplineSet
EndChar

StartChar: brokenbar
Encoding: 166 166 103
Width: 245
GlyphClass: 2
Flags: W
LayerCount: 2
Fore
SplineSet
100 350 m 1,0,-1
 100 700 l 1,1,-1
 145 700 l 1,2,-1
 145 350 l 1,3,-1
 100 350 l 1,0,-1
100 -180 m 1,4,-1
 100 170 l 1,5,-1
 145 170 l 1,6,-1
 145 -180 l 1,7,-1
 100 -180 l 1,4,-1
EndSplineSet
EndChar

StartChar: section
Encoding: 167 167 104
Width: 511
GlyphClass: 2
Flags: W
LayerCount: 2
Fore
SplineSet
404 677 m 0,0,1
 421 659 421 659 421 645 c 0,2,3
 421 624 421 624 408 614 c 128,-1,4
 395 604 395 604 379.5 612 c 128,-1,5
 364 620 364 620 347 634 c 1,6,7
 303 674 303 674 261 674 c 0,8,9
 239 674 239 674 207 651.5 c 128,-1,10
 175 629 175 629 175 597 c 0,11,12
 175 529 175 529 336 367 c 0,13,14
 447 255 447 255 447 120 c 0,15,16
 447 39 447 39 402 -34 c 0,17,18
 364 -97 364 -97 303 -130 c 0,19,20
 258 -154 258 -154 202.5 -154 c 128,-1,21
 147 -154 147 -154 116 -121 c 0,22,23
 99 -103 99 -103 99 -89 c 0,24,25
 99 -66 99 -66 115 -54 c 0,26,27
 120 -50 120 -50 127.5 -50 c 128,-1,28
 135 -50 135 -50 152 -60.5 c 128,-1,29
 169 -71 169 -71 190 -90 c 1,30,31
 221 -116 221 -116 251 -116 c 128,-1,32
 281 -116 281 -116 307 -98 c 0,33,34
 342 -74 342 -74 342 -36 c 0,35,36
 342 40 342 40 179 197 c 0,37,38
 112 261 112 261 88.5 323.5 c 128,-1,39
 65 386 65 386 65 433 c 0,40,41
 65 506 65 506 108 582 c 1,42,43
 139 634 139 634 185 667 c 0,44,45
 247 711 247 711 310.5 711 c 128,-1,46
 374 711 374 711 404 677 c 0,0,1
139 583 m 1,47,48
 104 517 104 517 104 459 c 0,49,50
 104 357 104 357 224 248 c 0,51,52
 376 110 376 110 376 15 c 0,53,54
 376 0 376 0 371 -15 c 1,55,56
 407 41 407 41 407 98 c 0,57,58
 407 204 407 204 289 317 c 0,59,60
 169 433 169 433 146 506 c 0,61,62
 138 532 138 532 138 552 c 128,-1,63
 138 572 138 572 139 583 c 1,47,48
EndSplineSet
EndChar

StartChar: dieresis
Encoding: 168 168 105
Width: 600
GlyphClass: 2
Flags: W
LayerCount: 2
Fore
SplineSet
186 700 m 128,-1,1
 170 700 170 700 158.5 711.5 c 128,-1,2
 147 723 147 723 147 739 c 128,-1,3
 147 755 147 755 158.5 766.5 c 128,-1,4
 170 778 170 778 186 778 c 128,-1,5
 202 778 202 778 213.5 766.5 c 128,-1,6
 225 755 225 755 225 739 c 128,-1,7
 225 723 225 723 213.5 711.5 c 128,-1,0
 202 700 202 700 186 700 c 128,-1,1
374.5 700 m 128,-1,9
 358 700 358 700 347 711.5 c 128,-1,10
 336 723 336 723 336 739 c 128,-1,11
 336 755 336 755 347 766.5 c 128,-1,12
 358 778 358 778 374.5 778 c 128,-1,13
 391 778 391 778 402.5 766.5 c 128,-1,14
 414 755 414 755 414 739 c 128,-1,15
 414 723 414 723 402.5 711.5 c 128,-1,8
 391 700 391 700 374.5 700 c 128,-1,9
EndSplineSet
EndChar

StartChar: copyright
Encoding: 169 169 106
Width: 848
GlyphClass: 2
Flags: W
LayerCount: 2
Fore
SplineSet
424 714 m 128,-1,1
 575 714 575 714 681.5 607.5 c 128,-1,2
 788 501 788 501 788 350 c 128,-1,3
 788 199 788 199 681.5 92.5 c 128,-1,4
 575 -14 575 -14 424 -14 c 128,-1,5
 273 -14 273 -14 166.5 92.5 c 128,-1,6
 60 199 60 199 60 350 c 128,-1,7
 60 501 60 501 166.5 607.5 c 128,-1,0
 273 714 273 714 424 714 c 128,-1,1
424 677 m 128,-1,9
 335 677 335 677 259.5 633.5 c 128,-1,10
 184 590 184 590 140.5 514.5 c 128,-1,11
 97 439 97 439 97 350 c 128,-1,12
 97 261 97 261 140.5 185.5 c 128,-1,13
 184 110 184 110 259.5 66.5 c 128,-1,14
 335 23 335 23 424 23 c 128,-1,15
 513 23 513 23 588.5 66.5 c 128,-1,16
 664 110 664 110 707.5 185.5 c 128,-1,17
 751 261 751 261 751 350 c 128,-1,18
 751 439 751 439 707.5 514.5 c 128,-1,19
 664 590 664 590 588.5 633.5 c 128,-1,8
 513 677 513 677 424 677 c 128,-1,9
266.5 191 m 128,-1,21
 201 255 201 255 201 350.5 c 128,-1,22
 201 446 201 446 266.5 509.5 c 128,-1,23
 332 573 332 573 426.5 573 c 128,-1,24
 521 573 521 573 588 530 c 1,25,-1
 602 430 l 1,26,-1
 596 430 l 1,27,28
 583 484 583 484 538.5 515.5 c 128,-1,29
 494 547 494 547 427 547 c 128,-1,30
 360 547 360 547 313.5 490.5 c 128,-1,31
 267 434 267 434 267 350.5 c 128,-1,32
 267 267 267 267 313.5 211 c 128,-1,33
 360 155 360 155 421 154 c 128,-1,34
 482 153 482 153 521.5 169 c 128,-1,35
 561 185 561 185 586.5 222 c 128,-1,36
 612 259 612 259 616 316 c 1,37,-1
 622 316 l 1,38,-1
 615 219 l 1,39,40
 589 176 589 176 539.5 151.5 c 128,-1,41
 490 127 490 127 430 127 c 0,42,20
 332 127 332 127 266.5 191 c 128,-1,21
EndSplineSet
EndChar

StartChar: ordfeminine
Encoding: 170 170 107
Width: 368
GlyphClass: 2
Flags: W
LayerCount: 2
Fore
SplineSet
364 383 m 2,0,-1
 368 383 l 1,1,-1
 368 378 l 1,2,-1
 245 378 l 1,3,-1
 245 383 l 1,4,-1
 250 383 l 2,5,6
 265 383 265 383 271 400 c 0,7,8
 273 408 273 408 269 420 c 2,9,-1
 243 486 l 1,10,-1
 120 486 l 1,11,-1
 91 419 l 2,12,13
 85 403 85 403 92 393 c 128,-1,14
 99 383 99 383 110 383 c 2,15,-1
 114 383 l 1,16,-1
 114 378 l 1,17,-1
 0 378 l 1,18,-1
 0 383 l 1,19,-1
 4 383 l 2,20,21
 31 383 31 383 48 418 c 2,22,-1
 160 655 l 2,23,24
 180 699 180 699 181 714 c 1,25,-1
 186 714 l 1,26,-1
 321 420 l 2,27,28
 339 383 339 383 364 383 c 2,0,-1
130 510 m 1,29,-1
 234 510 l 1,30,-1
 184 638 l 1,31,-1
 130 510 l 1,29,-1
EndSplineSet
EndChar

StartChar: guillemotleft
Encoding: 171 171 108
Width: 453
GlyphClass: 2
Flags: W
LayerCount: 2
Fore
SplineSet
215 490 m 1,0,-1
 223 485 l 1,1,-1
 105 292 l 1,2,-1
 224 95 l 1,3,-1
 215 90 l 1,4,-1
 40 292 l 1,5,-1
 215 490 l 1,0,-1
385 490 m 1,6,-1
 393 485 l 1,7,-1
 275 292 l 1,8,-1
 394 95 l 1,9,-1
 385 90 l 1,10,-1
 210 292 l 1,11,-1
 385 490 l 1,6,-1
EndSplineSet
EndChar

StartChar: logicalnot
Encoding: 172 172 109
Width: 601
GlyphClass: 2
Flags: W
LayerCount: 2
Fore
SplineSet
40 397 m 1,0,-1
 562 397 l 1,1,-1
 562 195 l 1,2,-1
 517 195 l 1,3,-1
 517 352 l 1,4,-1
 40 352 l 1,5,-1
 40 397 l 1,0,-1
EndSplineSet
EndChar

StartChar: softhyphen
Encoding: 173 173 110
Width: 380
GlyphClass: 2
Flags: W
LayerCount: 2
Fore
SplineSet
34 292 m 1,0,-1
 40 314 l 1,1,-1
 340 314 l 1,2,-1
 346 292 l 1,3,-1
 340 269 l 1,4,-1
 40 269 l 1,5,-1
 34 292 l 1,0,-1
EndSplineSet
EndChar

StartChar: registered
Encoding: 174 174 111
Width: 245
GlyphClass: 2
Flags: W
LayerCount: 2
Fore
SplineSet
123 701 m 128,-1,1
 170 701 170 701 203 668 c 128,-1,2
 236 635 236 635 236 588 c 128,-1,3
 236 541 236 541 203 508 c 128,-1,4
 170 475 170 475 123 475 c 128,-1,5
 76 475 76 475 43 508 c 128,-1,6
 10 541 10 541 10 588 c 128,-1,7
 10 635 10 635 43 668 c 128,-1,0
 76 701 76 701 123 701 c 128,-1,1
122.5 495 m 128,-1,9
 161 495 161 495 188.5 522.5 c 128,-1,10
 216 550 216 550 216 588 c 128,-1,11
 216 626 216 626 188.5 653.5 c 128,-1,12
 161 681 161 681 122.5 681 c 128,-1,13
 84 681 84 681 57 653.5 c 128,-1,14
 30 626 30 626 30 588 c 128,-1,15
 30 550 30 550 57 522.5 c 128,-1,8
 84 495 84 495 122.5 495 c 128,-1,9
156.5 643 m 128,-1,17
 168 634 168 634 168 620.5 c 128,-1,18
 168 607 168 607 160 597.5 c 128,-1,19
 152 588 152 588 139 586 c 1,20,21
 147 585 147 585 156.5 570 c 128,-1,22
 166 555 166 555 172.5 546 c 128,-1,23
 179 537 179 537 188 534 c 1,24,-1
 188 532 l 1,25,-1
 176 532 l 2,26,27
 156 532 156 532 148 540 c 128,-1,28
 140 548 140 548 137 552 c 128,-1,29
 134 556 134 556 129 565 c 0,30,31
 116 590 116 590 112 590 c 1,32,-1
 112 592 l 1,33,-1
 122 592 l 1,34,35
 142 596 142 596 141.5 619 c 128,-1,36
 141 642 141 642 117 642 c 1,37,38
 117 642 117 642 117 642 c 1,39,-1
 105 643 l 1,40,-1
 105 545 l 2,41,42
 105 534 105 534 115 534 c 2,43,-1
 118 534 l 1,44,-1
 118 532 l 1,45,-1
 68 532 l 1,46,-1
 68 534 l 1,47,-1
 70 534 l 2,48,49
 80 534 80 534 81 544 c 1,50,-1
 81 639 l 1,51,52
 80 650 80 650 70 650 c 2,53,-1
 68 650 l 1,54,-1
 68 652 l 1,55,-1
 105 652 l 1,56,-1
 126 652 l 2,57,16
 145 652 145 652 156.5 643 c 128,-1,17
EndSplineSet
EndChar

StartChar: macron
Encoding: 175 175 112
Width: 600
GlyphClass: 2
Flags: W
LayerCount: 2
Fore
SplineSet
170 703 m 1,0,-1
 170 738 l 1,1,-1
 420 738 l 1,2,-1
 420 703 l 1,3,-1
 170 703 l 1,0,-1
EndSplineSet
EndChar

StartChar: degree
Encoding: 176 176 113
Width: 257
GlyphClass: 2
Flags: W
LayerCount: 2
Fore
SplineSet
128.5 664 m 128,-1,1
 169 664 169 664 198 635.5 c 128,-1,2
 227 607 227 607 227 566 c 128,-1,3
 227 525 227 525 198 496 c 128,-1,4
 169 467 169 467 128.5 467 c 128,-1,5
 88 467 88 467 59 496 c 128,-1,6
 30 525 30 525 30 566 c 128,-1,7
 30 607 30 607 59 635.5 c 128,-1,0
 88 664 88 664 128.5 664 c 128,-1,1
128.5 625 m 128,-1,9
 104 625 104 625 86.5 608 c 128,-1,10
 69 591 69 591 69 566 c 128,-1,11
 69 541 69 541 86.5 524 c 128,-1,12
 104 507 104 507 128.5 507 c 128,-1,13
 153 507 153 507 170.5 524 c 128,-1,14
 188 541 188 541 188 566 c 128,-1,15
 188 591 188 591 170.5 608 c 128,-1,8
 153 625 153 625 128.5 625 c 128,-1,9
EndSplineSet
EndChar

StartChar: plusminus
Encoding: 177 177 114
Width: 481
GlyphClass: 2
Flags: W
LayerCount: 2
Fore
SplineSet
263 402 m 1,0,-1
 442 402 l 1,1,-1
 442 357 l 1,2,-1
 263 357 l 1,3,-1
 263 179 l 1,4,-1
 218 179 l 1,5,-1
 218 357 l 1,6,-1
 40 357 l 1,7,-1
 40 402 l 1,8,-1
 218 402 l 1,9,-1
 218 581 l 1,10,-1
 263 581 l 1,11,-1
 263 402 l 1,0,-1
40 60 m 1,12,-1
 40 105 l 1,13,-1
 442 105 l 1,14,-1
 442 60 l 1,15,-1
 40 60 l 1,12,-1
EndSplineSet
EndChar

StartChar: twosuperior
Encoding: 178 178 115
Width: 375
GlyphClass: 2
Flags: W
LayerCount: 2
Fore
SplineSet
90.5 702 m 128,-1,1
 122 714 122 714 158.5 714 c 128,-1,2
 195 714 195 714 228.5 699 c 128,-1,3
 262 684 262 684 282 656 c 128,-1,4
 302 628 302 628 302 594.5 c 128,-1,5
 302 561 302 561 289 530.5 c 128,-1,6
 276 500 276 500 260.5 478 c 128,-1,7
 245 456 245 456 216 430 c 0,8,9
 180 398 180 398 148.5 375 c 128,-1,10
 117 352 117 352 113 350 c 1,11,-1
 251 350 l 2,12,13
 285 350 285 350 303 368 c 0,14,15
 315 381 315 381 329 406 c 1,16,-1
 335 406 l 1,17,-1
 304 308 l 1,18,-1
 30 308 l 1,19,-1
 30 315 l 1,20,21
 42 326 42 326 81 359.5 c 128,-1,22
 120 393 120 393 142 414.5 c 128,-1,23
 164 436 164 436 192 467 c 0,24,25
 247 530 247 530 247 583 c 128,-1,26
 247 636 247 636 221.5 662.5 c 128,-1,27
 196 689 196 689 156 689 c 0,28,29
 113 689 113 689 85 663.5 c 128,-1,30
 57 638 57 638 58 595 c 1,31,-1
 51 595 l 1,32,-1
 40 670 l 1,33,0
 59 690 59 690 90.5 702 c 128,-1,1
EndSplineSet
EndChar

StartChar: threesuperior
Encoding: 179 179 116
Width: 310
GlyphClass: 2
Flags: W
LayerCount: 2
Fore
SplineSet
40 675 m 1,0,1
 71 712 71 712 130 712 c 128,-1,2
 189 712 189 712 223.5 687 c 128,-1,3
 258 662 258 662 258 626.5 c 128,-1,4
 258 591 258 591 231.5 565 c 128,-1,5
 205 539 205 539 172 532 c 1,6,7
 212 527 212 527 242 501.5 c 128,-1,8
 272 476 272 476 272 439 c 0,9,10
 272 351 272 351 202 309 c 0,11,12
 155 280 155 280 93 280 c 0,13,14
 63 280 63 280 30 286 c 1,15,-1
 31 293 l 1,16,17
 36 293 36 293 40 293 c 0,18,19
 117 293 117 293 168 330 c 128,-1,20
 219 367 219 367 219 437 c 0,21,22
 219 523 219 523 89 523 c 1,23,-1
 90 529 l 1,24,25
 140 529 140 529 173 554 c 128,-1,26
 206 579 206 579 206 615.5 c 128,-1,27
 206 652 206 652 186 670 c 128,-1,28
 166 688 166 688 131 688 c 0,29,30
 58 688 58 688 58 618 c 0,31,32
 58 615 58 615 58 613 c 1,33,-1
 51 613 l 1,34,-1
 40 675 l 1,0,1
EndSplineSet
EndChar

StartChar: acute
Encoding: 180 180 117
Width: 439
GlyphClass: 2
Flags: W
LayerCount: 2
Fore
SplineSet
208 746 m 1,0,-1
 201 753 l 1,1,2
 277 835 277 835 328 884 c 1,3,4
 354 857 354 857 369 831 c 1,5,6
 304 794 304 794 208 746 c 1,0,-1
EndSplineSet
EndChar

StartChar: paragraph
Encoding: 182 182 118
Width: 520
GlyphClass: 2
Flags: W
LayerCount: 2
Fore
SplineSet
392 670 m 1,0,-1
 392 147 l 2,1,2
 392 88 392 88 382.5 55 c 128,-1,3
 373 22 373 22 344 -13 c 1,4,-1
 335 -5 l 1,5,6
 360 37 360 37 361 85 c 0,7,8
 362 100 362 100 362 145 c 2,9,-1
 362 670 l 1,10,-1
 279 670 l 1,11,-1
 279 0 l 2,12,13
 279 -93 279 -93 259 -133 c 0,14,15
 237 -176 237 -176 193 -199 c 1,16,-1
 186 -190 l 1,17,18
 227 -148 227 -148 237 -114.5 c 128,-1,19
 247 -81 247 -81 247 -47 c 128,-1,20
 247 -13 247 -13 246 0 c 1,21,-1
 246 333 l 1,22,23
 161 333 161 333 105.5 383 c 128,-1,24
 50 433 50 433 50 516 c 128,-1,25
 50 599 50 599 106.5 649.5 c 128,-1,26
 163 700 163 700 246 700 c 2,27,-1
 408 700 l 1,28,29
 408 700 408 700 415 700 c 128,-1,30
 422 700 422 700 424 700 c 128,-1,31
 426 700 426 700 432.5 700.5 c 128,-1,32
 439 701 439 701 443 702.5 c 128,-1,33
 447 704 447 704 453.5 705.5 c 128,-1,34
 460 707 460 707 465.5 710.5 c 128,-1,35
 471 714 471 714 477 718 c 0,36,37
 489 726 489 726 503 743 c 1,38,-1
 510 737 l 1,39,40
 481 672 481 672 405 670 c 1,41,-1
 392 670 l 1,0,-1
EndSplineSet
EndChar

StartChar: periodcentered
Encoding: 183 183 119
Width: 170
GlyphClass: 2
Flags: W
LayerCount: 2
Fore
SplineSet
85 305 m 128,-1,1
 66 305 66 305 53 318 c 128,-1,2
 40 331 40 331 40 350 c 128,-1,3
 40 369 40 369 53 382 c 128,-1,4
 66 395 66 395 85 395 c 128,-1,5
 104 395 104 395 117 382 c 128,-1,6
 130 369 130 369 130 350 c 128,-1,7
 130 331 130 331 117 318 c 128,-1,0
 104 305 104 305 85 305 c 128,-1,1
EndSplineSet
EndChar

StartChar: cedilla
Encoding: 184 184 120
Width: 600
GlyphClass: 2
Flags: W
LayerCount: 2
Fore
SplineSet
282 -48 m 1,0,1
 313 -37 313 -37 338 -44 c 0,2,3
 387 -57 387 -57 387 -105 c 128,-1,4
 387 -153 387 -153 343 -174 c 0,5,6
 317 -186 317 -186 292.5 -186 c 128,-1,7
 268 -186 268 -186 246 -179 c 1,8,-1
 247 -169 l 1,9,10
 283 -169 283 -169 310 -154 c 128,-1,11
 337 -139 337 -139 337 -108 c 0,12,13
 337 -64 337 -64 286 -64 c 0,14,15
 269 -64 269 -64 253 -72 c 1,16,-1
 248 -62 l 1,17,-1
 296 1 l 1,18,-1
 323 1 l 1,19,-1
 282 -48 l 1,0,1
EndSplineSet
EndChar

StartChar: onesuperior
Encoding: 185 185 121
Width: 211
GlyphClass: 2
Flags: W
LayerCount: 2
Fore
SplineSet
191 315 m 1,0,-1
 191 308 l 1,1,-1
 45 308 l 1,2,-1
 45 315 l 1,3,-1
 59 315 l 2,4,5
 74 315 74 315 85 325.5 c 128,-1,6
 96 336 96 336 96 351 c 2,7,-1
 96 632 l 2,8,9
 96 665 96 665 65 665 c 2,10,-1
 40 665 l 1,11,-1
 40 671 l 1,12,13
 72 676 72 676 94 684.5 c 128,-1,14
 116 693 116 693 134 714 c 1,15,-1
 140 714 l 1,16,-1
 140 350 l 2,17,18
 140 336 140 336 151 325.5 c 128,-1,19
 162 315 162 315 177 315 c 2,20,-1
 191 315 l 1,0,-1
EndSplineSet
EndChar

StartChar: ordmasculine
Encoding: 186 186 122
Width: 412
GlyphClass: 2
Flags: W
LayerCount: 2
Fore
SplineSet
206 714 m 128,-1,1
 279 714 279 714 331 664 c 128,-1,2
 383 614 383 614 383 542 c 128,-1,3
 383 470 383 470 331 420 c 128,-1,4
 279 370 279 370 206 370 c 128,-1,5
 133 370 133 370 81.5 420 c 128,-1,6
 30 470 30 470 30 542 c 128,-1,7
 30 614 30 614 81.5 664 c 128,-1,0
 133 714 133 714 206 714 c 128,-1,1
206.5 391 m 128,-1,9
 259 391 259 391 293.5 434 c 128,-1,10
 328 477 328 477 328 542 c 128,-1,11
 328 607 328 607 293.5 650 c 128,-1,12
 259 693 259 693 206.5 693 c 128,-1,13
 154 693 154 693 119.5 650 c 128,-1,14
 85 607 85 607 85 542 c 128,-1,15
 85 477 85 477 119.5 434 c 128,-1,8
 154 391 154 391 206.5 391 c 128,-1,9
EndSplineSet
EndChar

StartChar: guillemotright
Encoding: 187 187 123
Width: 453
GlyphClass: 2
Flags: W
LayerCount: 2
Fore
SplineSet
69 90 m 1,0,-1
 60 95 l 1,1,-1
 179 292 l 1,2,-1
 61 485 l 1,3,-1
 69 490 l 1,4,-1
 244 292 l 1,5,-1
 69 90 l 1,0,-1
239 90 m 1,6,-1
 230 95 l 1,7,-1
 349 292 l 1,8,-1
 231 485 l 1,9,-1
 239 490 l 1,10,-1
 414 292 l 1,11,-1
 239 90 l 1,6,-1
EndSplineSet
EndChar

StartChar: onequarter
Encoding: 188 188 124
Width: 713
GlyphClass: 2
Flags: W
LayerCount: 2
Fore
SplineSet
578 714 m 1,0,-1
 602 697 l 1,1,-1
 125 -14 l 1,2,-1
 100 2 l 1,3,-1
 578 714 l 1,0,-1
211 308 m 1,4,-1
 65 308 l 1,5,-1
 65 315 l 1,6,-1
 79 315 l 2,7,8
 94 315 94 315 105 325.5 c 128,-1,9
 116 336 116 336 116 351 c 2,10,-1
 116 632 l 2,11,12
 116 665 116 665 85 665 c 2,13,-1
 60 665 l 1,14,-1
 60 671 l 1,15,16
 92 676 92 676 114 684.5 c 128,-1,17
 136 693 136 693 154 714 c 1,18,-1
 161 714 l 1,19,-1
 161 350 l 2,20,21
 161 336 161 336 171.5 325.5 c 128,-1,22
 182 315 182 315 197 315 c 2,23,-1
 211 315 l 1,24,-1
 211 308 l 1,4,-1
617 130 m 1,25,-1
 617 41 l 1,26,27
 618 27 618 27 628.5 16.5 c 128,-1,28
 639 6 639 6 654 6 c 2,29,-1
 661 6 l 1,30,-1
 661 -1 l 1,31,-1
 529 -1 l 1,32,-1
 529 6 l 1,33,-1
 536 6 l 2,34,35
 551 6 551 6 561.5 15.5 c 128,-1,36
 572 25 572 25 573 40 c 1,37,-1
 573 130 l 1,38,-1
 391 130 l 1,39,-1
 391 136 l 1,40,-1
 611 405 l 1,41,-1
 617 405 l 1,42,-1
 617 163 l 1,43,-1
 646 163 l 2,44,45
 663 163 663 163 669.5 166 c 128,-1,46
 676 169 676 169 683 177 c 1,47,-1
 689 177 l 1,48,-1
 675 130 l 1,49,-1
 617 130 l 1,25,-1
573 163 m 1,50,-1
 573 323 l 1,51,-1
 445 163 l 1,52,-1
 573 163 l 1,50,-1
EndSplineSet
EndChar

StartChar: onehalf
Encoding: 189 189 125
Width: 805
GlyphClass: 2
Flags: W
LayerCount: 2
Fore
SplineSet
577 714 m 1,0,-1
 601 697 l 1,1,-1
 124 -14 l 1,2,-1
 99 2 l 1,3,-1
 577 714 l 1,0,-1
211 315 m 1,4,-1
 211 308 l 1,5,-1
 65 308 l 1,6,-1
 65 315 l 1,7,-1
 79 315 l 2,8,9
 94 315 94 315 105 325.5 c 128,-1,10
 116 336 116 336 116 351 c 2,11,-1
 116 632 l 2,12,13
 116 665 116 665 85 665 c 2,14,-1
 60 665 l 1,15,-1
 60 671 l 1,16,17
 81 674 81 674 95 678 c 0,18,19
 131 687 131 687 154 714 c 1,20,-1
 160 714 l 1,21,-1
 160 350 l 2,22,23
 160 336 160 336 171 325.5 c 128,-1,24
 182 315 182 315 197 315 c 2,25,-1
 211 315 l 1,4,-1
583 406 m 0,26,27
 646 406 646 406 689 372 c 128,-1,28
 732 338 732 338 732 284 c 0,29,30
 732 183 732 183 601 84 c 0,31,32
 584 71 584 71 565.5 57.5 c 128,-1,33
 547 44 547 44 543 42 c 1,34,-1
 681 42 l 2,35,36
 709 42 709 42 724.5 53.5 c 128,-1,37
 740 65 740 65 759 98 c 1,38,-1
 765 98 l 1,39,-1
 734 0 l 1,40,-1
 460 0 l 1,41,-1
 460 7 l 1,42,43
 473 19 473 19 502.5 44.5 c 128,-1,44
 532 70 532 70 551.5 87.5 c 128,-1,45
 571 105 571 105 597 132 c 128,-1,46
 623 159 623 159 639 181 c 0,47,48
 677 235 677 235 677 281.5 c 128,-1,49
 677 328 677 328 651.5 354.5 c 128,-1,50
 626 381 626 381 586 381 c 0,51,52
 543 381 543 381 515 355.5 c 128,-1,53
 487 330 487 330 488 287 c 1,54,-1
 481 287 l 1,55,-1
 469 362 l 1,56,57
 489 382 489 382 520.5 394 c 128,-1,58
 552 406 552 406 583 406 c 0,26,27
EndSplineSet
EndChar

StartChar: threequarters
Encoding: 190 190 126
Width: 713
GlyphClass: 2
Flags: W
LayerCount: 2
Fore
SplineSet
621 714 m 1,0,-1
 645 697 l 1,1,-1
 168 -14 l 1,2,-1
 143 2 l 1,3,-1
 621 714 l 1,0,-1
40 675 m 1,4,5
 71 712 71 712 130 712 c 128,-1,6
 189 712 189 712 223.5 687 c 128,-1,7
 258 662 258 662 258 626.5 c 128,-1,8
 258 591 258 591 231.5 565 c 128,-1,9
 205 539 205 539 172 532 c 1,10,11
 228 525 228 525 257 484 c 0,12,13
 272 464 272 464 272 439 c 0,14,15
 272 351 272 351 202 309 c 0,16,17
 155 280 155 280 93 280 c 0,18,19
 63 280 63 280 30 286 c 1,20,-1
 31 293 l 1,21,22
 35 293 35 293 55 293 c 128,-1,23
 75 293 75 293 107 301.5 c 128,-1,24
 139 310 139 310 165 327 c 1,25,26
 219 365 219 365 219 437 c 0,27,28
 219 523 219 523 89 523 c 1,29,-1
 90 529 l 1,30,31
 140 529 140 529 173 554 c 128,-1,32
 206 579 206 579 206 615.5 c 128,-1,33
 206 652 206 652 186 670 c 128,-1,34
 166 688 166 688 131 688 c 0,35,36
 58 688 58 688 58 618 c 0,37,38
 58 615 58 615 58 613 c 1,39,-1
 51 613 l 1,40,-1
 40 675 l 1,4,5
622 130 m 1,41,-1
 622 41 l 2,42,43
 622 27 622 27 633 16.5 c 128,-1,44
 644 6 644 6 659 6 c 2,45,-1
 666 6 l 1,46,-1
 666 -1 l 1,47,-1
 534 -1 l 1,48,-1
 534 6 l 1,49,-1
 541 6 l 2,50,51
 556 6 556 6 566.5 15.5 c 128,-1,52
 577 25 577 25 578 40 c 1,53,-1
 578 130 l 1,54,-1
 396 130 l 1,55,-1
 396 136 l 1,56,-1
 616 405 l 1,57,-1
 622 405 l 1,58,-1
 622 163 l 1,59,-1
 651 163 l 2,60,61
 668 163 668 163 674.5 166 c 128,-1,62
 681 169 681 169 687 177 c 1,63,-1
 694 177 l 1,64,-1
 680 130 l 1,65,-1
 622 130 l 1,41,-1
578 163 m 1,66,-1
 578 323 l 1,67,-1
 450 163 l 1,68,-1
 578 163 l 1,66,-1
EndSplineSet
EndChar

StartChar: questiondown
Encoding: 191 191 127
Width: 433
GlyphClass: 2
Flags: W
LayerCount: 2
Fore
SplineSet
233 704 m 128,-1,1
 252 704 252 704 265 691 c 128,-1,2
 278 678 278 678 278 659 c 128,-1,3
 278 640 278 640 265 627 c 128,-1,4
 252 614 252 614 233 614 c 128,-1,5
 214 614 214 614 201 627 c 128,-1,6
 188 640 188 640 188 659 c 128,-1,7
 188 678 188 678 201 691 c 128,-1,0
 214 704 214 704 233 704 c 128,-1,1
393 75 m 1,8,9
 345 -14 345 -14 239 -14 c 0,10,11
 185 -14 185 -14 141 6 c 0,12,13
 50 48 50 48 50 156 c 0,14,15
 50 218 50 218 90 267 c 0,16,17
 124 308 124 308 156 338 c 0,18,19
 215 392 215 392 227 433 c 1,20,21
 235 453 235 453 235 477.5 c 128,-1,22
 235 502 235 502 217 525 c 1,23,-1
 223 530 l 1,24,25
 268 489 268 489 268 434 c 0,26,27
 268 389 268 389 217 331 c 0,28,29
 196 307 196 307 175 281 c 0,30,31
 125 220 125 220 125 155 c 128,-1,32
 125 90 125 90 157 53 c 128,-1,33
 189 16 189 16 247.5 16 c 128,-1,34
 306 16 306 16 339.5 56.5 c 128,-1,35
 373 97 373 97 373 164 c 0,36,37
 373 167 373 167 373 170 c 1,38,-1
 383 170 l 1,39,-1
 393 75 l 1,8,9
EndSplineSet
EndChar

StartChar: Agrave
Encoding: 192 192 128
Width: 712
GlyphClass: 2
Flags: W
LayerCount: 2
Fore
SplineSet
364 771 m 1,0,-1
 357 764 l 1,1,2
 276 802 276 802 196 849 c 1,3,4
 210 877 210 877 237 902 c 1,5,6
 300 841 300 841 364 771 c 1,0,-1
715 10 m 2,7,-1
 723 10 l 1,8,-1
 723 0 l 1,9,-1
 498 0 l 1,10,-1
 498 10 l 1,11,-1
 507 10 l 2,12,13
 528 10 528 10 538.5 23.5 c 128,-1,14
 549 37 549 37 549 49 c 128,-1,15
 549 61 549 61 545 73 c 2,16,-1
 481 243 l 1,17,-1
 211 243 l 1,18,-1
 144 72 l 1,19,20
 130 30 130 30 164 14 c 0,21,22
 173 10 173 10 182 10 c 2,23,-1
 191 10 l 1,24,-1
 191 0 l 1,25,-1
 -10 0 l 1,26,-1
 -10 10 l 1,27,-1
 -1 10 l 2,28,29
 24 10 24 10 48 26 c 128,-1,30
 72 42 72 42 87 73 c 1,31,-1
 313 611 l 1,32,33
 350 692 350 692 350 714 c 1,34,-1
 359 714 l 1,35,-1
 627 73 l 1,36,37
 646 31 646 31 683 16 c 0,38,39
 698 10 698 10 715 10 c 2,7,-1
223 273 m 1,40,-1
 469 273 l 1,41,-1
 349 594 l 1,42,-1
 223 273 l 1,40,-1
EndSplineSet
EndChar

StartChar: Aacute
Encoding: 193 193 129
Width: 712
GlyphClass: 2
Flags: W
LayerCount: 2
Fore
SplineSet
357 764 m 1,0,-1
 350 771 l 1,1,2
 426 853 426 853 477 902 c 1,3,4
 503 875 503 875 517 849 c 1,5,6
 453 812 453 812 357 764 c 1,0,-1
715 10 m 2,7,-1
 723 10 l 1,8,-1
 723 0 l 1,9,-1
 498 0 l 1,10,-1
 498 10 l 1,11,-1
 507 10 l 2,12,13
 528 10 528 10 538.5 23.5 c 128,-1,14
 549 37 549 37 549 49 c 128,-1,15
 549 61 549 61 545 73 c 2,16,-1
 481 243 l 1,17,-1
 211 243 l 1,18,-1
 144 72 l 2,19,20
 140 60 140 60 140 48.5 c 128,-1,21
 140 37 140 37 150.5 23.5 c 128,-1,22
 161 10 161 10 182 10 c 2,23,-1
 191 10 l 1,24,-1
 191 0 l 1,25,-1
 -10 0 l 1,26,-1
 -10 10 l 1,27,-1
 -1 10 l 2,28,29
 24 10 24 10 48 26 c 128,-1,30
 72 42 72 42 87 73 c 1,31,-1
 313 611 l 1,32,33
 350 692 350 692 350 714 c 1,34,-1
 359 714 l 1,35,-1
 627 73 l 2,36,37
 641 42 641 42 665 26 c 128,-1,38
 689 10 689 10 715 10 c 2,7,-1
223 273 m 1,39,-1
 469 273 l 1,40,-1
 349 594 l 1,41,-1
 223 273 l 1,39,-1
EndSplineSet
EndChar

StartChar: Acircumflex
Encoding: 194 194 130
Width: 712
GlyphClass: 2
Flags: W
LayerCount: 2
Fore
SplineSet
351 890 m 1,0,-1
 361 890 l 1,1,-1
 476 771 l 1,2,-1
 470 763 l 1,3,-1
 356 829 l 1,4,-1
 251 763 l 1,5,-1
 245 771 l 1,6,-1
 351 890 l 1,0,-1
715 10 m 2,7,-1
 723 10 l 1,8,-1
 723 0 l 1,9,-1
 498 0 l 1,10,-1
 498 10 l 1,11,-1
 507 10 l 2,12,13
 528 10 528 10 538.5 23.5 c 128,-1,14
 549 37 549 37 549 49 c 128,-1,15
 549 61 549 61 545 73 c 2,16,-1
 481 243 l 1,17,-1
 211 243 l 1,18,-1
 144 72 l 2,19,20
 140 60 140 60 140 48.5 c 128,-1,21
 140 37 140 37 150.5 23.5 c 128,-1,22
 161 10 161 10 182 10 c 2,23,-1
 191 10 l 1,24,-1
 191 0 l 1,25,-1
 -10 0 l 1,26,-1
 -10 10 l 1,27,-1
 -1 10 l 2,28,29
 24 10 24 10 48 26 c 128,-1,30
 72 42 72 42 87 73 c 1,31,-1
 313 611 l 1,32,33
 350 692 350 692 350 714 c 1,34,-1
 359 714 l 1,35,-1
 627 73 l 2,36,37
 641 42 641 42 665 26 c 128,-1,38
 689 10 689 10 715 10 c 2,7,-1
223 273 m 1,39,-1
 469 273 l 1,40,-1
 349 594 l 1,41,-1
 223 273 l 1,39,-1
EndSplineSet
EndChar

StartChar: Atilde
Encoding: 195 195 131
Width: 712
GlyphClass: 2
Flags: W
LayerCount: 2
Fore
SplineSet
427 809 m 0,0,1
 468 809 468 809 482 843 c 1,2,-1
 492 843 l 1,3,4
 487 793 487 793 458 773 c 0,5,6
 444 764 444 764 424 764 c 128,-1,7
 404 764 404 764 362.5 786 c 128,-1,8
 321 808 321 808 306 808 c 0,9,10
 269 808 269 808 252 767 c 1,11,-1
 242 767 l 1,12,13
 248 806 248 806 265 829 c 128,-1,14
 282 852 282 852 306 852 c 128,-1,15
 330 852 330 852 370.5 830.5 c 128,-1,16
 411 809 411 809 427 809 c 0,0,1
715 10 m 2,17,-1
 723 10 l 1,18,-1
 723 0 l 1,19,-1
 498 0 l 1,20,-1
 498 10 l 1,21,-1
 507 10 l 2,22,23
 528 10 528 10 538.5 23.5 c 128,-1,24
 549 37 549 37 549 49 c 128,-1,25
 549 61 549 61 545 73 c 2,26,-1
 481 243 l 1,27,-1
 211 243 l 1,28,-1
 144 72 l 2,29,30
 140 60 140 60 140 48.5 c 128,-1,31
 140 37 140 37 150.5 23.5 c 128,-1,32
 161 10 161 10 182 10 c 2,33,-1
 191 10 l 1,34,-1
 191 0 l 1,35,-1
 -10 0 l 1,36,-1
 -10 10 l 1,37,-1
 -1 10 l 2,38,39
 24 10 24 10 48 26 c 128,-1,40
 72 42 72 42 87 73 c 1,41,-1
 313 611 l 1,42,43
 350 692 350 692 350 714 c 1,44,-1
 359 714 l 1,45,-1
 627 73 l 2,46,47
 641 42 641 42 665 26 c 128,-1,48
 689 10 689 10 715 10 c 2,17,-1
223 273 m 1,49,-1
 469 273 l 1,50,-1
 349 594 l 1,51,-1
 223 273 l 1,49,-1
EndSplineSet
EndChar

StartChar: Adieresis
Encoding: 196 196 132
Width: 712
GlyphClass: 2
Flags: W
LayerCount: 2
Fore
SplineSet
262.5 764 m 128,-1,1
 246 764 246 764 234.5 775.5 c 128,-1,2
 223 787 223 787 223 803 c 128,-1,3
 223 819 223 819 234.5 830.5 c 128,-1,4
 246 842 246 842 262.5 842 c 128,-1,5
 279 842 279 842 290.5 830.5 c 128,-1,6
 302 819 302 819 302 803 c 128,-1,7
 302 787 302 787 290.5 775.5 c 128,-1,0
 279 764 279 764 262.5 764 c 128,-1,1
451 764 m 128,-1,9
 435 764 435 764 423.5 775.5 c 128,-1,10
 412 787 412 787 412 803 c 128,-1,11
 412 819 412 819 423.5 830.5 c 128,-1,12
 435 842 435 842 451 842 c 128,-1,13
 467 842 467 842 478.5 830.5 c 128,-1,14
 490 819 490 819 490 803 c 128,-1,15
 490 787 490 787 478.5 775.5 c 128,-1,8
 467 764 467 764 451 764 c 128,-1,9
715 10 m 2,16,-1
 723 10 l 1,17,-1
 723 0 l 1,18,-1
 498 0 l 1,19,-1
 498 10 l 1,20,-1
 507 10 l 2,21,22
 528 10 528 10 538.5 23.5 c 128,-1,23
 549 37 549 37 549 49 c 128,-1,24
 549 61 549 61 545 73 c 2,25,-1
 481 243 l 1,26,-1
 211 243 l 1,27,-1
 144 72 l 2,28,29
 140 60 140 60 140 48.5 c 128,-1,30
 140 37 140 37 150.5 23.5 c 128,-1,31
 161 10 161 10 182 10 c 2,32,-1
 191 10 l 1,33,-1
 191 0 l 1,34,-1
 -10 0 l 1,35,-1
 -10 10 l 1,36,-1
 -1 10 l 2,37,38
 24 10 24 10 48 26 c 128,-1,39
 72 42 72 42 87 73 c 1,40,-1
 313 611 l 1,41,42
 350 692 350 692 350 714 c 1,43,-1
 359 714 l 1,44,-1
 627 73 l 2,45,46
 641 42 641 42 665 26 c 128,-1,47
 689 10 689 10 715 10 c 2,16,-1
223 273 m 1,48,-1
 469 273 l 1,49,-1
 349 594 l 1,50,-1
 223 273 l 1,48,-1
EndSplineSet
EndChar

StartChar: Aring
Encoding: 197 197 133
Width: 712
GlyphClass: 2
Flags: W
LayerCount: 2
Fore
SplineSet
715 10 m 2,0,-1
 723 10 l 1,1,-1
 723 0 l 1,2,-1
 498 0 l 1,3,-1
 498 10 l 1,4,-1
 507 10 l 2,5,6
 528 10 528 10 538.5 23.5 c 128,-1,7
 549 37 549 37 549 49 c 128,-1,8
 549 61 549 61 545 73 c 2,9,-1
 481 243 l 1,10,-1
 211 243 l 1,11,-1
 144 72 l 1,12,13
 130 30 130 30 164 14 c 0,14,15
 173 10 173 10 182 10 c 2,16,-1
 191 10 l 1,17,-1
 191 0 l 1,18,-1
 -10 0 l 1,19,-1
 -10 10 l 1,20,-1
 -1 10 l 2,21,22
 24 10 24 10 48 26 c 128,-1,23
 72 42 72 42 87 73 c 1,24,-1
 313 611 l 1,25,26
 341 671 341 671 348 702 c 1,27,28
 315 704 315 704 293 722.5 c 128,-1,29
 271 741 271 741 271 770 c 128,-1,30
 271 799 271 799 295 818 c 128,-1,31
 319 837 319 837 356 837 c 128,-1,32
 393 837 393 837 417 819 c 128,-1,33
 441 801 441 801 441 771.5 c 128,-1,34
 441 742 441 742 419.5 723 c 128,-1,35
 398 704 398 704 365 702 c 1,36,-1
 627 73 l 1,37,38
 641 42 641 42 665 26 c 128,-1,39
 689 10 689 10 715 10 c 2,0,-1
311 769.5 m 128,-1,41
 311 745 311 745 323.5 731 c 128,-1,42
 336 717 336 717 355.5 717 c 128,-1,43
 375 717 375 717 387.5 731 c 128,-1,44
 400 745 400 745 400 769.5 c 128,-1,45
 400 794 400 794 387.5 808 c 128,-1,46
 375 822 375 822 355.5 822 c 128,-1,47
 336 822 336 822 323.5 808 c 128,-1,40
 311 794 311 794 311 769.5 c 128,-1,41
223 273 m 1,48,-1
 469 273 l 1,49,-1
 349 594 l 1,50,-1
 223 273 l 1,48,-1
EndSplineSet
EndChar

StartChar: AE
Encoding: 198 198 134
Width: 902
GlyphClass: 2
Flags: W
LayerCount: 2
Fore
SplineSet
802 0 m 1,0,-1
 406 0 l 1,1,-1
 407 10 l 1,2,-1
 416 10 l 2,3,4
 436 10 436 10 450.5 24 c 128,-1,5
 465 38 465 38 466 58 c 1,6,-1
 466 320 l 1,7,-1
 302 320 l 1,8,-1
 152 67 l 2,9,10
 145 54 145 54 145 44.5 c 128,-1,11
 145 35 145 35 148 27 c 0,12,13
 156 10 156 10 176 10 c 0,14,15
 178 10 178 10 179 10 c 2,16,-1
 189 10 l 1,17,-1
 189 0 l 1,18,-1
 -10 0 l 1,19,-1
 -10 10 l 1,20,-1
 -3 10 l 2,21,22
 21 10 21 10 47.5 28.5 c 128,-1,23
 74 47 74 47 89 71 c 2,24,-1
 463 655 l 1,25,26
 469 668 469 668 462.5 679 c 128,-1,27
 456 690 456 690 442 690 c 2,28,-1
 438 690 l 1,29,-1
 438 700 l 1,30,-1
 681 700 l 2,31,32
 712 700 712 700 749 706 c 128,-1,33
 786 712 786 712 800 718 c 1,34,-1
 800 605 l 1,35,-1
 790 605 l 1,36,-1
 790 620 l 2,37,38
 790 640 790 640 776 654.5 c 128,-1,39
 762 669 762 669 742 669 c 2,40,-1
 531 669 l 1,41,-1
 531 350 l 1,42,-1
 700 350 l 1,43,44
 720 351 720 351 734 365 c 128,-1,45
 748 379 748 379 748 400 c 2,46,-1
 748 414 l 1,47,-1
 758 414 l 1,48,-1
 758 256 l 1,49,-1
 748 256 l 1,50,-1
 748 271 l 2,51,52
 748 291 748 291 734 305 c 128,-1,53
 720 319 720 319 701 320 c 1,54,-1
 531 320 l 1,55,-1
 531 31 l 1,56,-1
 695 31 l 1,57,58
 803 32 803 32 848 139 c 1,59,-1
 858 139 l 1,60,-1
 802 0 l 1,0,-1
466 350 m 1,61,-1
 466 598 l 1,62,-1
 319 350 l 1,63,-1
 466 350 l 1,61,-1
EndSplineSet
EndChar

StartChar: Ccedilla
Encoding: 199 199 135
Width: 760
GlyphClass: 2
Flags: W
LayerCount: 2
Fore
SplineSet
394 -57 m 1,0,1
 425 -46 425 -46 450 -53 c 0,2,3
 499 -66 499 -66 499 -114 c 128,-1,4
 499 -162 499 -162 455 -183 c 0,5,6
 430 -195 430 -195 405.5 -195 c 128,-1,7
 381 -195 381 -195 358 -188 c 1,8,-1
 359 -178 l 1,9,10
 395 -178 395 -178 422 -163 c 128,-1,11
 449 -148 449 -148 449 -117 c 0,12,13
 449 -73 449 -73 398 -73 c 0,14,15
 382 -73 382 -73 365 -81 c 1,16,-1
 360 -71 l 1,17,-1
 404 -14 l 1,18,19
 251 -9 251 -9 155.5 90.5 c 128,-1,20
 60 190 60 190 60 352 c 128,-1,21
 60 514 60 514 159.5 614 c 128,-1,22
 259 714 259 714 423 714 c 0,23,24
 557 714 557 714 660 646 c 1,25,-1
 680 505 l 1,26,-1
 671 505 l 1,27,28
 649 591 649 591 582 637.5 c 128,-1,29
 515 684 515 684 423 684 c 0,30,31
 292 684 292 684 213.5 593 c 128,-1,32
 135 502 135 502 135 352 c 128,-1,33
 135 202 135 202 212.5 110.5 c 128,-1,34
 290 19 290 19 417 16 c 1,35,36
 529 16 529 16 604 77 c 0,37,38
 685 143 685 143 702 292 c 1,39,-1
 710 292 l 1,40,-1
 698 135 l 1,41,42
 611 -8 611 -8 432 -14 c 1,43,-1
 394 -57 l 1,0,1
EndSplineSet
EndChar

StartChar: Egrave
Encoding: 200 200 136
Width: 577
GlyphClass: 2
Flags: W
LayerCount: 2
Fore
SplineSet
305 771 m 1,0,-1
 298 764 l 1,1,2
 218 802 218 802 137 849 c 1,3,4
 152 877 152 877 178 902 c 1,5,6
 242 841 242 841 305 771 c 1,0,-1
73 10 m 2,7,8
 99 10 99 10 117.5 28.5 c 128,-1,9
 136 47 136 47 137 73 c 1,10,-1
 137 633 l 1,11,12
 134 657 134 657 116 673.5 c 128,-1,13
 98 690 98 690 73 690 c 2,14,-1
 61 690 l 1,15,-1
 60 700 l 1,16,-1
 353 700 l 2,17,18
 396 700 396 700 429.5 707 c 128,-1,19
 463 714 463 714 472 718 c 1,20,-1
 472 592 l 1,21,-1
 462 592 l 1,22,-1
 462 610 l 2,23,24
 462 634 462 634 445.5 651 c 128,-1,25
 429 668 429 668 406 669 c 1,26,-1
 202 669 l 1,27,-1
 202 360 l 1,28,-1
 371 360 l 1,29,30
 391 361 391 361 405 375 c 128,-1,31
 419 389 419 389 419 410 c 2,32,-1
 419 424 l 1,33,-1
 429 424 l 1,34,-1
 429 266 l 1,35,-1
 419 266 l 1,36,-1
 419 281 l 2,37,38
 419 301 419 301 405.5 315 c 128,-1,39
 392 329 392 329 372 330 c 1,40,-1
 202 330 l 1,41,-1
 202 31 l 1,42,-1
 345 31 l 2,43,44
 419 31 419 31 458 64 c 128,-1,45
 497 97 497 97 523 162 c 1,46,-1
 533 162 l 1,47,-1
 475 0 l 1,48,-1
 60 0 l 1,49,-1
 60 10 l 1,50,-1
 73 10 l 2,7,8
EndSplineSet
EndChar

StartChar: Eacute
Encoding: 201 201 137
Width: 577
GlyphClass: 2
Flags: W
LayerCount: 2
Fore
SplineSet
298 764 m 1,0,-1
 291 771 l 1,1,2
 367 853 367 853 418 902 c 1,3,4
 445 875 445 875 459 849 c 1,5,6
 395 812 395 812 298 764 c 1,0,-1
73 10 m 2,7,8
 99 10 99 10 117.5 28.5 c 128,-1,9
 136 47 136 47 137 73 c 1,10,-1
 137 633 l 1,11,12
 134 657 134 657 116 673.5 c 128,-1,13
 98 690 98 690 73 690 c 2,14,-1
 61 690 l 1,15,-1
 60 700 l 1,16,-1
 353 700 l 2,17,18
 396 700 396 700 429.5 707 c 128,-1,19
 463 714 463 714 472 718 c 1,20,-1
 472 592 l 1,21,-1
 462 592 l 1,22,-1
 462 610 l 2,23,24
 462 634 462 634 445.5 651 c 128,-1,25
 429 668 429 668 406 669 c 1,26,-1
 202 669 l 1,27,-1
 202 360 l 1,28,-1
 371 360 l 1,29,30
 391 361 391 361 405 375 c 128,-1,31
 419 389 419 389 419 410 c 2,32,-1
 419 424 l 1,33,-1
 429 424 l 1,34,-1
 429 266 l 1,35,-1
 419 266 l 1,36,-1
 419 281 l 2,37,38
 419 301 419 301 405.5 315 c 128,-1,39
 392 329 392 329 372 330 c 1,40,-1
 202 330 l 1,41,-1
 202 31 l 1,42,-1
 345 31 l 2,43,44
 419 31 419 31 458 64 c 128,-1,45
 497 97 497 97 523 162 c 1,46,-1
 533 162 l 1,47,-1
 475 0 l 1,48,-1
 60 0 l 1,49,-1
 60 10 l 1,50,-1
 73 10 l 2,7,8
EndSplineSet
EndChar

StartChar: Ecircumflex
Encoding: 202 202 138
Width: 577
GlyphClass: 2
Flags: W
LayerCount: 2
Fore
SplineSet
293 890 m 1,0,-1
 303 890 l 1,1,-1
 417 771 l 1,2,-1
 411 763 l 1,3,-1
 298 829 l 1,4,-1
 193 763 l 1,5,-1
 187 771 l 1,6,-1
 293 890 l 1,0,-1
73 10 m 2,7,8
 99 10 99 10 117.5 28.5 c 128,-1,9
 136 47 136 47 137 73 c 1,10,-1
 137 633 l 1,11,12
 133 666 133 666 104 683 c 1,13,14
 90 690 90 690 73 690 c 2,15,-1
 61 690 l 1,16,-1
 60 700 l 1,17,-1
 353 700 l 2,18,19
 396 700 396 700 429.5 707 c 128,-1,20
 463 714 463 714 472 718 c 1,21,-1
 472 592 l 1,22,-1
 462 592 l 1,23,-1
 462 610 l 2,24,25
 462 634 462 634 445.5 651 c 128,-1,26
 429 668 429 668 406 669 c 1,27,-1
 202 669 l 1,28,-1
 202 360 l 1,29,-1
 371 360 l 1,30,31
 391 361 391 361 405 375 c 128,-1,32
 419 389 419 389 419 410 c 2,33,-1
 419 424 l 1,34,-1
 429 424 l 1,35,-1
 429 266 l 1,36,-1
 419 266 l 1,37,-1
 419 281 l 2,38,39
 419 301 419 301 405.5 315 c 128,-1,40
 392 329 392 329 372 330 c 1,41,-1
 202 330 l 1,42,-1
 202 31 l 1,43,-1
 345 31 l 2,44,45
 419 31 419 31 458 64 c 128,-1,46
 497 97 497 97 523 162 c 1,47,-1
 533 162 l 1,48,-1
 475 0 l 1,49,-1
 60 0 l 1,50,-1
 60 10 l 1,51,-1
 73 10 l 2,7,8
EndSplineSet
EndChar

StartChar: Edieresis
Encoding: 203 203 139
Width: 577
GlyphClass: 2
Flags: W
LayerCount: 2
Fore
SplineSet
204 764 m 128,-1,1
 188 764 188 764 176.5 775.5 c 128,-1,2
 165 787 165 787 165 803 c 128,-1,3
 165 819 165 819 176.5 830.5 c 128,-1,4
 188 842 188 842 204 842 c 128,-1,5
 220 842 220 842 231.5 830.5 c 128,-1,6
 243 819 243 819 243 803 c 128,-1,7
 243 787 243 787 231.5 775.5 c 128,-1,0
 220 764 220 764 204 764 c 128,-1,1
392.5 764 m 128,-1,9
 376 764 376 764 364.5 775.5 c 128,-1,10
 353 787 353 787 353 803 c 128,-1,11
 353 819 353 819 364.5 830.5 c 128,-1,12
 376 842 376 842 392.5 842 c 128,-1,13
 409 842 409 842 420.5 830.5 c 128,-1,14
 432 819 432 819 432 803 c 128,-1,15
 432 787 432 787 420.5 775.5 c 128,-1,8
 409 764 409 764 392.5 764 c 128,-1,9
73 10 m 2,16,17
 99 10 99 10 117.5 28.5 c 128,-1,18
 136 47 136 47 137 73 c 1,19,-1
 137 633 l 1,20,21
 133 666 133 666 104 683 c 1,22,23
 89 690 89 690 73 690 c 2,24,-1
 61 690 l 1,25,-1
 60 700 l 1,26,-1
 353 700 l 2,27,28
 396 700 396 700 429.5 707 c 128,-1,29
 463 714 463 714 472 718 c 1,30,-1
 472 592 l 1,31,-1
 462 592 l 1,32,-1
 462 610 l 2,33,34
 462 634 462 634 445.5 651 c 128,-1,35
 429 668 429 668 406 669 c 1,36,-1
 202 669 l 1,37,-1
 202 360 l 1,38,-1
 371 360 l 1,39,40
 391 361 391 361 405 375 c 128,-1,41
 419 389 419 389 419 410 c 2,42,-1
 419 424 l 1,43,-1
 429 424 l 1,44,-1
 429 266 l 1,45,-1
 419 266 l 1,46,-1
 419 281 l 2,47,48
 419 312 419 312 390 326 c 0,49,50
 382 330 382 330 372 330 c 2,51,-1
 202 330 l 1,52,-1
 202 31 l 1,53,-1
 345 31 l 2,54,55
 419 31 419 31 458 64 c 128,-1,56
 497 97 497 97 523 162 c 1,57,-1
 533 162 l 1,58,-1
 475 0 l 1,59,-1
 60 0 l 1,60,-1
 60 10 l 1,61,-1
 73 10 l 2,16,17
EndSplineSet
EndChar

StartChar: Igrave
Encoding: 204 204 140
Width: 338
GlyphClass: 2
Flags: W
LayerCount: 2
Fore
SplineSet
176 771 m 1,0,-1
 169 764 l 1,1,2
 89 802 89 802 8 849 c 1,3,4
 23 877 23 877 49 902 c 1,5,6
 113 841 113 841 176 771 c 1,0,-1
73 10 m 2,7,8
 99 10 99 10 117.5 28.5 c 128,-1,9
 136 47 136 47 137 73 c 1,10,-1
 137 628 l 1,11,12
 136 654 136 654 117.5 672 c 128,-1,13
 99 690 99 690 73 690 c 2,14,-1
 60 690 l 1,15,-1
 60 700 l 1,16,-1
 279 700 l 1,17,-1
 279 690 l 1,18,-1
 266 690 l 2,19,20
 240 690 240 690 221.5 672 c 128,-1,21
 203 654 203 654 202 628 c 1,22,-1
 202 73 l 2,23,24
 202 47 202 47 221 28.5 c 128,-1,25
 240 10 240 10 266 10 c 2,26,-1
 279 10 l 1,27,-1
 279 0 l 1,28,-1
 60 0 l 1,29,-1
 60 10 l 1,30,-1
 73 10 l 2,7,8
EndSplineSet
EndChar

StartChar: Iacute
Encoding: 205 205 141
Width: 338
GlyphClass: 2
Flags: W
LayerCount: 2
Fore
SplineSet
169 764 m 1,0,-1
 162 771 l 1,1,2
 238 853 238 853 289 902 c 1,3,4
 316 875 316 875 330 849 c 1,5,6
 266 812 266 812 169 764 c 1,0,-1
73 10 m 2,7,8
 99 10 99 10 117.5 28.5 c 128,-1,9
 136 47 136 47 137 73 c 1,10,-1
 137 628 l 1,11,12
 136 654 136 654 117.5 672 c 128,-1,13
 99 690 99 690 73 690 c 2,14,-1
 60 690 l 1,15,-1
 60 700 l 1,16,-1
 279 700 l 1,17,-1
 279 690 l 1,18,-1
 266 690 l 2,19,20
 240 690 240 690 221.5 672 c 128,-1,21
 203 654 203 654 202 628 c 1,22,-1
 202 73 l 2,23,24
 202 47 202 47 221 28.5 c 128,-1,25
 240 10 240 10 266 10 c 2,26,-1
 279 10 l 1,27,-1
 279 0 l 1,28,-1
 60 0 l 1,29,-1
 60 10 l 1,30,-1
 73 10 l 2,7,8
EndSplineSet
EndChar

StartChar: Icircumflex
Encoding: 206 206 142
Width: 338
GlyphClass: 2
Flags: W
LayerCount: 2
Fore
SplineSet
164 890 m 1,0,-1
 174 890 l 1,1,-1
 288 771 l 1,2,-1
 282 763 l 1,3,-1
 169 829 l 1,4,-1
 64 763 l 1,5,-1
 58 771 l 1,6,-1
 164 890 l 1,0,-1
73 10 m 2,7,8
 99 10 99 10 117.5 28.5 c 128,-1,9
 136 47 136 47 137 73 c 1,10,-1
 137 628 l 1,11,12
 136 654 136 654 117.5 672 c 128,-1,13
 99 690 99 690 73 690 c 2,14,-1
 60 690 l 1,15,-1
 60 700 l 1,16,-1
 279 700 l 1,17,-1
 279 690 l 1,18,-1
 266 690 l 2,19,20
 240 690 240 690 221.5 672 c 128,-1,21
 203 654 203 654 202 628 c 1,22,-1
 202 73 l 2,23,24
 202 47 202 47 221 28.5 c 128,-1,25
 240 10 240 10 266 10 c 2,26,-1
 279 10 l 1,27,-1
 279 0 l 1,28,-1
 60 0 l 1,29,-1
 60 10 l 1,30,-1
 73 10 l 2,7,8
EndSplineSet
EndChar

StartChar: Idieresis
Encoding: 207 207 143
Width: 338
GlyphClass: 2
Flags: W
LayerCount: 2
Fore
SplineSet
75 764 m 128,-1,1
 59 764 59 764 47.5 775.5 c 128,-1,2
 36 787 36 787 36 803 c 128,-1,3
 36 819 36 819 47.5 830.5 c 128,-1,4
 59 842 59 842 75 842 c 128,-1,5
 91 842 91 842 102.5 830.5 c 128,-1,6
 114 819 114 819 114 803 c 128,-1,7
 114 787 114 787 102.5 775.5 c 128,-1,0
 91 764 91 764 75 764 c 128,-1,1
263.5 764 m 128,-1,9
 247 764 247 764 235.5 775.5 c 128,-1,10
 224 787 224 787 224 803 c 128,-1,11
 224 819 224 819 235.5 830.5 c 128,-1,12
 247 842 247 842 263.5 842 c 128,-1,13
 280 842 280 842 291.5 830.5 c 128,-1,14
 303 819 303 819 303 803 c 128,-1,15
 303 787 303 787 291.5 775.5 c 128,-1,8
 280 764 280 764 263.5 764 c 128,-1,9
73 10 m 2,16,17
 99 10 99 10 117.5 28.5 c 128,-1,18
 136 47 136 47 137 73 c 1,19,-1
 137 628 l 1,20,21
 136 654 136 654 117.5 672 c 128,-1,22
 99 690 99 690 73 690 c 2,23,-1
 60 690 l 1,24,-1
 60 700 l 1,25,-1
 279 700 l 1,26,-1
 279 690 l 1,27,-1
 266 690 l 2,28,29
 240 690 240 690 221.5 672 c 128,-1,30
 203 654 203 654 202 628 c 1,31,-1
 202 73 l 2,32,33
 202 47 202 47 221 28.5 c 128,-1,34
 240 10 240 10 266 10 c 2,35,-1
 279 10 l 1,36,-1
 279 0 l 1,37,-1
 60 0 l 1,38,-1
 60 10 l 1,39,-1
 73 10 l 2,16,17
EndSplineSet
EndChar

StartChar: Eth
Encoding: 208 208 144
Width: 807
GlyphClass: 2
Flags: W
LayerCount: 2
Fore
SplineSet
660.5 603.5 m 128,-1,1
 758 507 758 507 758 349.5 c 128,-1,2
 758 192 758 192 660.5 96 c 128,-1,3
 563 0 563 0 403 0 c 2,4,-1
 65 0 l 1,5,-1
 65 10 l 1,6,-1
 78 10 l 2,7,8
 104 10 104 10 122.5 28.5 c 128,-1,9
 141 47 141 47 142 73 c 1,10,-1
 142 335 l 1,11,-1
 60 335 l 1,12,-1
 60 365 l 1,13,-1
 142 365 l 1,14,-1
 142 633 l 2,15,16
 142 657 142 657 122.5 673.5 c 128,-1,17
 103 690 103 690 78 690 c 2,18,-1
 65 690 l 1,19,-1
 65 700 l 1,20,-1
 403 700 l 2,21,0
 563 700 563 700 660.5 603.5 c 128,-1,1
207 335 m 1,22,-1
 207 30 l 1,23,-1
 403 30 l 2,24,25
 531 30 531 30 609.5 118 c 128,-1,26
 688 206 688 206 688 350 c 128,-1,27
 688 494 688 494 609.5 582 c 128,-1,28
 531 670 531 670 403 670 c 2,29,-1
 207 670 l 1,30,-1
 207 365 l 1,31,-1
 370 365 l 1,32,-1
 370 335 l 1,33,-1
 207 335 l 1,22,-1
EndSplineSet
EndChar

StartChar: Ntilde
Encoding: 209 209 145
Width: 841
GlyphClass: 2
Flags: W
LayerCount: 2
Fore
SplineSet
496 809 m 0,0,1
 538 809 538 809 552 843 c 1,2,-1
 562 843 l 1,3,4
 556 793 556 793 527 773 c 0,5,6
 513 764 513 764 493 764 c 128,-1,7
 473 764 473 764 431.5 786 c 128,-1,8
 390 808 390 808 376 808 c 0,9,10
 338 808 338 808 321 767 c 1,11,-1
 311 767 l 1,12,13
 317 806 317 806 334 829 c 128,-1,14
 351 852 351 852 375.5 852 c 128,-1,15
 400 852 400 852 440 830.5 c 128,-1,16
 480 809 480 809 496 809 c 0,0,1
778 690 m 2,17,18
 753 690 753 690 735 672.5 c 128,-1,19
 717 655 717 655 716 630 c 1,20,-1
 716 114 l 2,21,22
 716 56 716 56 723 4 c 1,23,-1
 725 -14 l 1,24,-1
 716 -14 l 1,25,-1
 171 568 l 1,26,-1
 171 70 l 1,27,28
 172 35 172 35 202 18 c 0,29,30
 216 10 216 10 232 10 c 2,31,-1
 251 10 l 1,32,-1
 251 0 l 1,33,-1
 45 0 l 1,34,-1
 45 10 l 1,35,-1
 64 10 l 2,36,37
 89 10 89 10 107 27.5 c 128,-1,38
 125 45 125 45 125 71 c 2,39,-1
 125 590 l 2,40,41
 125 651 125 651 118 699 c 2,42,-1
 116 715 l 1,43,-1
 126 715 l 1,44,-1
 671 133 l 1,45,-1
 671 629 l 1,46,47
 670 655 670 655 652 672.5 c 128,-1,48
 634 690 634 690 609 690 c 2,49,-1
 590 690 l 1,50,-1
 590 700 l 1,51,-1
 796 700 l 1,52,-1
 796 690 l 1,53,-1
 778 690 l 2,17,18
EndSplineSet
EndChar

StartChar: Ograve
Encoding: 210 210 146
Width: 838
GlyphClass: 2
Flags: W
LayerCount: 2
Fore
SplineSet
426 771 m 1,0,-1
 419 764 l 1,1,2
 339 802 339 802 258 849 c 1,3,4
 273 877 273 877 299 902 c 1,5,6
 363 841 363 841 426 771 c 1,0,-1
419 714 m 128,-1,8
 579 714 579 714 679 613.5 c 128,-1,9
 779 513 779 513 779 350 c 128,-1,10
 779 187 779 187 679 86.5 c 128,-1,11
 579 -14 579 -14 419 -14 c 128,-1,12
 259 -14 259 -14 159.5 86.5 c 128,-1,13
 60 187 60 187 60 350 c 128,-1,14
 60 513 60 513 159.5 613.5 c 128,-1,7
 259 714 259 714 419 714 c 128,-1,8
419.5 16 m 128,-1,16
 547 16 547 16 624.5 108 c 128,-1,17
 702 200 702 200 702 350 c 0,18,19
 702 449 702 449 667 525 c 128,-1,20
 632 601 632 601 567.5 642.5 c 128,-1,21
 503 684 503 684 419 684 c 0,22,23
 292 684 292 684 214.5 592 c 128,-1,24
 137 500 137 500 137 350 c 128,-1,25
 137 200 137 200 214.5 108 c 128,-1,15
 292 16 292 16 419.5 16 c 128,-1,16
EndSplineSet
EndChar

StartChar: Oacute
Encoding: 211 211 147
Width: 838
GlyphClass: 2
Flags: W
LayerCount: 2
Fore
SplineSet
429 764 m 1,0,-1
 422 771 l 1,1,2
 498 853 498 853 549 902 c 1,3,4
 576 875 576 875 590 849 c 1,5,6
 525 812 525 812 429 764 c 1,0,-1
429 714 m 128,-1,8
 589 714 589 714 689 613.5 c 128,-1,9
 789 513 789 513 789 350 c 128,-1,10
 789 187 789 187 689 86.5 c 128,-1,11
 589 -14 589 -14 429 -14 c 128,-1,12
 269 -14 269 -14 169.5 86.5 c 128,-1,13
 70 187 70 187 70 350 c 128,-1,14
 70 513 70 513 169.5 613.5 c 128,-1,7
 269 714 269 714 429 714 c 128,-1,8
429.5 16 m 128,-1,16
 557 16 557 16 634.5 108 c 128,-1,17
 712 200 712 200 712 350 c 0,18,19
 712 449 712 449 677 525 c 128,-1,20
 642 601 642 601 577.5 642.5 c 128,-1,21
 513 684 513 684 429 684 c 0,22,23
 302 684 302 684 224.5 592 c 128,-1,24
 147 500 147 500 147 350 c 128,-1,25
 147 200 147 200 224.5 108 c 128,-1,15
 302 16 302 16 429.5 16 c 128,-1,16
EndSplineSet
EndChar

StartChar: Ocircumflex
Encoding: 212 212 148
Width: 838
GlyphClass: 2
Flags: W
LayerCount: 2
Fore
SplineSet
424 890 m 1,0,-1
 434 890 l 1,1,-1
 548 771 l 1,2,-1
 542 763 l 1,3,-1
 428 829 l 1,4,-1
 324 763 l 1,5,-1
 318 771 l 1,6,-1
 424 890 l 1,0,-1
429 714 m 128,-1,8
 589 714 589 714 689 613.5 c 128,-1,9
 789 513 789 513 789 350 c 128,-1,10
 789 187 789 187 689 86.5 c 128,-1,11
 589 -14 589 -14 429 -14 c 128,-1,12
 269 -14 269 -14 169.5 86.5 c 128,-1,13
 70 187 70 187 70 350 c 128,-1,14
 70 513 70 513 169.5 613.5 c 128,-1,7
 269 714 269 714 429 714 c 128,-1,8
429.5 16 m 128,-1,16
 557 16 557 16 634.5 108 c 128,-1,17
 712 200 712 200 712 350 c 0,18,19
 712 449 712 449 677 525 c 128,-1,20
 642 601 642 601 577.5 642.5 c 128,-1,21
 513 684 513 684 429 684 c 0,22,23
 302 684 302 684 224.5 592 c 128,-1,24
 147 500 147 500 147 350 c 128,-1,25
 147 200 147 200 224.5 108 c 128,-1,15
 302 16 302 16 429.5 16 c 128,-1,16
EndSplineSet
EndChar

StartChar: Otilde
Encoding: 213 213 149
Width: 838
GlyphClass: 2
Flags: W
LayerCount: 2
Fore
SplineSet
499 809 m 0,0,1
 541 809 541 809 555 843 c 1,2,-1
 565 843 l 1,3,4
 559 793 559 793 530 773 c 0,5,6
 517 764 517 764 496.5 764 c 128,-1,7
 476 764 476 764 435 786 c 128,-1,8
 394 808 394 808 379 808 c 0,9,10
 341 808 341 808 325 767 c 1,11,-1
 315 767 l 1,12,13
 320 806 320 806 337.5 829 c 128,-1,14
 355 852 355 852 379 852 c 128,-1,15
 403 852 403 852 443 830.5 c 128,-1,16
 483 809 483 809 499 809 c 0,0,1
429 714 m 128,-1,18
 589 714 589 714 689 613.5 c 128,-1,19
 789 513 789 513 789 350 c 128,-1,20
 789 187 789 187 689 86.5 c 128,-1,21
 589 -14 589 -14 429 -14 c 128,-1,22
 269 -14 269 -14 169.5 86.5 c 128,-1,23
 70 187 70 187 70 350 c 128,-1,24
 70 513 70 513 169.5 613.5 c 128,-1,17
 269 714 269 714 429 714 c 128,-1,18
429.5 16 m 128,-1,26
 557 16 557 16 634.5 108 c 128,-1,27
 712 200 712 200 712 350 c 0,28,29
 712 449 712 449 677 525 c 128,-1,30
 642 601 642 601 577.5 642.5 c 128,-1,31
 513 684 513 684 429 684 c 0,32,33
 302 684 302 684 224.5 592 c 128,-1,34
 147 500 147 500 147 350 c 128,-1,35
 147 200 147 200 224.5 108 c 128,-1,25
 302 16 302 16 429.5 16 c 128,-1,26
EndSplineSet
EndChar

StartChar: Odieresis
Encoding: 214 214 150
Width: 838
GlyphClass: 2
Flags: W
LayerCount: 2
Fore
SplineSet
335 764 m 128,-1,1
 319 764 319 764 307.5 775.5 c 128,-1,2
 296 787 296 787 296 803 c 128,-1,3
 296 819 296 819 307.5 830.5 c 128,-1,4
 319 842 319 842 335 842 c 128,-1,5
 351 842 351 842 362.5 830.5 c 128,-1,6
 374 819 374 819 374 803 c 128,-1,7
 374 787 374 787 362.5 775.5 c 128,-1,0
 351 764 351 764 335 764 c 128,-1,1
523 764 m 128,-1,9
 507 764 507 764 495.5 775.5 c 128,-1,10
 484 787 484 787 484 803 c 128,-1,11
 484 819 484 819 495.5 830.5 c 128,-1,12
 507 842 507 842 523 842 c 128,-1,13
 539 842 539 842 550.5 830.5 c 128,-1,14
 562 819 562 819 562 803 c 128,-1,15
 562 787 562 787 550.5 775.5 c 128,-1,8
 539 764 539 764 523 764 c 128,-1,9
429 714 m 128,-1,17
 589 714 589 714 689 613.5 c 128,-1,18
 789 513 789 513 789 350 c 128,-1,19
 789 187 789 187 689 86.5 c 128,-1,20
 589 -14 589 -14 429 -14 c 128,-1,21
 269 -14 269 -14 169.5 86.5 c 128,-1,22
 70 187 70 187 70 350 c 128,-1,23
 70 513 70 513 169.5 613.5 c 128,-1,16
 269 714 269 714 429 714 c 128,-1,17
429.5 16 m 128,-1,25
 557 16 557 16 634.5 108 c 128,-1,26
 712 200 712 200 712 350 c 0,27,28
 712 449 712 449 677 525 c 128,-1,29
 642 601 642 601 577.5 642.5 c 128,-1,30
 513 684 513 684 429 684 c 0,31,32
 302 684 302 684 224.5 592 c 128,-1,33
 147 500 147 500 147 350 c 128,-1,34
 147 200 147 200 224.5 108 c 128,-1,24
 302 16 302 16 429.5 16 c 128,-1,25
EndSplineSet
EndChar

StartChar: multiply
Encoding: 215 215 151
Width: 415
GlyphClass: 2
Flags: W
LayerCount: 2
Fore
SplineSet
366 436 m 1,0,-1
 240 310 l 1,1,-1
 366 184 l 1,2,-1
 334 152 l 1,3,-1
 208 278 l 1,4,-1
 82 152 l 1,5,-1
 50 184 l 1,6,-1
 176 310 l 1,7,-1
 50 436 l 1,8,-1
 82 468 l 1,9,-1
 208 342 l 1,10,-1
 334 468 l 1,11,-1
 366 436 l 1,0,-1
EndSplineSet
EndChar

StartChar: Oslash
Encoding: 216 216 152
Width: 828
GlyphClass: 2
Flags: W
LayerCount: 2
Fore
SplineSet
769 350 m 0,0,1
 769 242 769 242 725 159 c 128,-1,2
 681 76 681 76 600.5 31 c 128,-1,3
 520 -14 520 -14 414 -14 c 0,4,5
 282 -14 282 -14 190 57 c 1,6,-1
 123 -23 l 1,7,-1
 98 -1 l 1,8,-1
 164 79 l 1,9,10
 60 180 60 180 60 350 c 0,11,12
 60 431 60 431 85.5 499 c 128,-1,13
 111 567 111 567 157 614 c 128,-1,14
 203 661 203 661 269.5 687.5 c 128,-1,15
 336 714 336 714 414 714 c 0,16,17
 544 714 544 714 635 646 c 1,18,-1
 699 722 l 1,19,-1
 725 700 l 1,20,-1
 661 624 l 1,21,22
 769 523 769 523 769 350 c 0,0,1
605 608 m 1,23,24
 529 684 529 684 408 684 c 128,-1,25
 287 684 287 684 209.5 592 c 128,-1,26
 132 500 132 500 132 355.5 c 128,-1,27
 132 211 132 211 199 121 c 1,28,-1
 605 608 l 1,23,24
221 95 m 1,29,30
 297 16 297 16 419.5 16 c 128,-1,31
 542 16 542 16 619.5 108 c 128,-1,32
 697 200 697 200 697 346 c 128,-1,33
 697 492 697 492 627 583 c 1,34,-1
 221 95 l 1,29,30
EndSplineSet
EndChar

StartChar: Ugrave
Encoding: 217 217 153
Width: 785
GlyphClass: 2
Flags: W
LayerCount: 2
Fore
SplineSet
409 771 m 1,0,-1
 402 764 l 1,1,2
 321 802 321 802 241 849 c 1,3,4
 255 877 255 877 282 902 c 1,5,6
 345 841 345 841 409 771 c 1,0,-1
735 690 m 1,7,-1
 719 690 l 2,8,9
 698 690 698 690 682.5 676.5 c 128,-1,10
 667 663 667 663 666 643 c 1,11,-1
 666 247 l 2,12,13
 666 130 666 130 592 58 c 128,-1,14
 518 -14 518 -14 395 -14 c 128,-1,15
 272 -14 272 -14 195.5 57.5 c 128,-1,16
 119 129 119 129 119 246 c 2,17,-1
 119 640 l 2,18,19
 119 670 119 670 93 684 c 0,20,21
 81 690 81 690 66 690 c 2,22,-1
 50 690 l 1,23,-1
 50 700 l 1,24,-1
 253 700 l 1,25,-1
 253 690 l 1,26,-1
 237 690 l 2,27,28
 215 690 215 690 200 676.5 c 128,-1,29
 185 663 185 663 184 642 c 1,30,-1
 184 260 l 2,31,32
 184 151 184 151 242.5 84 c 128,-1,33
 301 17 301 17 399 17 c 128,-1,34
 497 17 497 17 558 80.5 c 128,-1,35
 619 144 619 144 619 247 c 2,36,-1
 619 642 l 1,37,38
 618 663 618 663 603 676.5 c 128,-1,39
 588 690 588 690 566 690 c 2,40,-1
 550 690 l 1,41,-1
 550 700 l 1,42,-1
 735 700 l 1,43,-1
 735 690 l 1,7,-1
EndSplineSet
EndChar

StartChar: Uacute
Encoding: 218 218 154
Width: 785
GlyphClass: 2
Flags: W
LayerCount: 2
Fore
SplineSet
402 764 m 1,0,-1
 395 771 l 1,1,2
 471 853 471 853 522 902 c 1,3,4
 548 875 548 875 562 849 c 1,5,6
 498 812 498 812 402 764 c 1,0,-1
735 690 m 1,7,-1
 719 690 l 2,8,9
 698 690 698 690 682.5 676.5 c 128,-1,10
 667 663 667 663 666 643 c 1,11,-1
 666 247 l 2,12,13
 666 130 666 130 592 58 c 128,-1,14
 518 -14 518 -14 395 -14 c 128,-1,15
 272 -14 272 -14 195.5 57.5 c 128,-1,16
 119 129 119 129 119 246 c 2,17,-1
 119 641 l 2,18,19
 119 662 119 662 103.5 676 c 128,-1,20
 88 690 88 690 66 690 c 2,21,-1
 50 690 l 1,22,-1
 50 700 l 1,23,-1
 253 700 l 1,24,-1
 253 690 l 1,25,-1
 237 690 l 2,26,27
 207 690 207 690 192 667 c 0,28,29
 185 656 185 656 184 642 c 1,30,-1
 184 260 l 2,31,32
 184 151 184 151 242.5 84 c 128,-1,33
 301 17 301 17 396 17 c 0,34,35
 497 17 497 17 558 80.5 c 128,-1,36
 619 144 619 144 619 247 c 2,37,-1
 619 642 l 1,38,39
 618 675 618 675 587 686 c 0,40,41
 577 690 577 690 566 690 c 2,42,-1
 550 690 l 1,43,-1
 550 700 l 1,44,-1
 735 700 l 1,45,-1
 735 690 l 1,7,-1
EndSplineSet
EndChar

StartChar: Ucircumflex
Encoding: 219 219 155
Width: 785
GlyphClass: 2
Flags: W
LayerCount: 2
Fore
SplineSet
396 890 m 1,0,-1
 406 890 l 1,1,-1
 521 771 l 1,2,-1
 515 763 l 1,3,-1
 401 829 l 1,4,-1
 296 763 l 1,5,-1
 290 771 l 1,6,-1
 396 890 l 1,0,-1
735 690 m 1,7,-1
 719 690 l 2,8,9
 698 690 698 690 682.5 676.5 c 128,-1,10
 667 663 667 663 666 643 c 1,11,-1
 666 247 l 2,12,13
 666 130 666 130 592 58 c 128,-1,14
 518 -14 518 -14 395 -14 c 128,-1,15
 272 -14 272 -14 195.5 57.5 c 128,-1,16
 119 129 119 129 119 246 c 2,17,-1
 119 640 l 2,18,19
 119 662 119 662 103.5 676 c 128,-1,20
 88 690 88 690 66 690 c 2,21,-1
 50 690 l 1,22,-1
 50 700 l 1,23,-1
 253 700 l 1,24,-1
 253 690 l 1,25,-1
 237 690 l 2,26,27
 215 690 215 690 200 676.5 c 128,-1,28
 185 663 185 663 184 642 c 1,29,-1
 184 260 l 2,30,31
 184 151 184 151 242.5 84 c 128,-1,32
 301 17 301 17 399 17 c 128,-1,33
 497 17 497 17 558 80.5 c 128,-1,34
 619 144 619 144 619 247 c 2,35,-1
 619 642 l 1,36,37
 618 675 618 675 587 686 c 0,38,39
 577 690 577 690 566 690 c 2,40,-1
 550 690 l 1,41,-1
 550 700 l 1,42,-1
 735 700 l 1,43,-1
 735 690 l 1,7,-1
EndSplineSet
EndChar

StartChar: Udieresis
Encoding: 220 220 156
Width: 785
GlyphClass: 2
Flags: W
LayerCount: 2
Fore
SplineSet
307.5 764 m 128,-1,1
 291 764 291 764 279.5 775.5 c 128,-1,2
 268 787 268 787 268 803 c 128,-1,3
 268 819 268 819 279.5 830.5 c 128,-1,4
 291 842 291 842 307.5 842 c 128,-1,5
 324 842 324 842 335.5 830.5 c 128,-1,6
 347 819 347 819 347 803 c 128,-1,7
 347 787 347 787 335.5 775.5 c 128,-1,0
 324 764 324 764 307.5 764 c 128,-1,1
496 764 m 128,-1,9
 480 764 480 764 468.5 775.5 c 128,-1,10
 457 787 457 787 457 803 c 128,-1,11
 457 819 457 819 468.5 830.5 c 128,-1,12
 480 842 480 842 496 842 c 128,-1,13
 512 842 512 842 523.5 830.5 c 128,-1,14
 535 819 535 819 535 803 c 128,-1,15
 535 787 535 787 523.5 775.5 c 128,-1,8
 512 764 512 764 496 764 c 128,-1,9
735 690 m 1,16,-1
 719 690 l 2,17,18
 698 690 698 690 682.5 676.5 c 128,-1,19
 667 663 667 663 666 643 c 1,20,-1
 666 247 l 2,21,22
 666 130 666 130 592 58 c 128,-1,23
 518 -14 518 -14 395 -14 c 128,-1,24
 272 -14 272 -14 195.5 57.5 c 128,-1,25
 119 129 119 129 119 246 c 2,26,-1
 119 640 l 2,27,28
 119 670 119 670 93 684 c 0,29,30
 81 690 81 690 66 690 c 2,31,-1
 50 690 l 1,32,-1
 50 700 l 1,33,-1
 253 700 l 1,34,-1
 253 690 l 1,35,-1
 237 690 l 2,36,37
 207 690 207 690 192 667 c 0,38,39
 185 656 185 656 184 642 c 1,40,-1
 184 260 l 2,41,42
 184 151 184 151 242.5 84 c 128,-1,43
 301 17 301 17 396 17 c 0,44,45
 497 17 497 17 558 80.5 c 128,-1,46
 619 144 619 144 619 247 c 2,47,-1
 619 642 l 1,48,49
 618 675 618 675 587 686 c 0,50,51
 577 690 577 690 566 690 c 2,52,-1
 550 690 l 1,53,-1
 550 700 l 1,54,-1
 735 700 l 1,55,-1
 735 690 l 1,16,-1
EndSplineSet
EndChar

StartChar: Yacute
Encoding: 221 221 157
Width: 661
GlyphClass: 2
Flags: W
LayerCount: 2
Fore
SplineSet
340 764 m 1,0,-1
 333 771 l 1,1,2
 409 853 409 853 460 902 c 1,3,4
 487 875 487 875 501 849 c 1,5,6
 437 812 437 812 340 764 c 1,0,-1
672 690 m 1,7,-1
 658 690 l 2,8,9
 628 690 628 690 601.5 673.5 c 128,-1,10
 575 657 575 657 557 632 c 1,11,-1
 360 312 l 1,12,-1
 360 73 l 2,13,14
 360 47 360 47 378.5 28.5 c 128,-1,15
 397 10 397 10 424 10 c 2,16,-1
 436 10 l 1,17,-1
 436 0 l 1,18,-1
 218 0 l 1,19,-1
 218 10 l 1,20,-1
 231 10 l 2,21,22
 257 10 257 10 275.5 28 c 128,-1,23
 294 46 294 46 295 72 c 1,24,-1
 295 313 l 1,25,-1
 104 632 l 2,26,27
 89 656 89 656 61.5 673 c 128,-1,28
 34 690 34 690 4 690 c 2,29,-1
 -10 690 l 1,30,-1
 -10 700 l 1,31,-1
 236 700 l 1,32,-1
 236 690 l 1,33,-1
 223 690 l 2,34,35
 201 690 201 690 189 670 c 0,36,37
 183 659 183 659 183 648.5 c 128,-1,38
 183 638 183 638 188 628 c 2,39,-1
 338 348 l 1,40,-1
 498 629 l 2,41,42
 503 639 503 639 503 649 c 128,-1,43
 503 659 503 659 496 670 c 0,44,45
 483 690 483 690 462 690 c 2,46,-1
 450 690 l 1,47,-1
 450 700 l 1,48,-1
 672 700 l 1,49,-1
 672 690 l 1,7,-1
EndSplineSet
EndChar

StartChar: Thorn
Encoding: 222 222 158
Width: 554
GlyphClass: 2
Flags: W
LayerCount: 2
Fore
SplineSet
505 354.5 m 128,-1,1
 505 310 505 310 487 273 c 1,2,3
 455 202 455 202 374 174 c 0,4,5
 345 164 345 164 325 164 c 0,6,7
 263 164 263 164 219 187 c 1,8,-1
 219 197 l 1,9,10
 291 181 291 181 354 213 c 0,11,12
 408 240 408 240 428 305 c 0,13,14
 435 325 435 325 435 342.5 c 128,-1,15
 435 360 435 360 435 365 c 0,16,17
 433 435 433 435 398 476.5 c 128,-1,18
 363 518 363 518 300 518 c 2,19,-1
 185 518 l 1,20,-1
 185 73 l 2,21,22
 185 36 185 36 217 18 c 0,23,24
 231 10 231 10 249 10 c 2,25,-1
 261 10 l 1,26,-1
 261 0 l 1,27,-1
 43 0 l 1,28,-1
 43 10 l 1,29,-1
 55 10 l 2,30,31
 82 10 82 10 100.5 28.5 c 128,-1,32
 119 47 119 47 120 73 c 1,33,-1
 120 628 l 1,34,35
 119 654 119 654 100.5 672 c 128,-1,36
 82 690 82 690 56 690 c 2,37,-1
 43 690 l 1,38,-1
 43 700 l 1,39,-1
 261 700 l 1,40,-1
 261 690 l 1,41,-1
 249 690 l 2,42,43
 223 690 223 690 204 672 c 128,-1,44
 185 654 185 654 185 628 c 2,45,-1
 185 548 l 1,46,-1
 304 548 l 2,47,48
 451 548 451 548 492 435 c 0,49,0
 505 399 505 399 505 354.5 c 128,-1,1
EndSplineSet
EndChar

StartChar: germandbls
Encoding: 223 223 159
Width: 924
GlyphClass: 2
Flags: W
LayerCount: 2
Fore
SplineSet
58 33 m 1,0,1
 55 45 55 45 55 82 c 128,-1,2
 55 119 55 119 68 157 c 1,3,-1
 80 157 l 1,4,5
 79 148 79 148 79 139 c 0,6,7
 79 85 79 85 114.5 50.5 c 128,-1,8
 150 16 150 16 213 16 c 0,9,10
 279 16 279 16 316 46.5 c 128,-1,11
 353 77 353 77 353 125.5 c 128,-1,12
 353 174 353 174 317 206 c 1,13,-1
 117 360 l 1,14,15
 69 401 69 401 69 470 c 0,16,17
 69 509 69 509 90.5 542 c 128,-1,18
 112 575 112 575 150.5 594.5 c 128,-1,19
 189 614 189 614 241 614 c 128,-1,20
 293 614 293 614 333 605 c 1,21,-1
 366 605 l 1,22,-1
 368 496 l 1,23,-1
 357 496 l 1,24,25
 357 538 357 538 328 561 c 128,-1,26
 299 584 299 584 245 584 c 128,-1,27
 191 584 191 584 156 556.5 c 128,-1,28
 121 529 121 529 121 485.5 c 128,-1,29
 121 442 121 442 160 410 c 1,30,-1
 362 254 l 1,31,32
 408 216 408 216 408 148 c 128,-1,33
 408 80 408 80 356.5 33 c 128,-1,34
 305 -14 305 -14 231 -14 c 0,35,36
 182 -14 182 -14 133 -2 c 128,-1,37
 84 10 84 10 58 33 c 1,0,1
520 33 m 1,38,39
 517 45 517 45 517 82 c 128,-1,40
 517 119 517 119 530 157 c 1,41,-1
 542 157 l 1,42,43
 541 148 541 148 541 139 c 0,44,45
 541 85 541 85 576.5 50.5 c 128,-1,46
 612 16 612 16 675 16 c 0,47,48
 741 16 741 16 778 46.5 c 128,-1,49
 815 77 815 77 815 125.5 c 128,-1,50
 815 174 815 174 779 206 c 1,51,-1
 579 360 l 1,52,53
 531 401 531 401 531 470 c 0,54,55
 531 509 531 509 552.5 542 c 128,-1,56
 574 575 574 575 612.5 594.5 c 128,-1,57
 651 614 651 614 703 614 c 128,-1,58
 755 614 755 614 795 605 c 1,59,-1
 828 605 l 1,60,-1
 830 496 l 1,61,-1
 819 496 l 1,62,63
 819 538 819 538 790 561 c 128,-1,64
 761 584 761 584 707 584 c 128,-1,65
 653 584 653 584 618 556.5 c 128,-1,66
 583 529 583 529 583 485.5 c 128,-1,67
 583 442 583 442 622 410 c 1,68,-1
 825 254 l 1,69,70
 870 216 870 216 870 148 c 128,-1,71
 870 80 870 80 818.5 33 c 128,-1,72
 767 -14 767 -14 693 -14 c 0,73,74
 644 -14 644 -14 595 -2 c 128,-1,75
 546 10 546 10 520 33 c 1,38,39
EndSplineSet
EndChar

StartChar: agrave
Encoding: 224 224 160
Width: 663
GlyphClass: 2
Flags: W
LayerCount: 2
Fore
SplineSet
339 671 m 1,0,-1
 332 664 l 1,1,2
 252 702 252 702 171 749 c 1,3,4
 186 777 186 777 212 802 c 1,5,6
 276 741 276 741 339 671 c 1,0,-1
660 10 m 2,7,-1
 668 10 l 1,8,-1
 668 0 l 1,9,-1
 463 0 l 1,10,-1
 463 10 l 1,11,-1
 471 10 l 2,12,13
 490 10 490 10 500 23 c 128,-1,14
 510 36 510 36 510 47.5 c 128,-1,15
 510 59 510 59 506 70 c 2,16,-1
 451 203 l 1,17,-1
 198 203 l 1,18,-1
 143 73 l 2,19,20
 138 60 138 60 138 48.5 c 128,-1,21
 138 37 138 37 148 23.5 c 128,-1,22
 158 10 158 10 178 10 c 2,23,-1
 186 10 l 1,24,-1
 186 0 l 1,25,-1
 -5 0 l 1,26,-1
 -5 10 l 1,27,-1
 3 10 l 2,28,29
 24 10 24 10 45.5 24.5 c 128,-1,30
 67 39 67 39 81 68 c 0,31,32
 288 511 288 511 306.5 551 c 128,-1,33
 325 591 325 591 327 614 c 1,34,-1
 336 614 l 1,35,-1
 583 68 l 1,36,37
 612 10 612 10 660 10 c 2,7,-1
211 233 m 1,38,-1
 439 233 l 1,39,-1
 327 507 l 1,40,-1
 211 233 l 1,38,-1
EndSplineSet
EndChar

StartChar: aacute
Encoding: 225 225 161
Width: 663
GlyphClass: 2
Flags: W
LayerCount: 2
Fore
SplineSet
332 664 m 1,0,-1
 325 671 l 1,1,2
 401 753 401 753 452 802 c 1,3,4
 479 775 479 775 493 749 c 1,5,6
 429 712 429 712 332 664 c 1,0,-1
660 10 m 2,7,-1
 668 10 l 1,8,-1
 668 0 l 1,9,-1
 463 0 l 1,10,-1
 463 10 l 1,11,-1
 471 10 l 2,12,13
 490 10 490 10 500 23 c 128,-1,14
 510 36 510 36 510 47.5 c 128,-1,15
 510 59 510 59 506 70 c 2,16,-1
 451 203 l 1,17,-1
 198 203 l 1,18,-1
 143 73 l 2,19,20
 138 60 138 60 138 48.5 c 128,-1,21
 138 37 138 37 148 23.5 c 128,-1,22
 158 10 158 10 178 10 c 2,23,-1
 186 10 l 1,24,-1
 186 0 l 1,25,-1
 -5 0 l 1,26,-1
 -5 10 l 1,27,-1
 3 10 l 2,28,29
 24 10 24 10 45.5 24.5 c 128,-1,30
 67 39 67 39 81 68 c 0,31,32
 300 536 300 536 309 558 c 0,33,34
 326 600 326 600 327 614 c 1,35,-1
 336 614 l 1,36,-1
 583 68 l 1,37,38
 612 10 612 10 660 10 c 2,7,-1
211 233 m 1,39,-1
 439 233 l 1,40,-1
 327 507 l 1,41,-1
 211 233 l 1,39,-1
EndSplineSet
EndChar

StartChar: acircumflex
Encoding: 226 226 162
Width: 663
GlyphClass: 2
Flags: W
LayerCount: 2
Fore
SplineSet
327 790 m 1,0,-1
 337 790 l 1,1,-1
 451 671 l 1,2,-1
 445 663 l 1,3,-1
 331 729 l 1,4,-1
 227 663 l 1,5,-1
 221 671 l 1,6,-1
 327 790 l 1,0,-1
660 10 m 2,7,-1
 668 10 l 1,8,-1
 668 0 l 1,9,-1
 463 0 l 1,10,-1
 463 10 l 1,11,-1
 471 10 l 2,12,13
 490 10 490 10 500 23 c 128,-1,14
 510 36 510 36 510 47.5 c 128,-1,15
 510 59 510 59 506 70 c 2,16,-1
 451 203 l 1,17,-1
 198 203 l 1,18,-1
 143 73 l 1,19,20
 139 60 139 60 139 52 c 128,-1,21
 139 44 139 44 142 34.5 c 128,-1,22
 145 25 145 25 155 17.5 c 128,-1,23
 165 10 165 10 178 10 c 2,24,-1
 186 10 l 1,25,-1
 186 0 l 1,26,-1
 -5 0 l 1,27,-1
 -5 10 l 1,28,-1
 3 10 l 2,29,30
 24 10 24 10 45.5 24.5 c 128,-1,31
 67 39 67 39 81 68 c 0,32,33
 300 536 300 536 309 558 c 0,34,35
 326 600 326 600 327 614 c 1,36,-1
 336 614 l 1,37,-1
 583 68 l 1,38,39
 612 10 612 10 660 10 c 2,7,-1
211 233 m 1,40,-1
 439 233 l 1,41,-1
 327 507 l 1,42,-1
 211 233 l 1,40,-1
EndSplineSet
EndChar

StartChar: atilde
Encoding: 227 227 163
Width: 663
GlyphClass: 2
Flags: W
LayerCount: 2
Fore
SplineSet
402 709 m 0,0,1
 444 709 444 709 458 743 c 1,2,-1
 468 743 l 1,3,4
 462 693 462 693 433 673 c 0,5,6
 420 664 420 664 400 664 c 128,-1,7
 380 664 380 664 338.5 686 c 128,-1,8
 297 708 297 708 282 708 c 0,9,10
 244 708 244 708 228 667 c 1,11,12
 228 667 228 667 218 667 c 1,13,14
 225 721 225 721 253 742 c 0,15,16
 266 752 266 752 286 752 c 128,-1,17
 306 752 306 752 346.5 730.5 c 128,-1,18
 387 709 387 709 402 709 c 0,0,1
660 10 m 2,19,-1
 668 10 l 1,20,-1
 668 0 l 1,21,-1
 463 0 l 1,22,-1
 463 10 l 1,23,-1
 471 10 l 2,24,25
 490 10 490 10 500 23 c 128,-1,26
 510 36 510 36 510 47.5 c 128,-1,27
 510 59 510 59 506 70 c 2,28,-1
 451 203 l 1,29,-1
 198 203 l 1,30,-1
 143 73 l 1,31,32
 139 60 139 60 139 52 c 128,-1,33
 139 44 139 44 142 34.5 c 128,-1,34
 145 25 145 25 155 17.5 c 128,-1,35
 165 10 165 10 178 10 c 2,36,-1
 186 10 l 1,37,-1
 186 0 l 1,38,-1
 -5 0 l 1,39,-1
 -5 10 l 1,40,-1
 3 10 l 2,41,42
 24 10 24 10 45.5 24.5 c 128,-1,43
 67 39 67 39 81 68 c 0,44,45
 300 536 300 536 309 558 c 0,46,47
 326 600 326 600 327 614 c 1,48,-1
 336 614 l 1,49,-1
 583 68 l 1,50,51
 612 10 612 10 660 10 c 2,19,-1
211 233 m 1,52,-1
 439 233 l 1,53,-1
 327 507 l 1,54,-1
 211 233 l 1,52,-1
EndSplineSet
EndChar

StartChar: adieresis
Encoding: 228 228 164
Width: 663
GlyphClass: 2
Flags: W
LayerCount: 2
Fore
SplineSet
238 664 m 128,-1,1
 222 664 222 664 210.5 675.5 c 128,-1,2
 199 687 199 687 199 703 c 128,-1,3
 199 719 199 719 210.5 730.5 c 128,-1,4
 222 742 222 742 238 742 c 128,-1,5
 254 742 254 742 265.5 730.5 c 128,-1,6
 277 719 277 719 277 703 c 128,-1,7
 277 687 277 687 265.5 675.5 c 128,-1,0
 254 664 254 664 238 664 c 128,-1,1
426 664 m 128,-1,9
 410 664 410 664 398.5 675.5 c 128,-1,10
 387 687 387 687 387 703 c 128,-1,11
 387 719 387 719 398.5 730.5 c 128,-1,12
 410 742 410 742 426 742 c 128,-1,13
 442 742 442 742 453.5 730.5 c 128,-1,14
 465 719 465 719 465 703 c 128,-1,15
 465 687 465 687 453.5 675.5 c 128,-1,8
 442 664 442 664 426 664 c 128,-1,9
660 10 m 2,16,-1
 668 10 l 1,17,-1
 668 0 l 1,18,-1
 463 0 l 1,19,-1
 463 10 l 1,20,-1
 471 10 l 2,21,22
 490 10 490 10 500 23 c 128,-1,23
 510 36 510 36 510 47.5 c 128,-1,24
 510 59 510 59 506 70 c 2,25,-1
 451 203 l 1,26,-1
 198 203 l 1,27,-1
 143 73 l 2,28,29
 138 60 138 60 138 48.5 c 128,-1,30
 138 37 138 37 148 23.5 c 128,-1,31
 158 10 158 10 178 10 c 2,32,-1
 186 10 l 1,33,-1
 186 0 l 1,34,-1
 -5 0 l 1,35,-1
 -5 10 l 1,36,-1
 3 10 l 2,37,38
 24 10 24 10 45.5 24.5 c 128,-1,39
 67 39 67 39 81 68 c 0,40,41
 300 536 300 536 309 558 c 0,42,43
 326 600 326 600 327 614 c 1,44,-1
 336 614 l 1,45,-1
 583 68 l 1,46,47
 612 10 612 10 660 10 c 2,16,-1
211 233 m 1,48,-1
 439 233 l 1,49,-1
 327 507 l 1,50,-1
 211 233 l 1,48,-1
EndSplineSet
EndChar

StartChar: aring
Encoding: 229 229 165
Width: 663
GlyphClass: 2
Flags: W
LayerCount: 2
Fore
SplineSet
399.5 794 m 128,-1,1
 426 774 426 774 426 746 c 128,-1,2
 426 718 426 718 414 701 c 0,3,4
 388 664 388 664 340 664 c 128,-1,5
 292 664 292 664 265.5 685.5 c 128,-1,6
 239 707 239 707 239 739.5 c 128,-1,7
 239 772 239 772 265.5 793 c 128,-1,8
 292 814 292 814 332.5 814 c 128,-1,0
 373 814 373 814 399.5 794 c 128,-1,1
332.5 797 m 128,-1,10
 311 797 311 797 297 781.5 c 128,-1,11
 283 766 283 766 283 739 c 128,-1,12
 283 712 283 712 297 697 c 128,-1,13
 311 682 311 682 332.5 682 c 128,-1,14
 354 682 354 682 367.5 697 c 128,-1,15
 381 712 381 712 381 739 c 128,-1,16
 381 766 381 766 367.5 781.5 c 128,-1,9
 354 797 354 797 332.5 797 c 128,-1,10
660 10 m 2,17,-1
 668 10 l 1,18,-1
 668 0 l 1,19,-1
 463 0 l 1,20,-1
 463 10 l 1,21,-1
 471 10 l 2,22,23
 490 10 490 10 500 23 c 128,-1,24
 510 36 510 36 510 47.5 c 128,-1,25
 510 59 510 59 506 70 c 2,26,-1
 451 203 l 1,27,-1
 198 203 l 1,28,-1
 143 73 l 2,29,30
 138 60 138 60 138 48.5 c 128,-1,31
 138 37 138 37 148 23.5 c 128,-1,32
 158 10 158 10 178 10 c 2,33,-1
 186 10 l 1,34,-1
 186 0 l 1,35,-1
 -5 0 l 1,36,-1
 -5 10 l 1,37,-1
 3 10 l 2,38,39
 24 10 24 10 45.5 24.5 c 128,-1,40
 67 39 67 39 81 68 c 0,41,42
 288 511 288 511 306.5 551 c 128,-1,43
 325 591 325 591 327 614 c 1,44,-1
 336 614 l 1,45,-1
 583 68 l 1,46,47
 612 10 612 10 660 10 c 2,17,-1
211 233 m 1,48,-1
 439 233 l 1,49,-1
 327 507 l 1,50,-1
 211 233 l 1,48,-1
EndSplineSet
EndChar

StartChar: ae
Encoding: 230 230 166
Width: 834
GlyphClass: 2
Flags: W
LayerCount: 2
Fore
SplineSet
390 10 m 2,0,1
 408 10 408 10 420 21.5 c 128,-1,2
 432 33 432 33 433 50 c 1,3,-1
 433 271 l 1,4,-1
 280 271 l 1,5,-1
 140 51 l 1,6,7
 132 27 132 27 147 16 c 0,8,9
 155 10 155 10 166 10 c 2,10,-1
 174 10 l 1,11,-1
 174 0 l 1,12,-1
 -5 0 l 1,13,-1
 -5 10 l 1,14,-1
 1 10 l 2,15,16
 22 10 22 10 44.5 25 c 128,-1,17
 67 40 67 40 81 61 c 1,18,-1
 82 61 l 1,19,-1
 431 562 l 1,20,21
 436 573 436 573 430 582.5 c 128,-1,22
 424 592 424 592 412 592 c 2,23,-1
 409 592 l 1,24,-1
 409 600 l 1,25,-1
 648 600 l 2,26,27
 689 600 689 600 716.5 607 c 128,-1,28
 744 614 744 614 750 616 c 1,29,-1
 750 513 l 1,30,-1
 740 513 l 1,31,-1
 740 526 l 2,32,33
 740 543 740 543 728 555.5 c 128,-1,34
 716 568 716 568 698 568 c 2,35,-1
 498 568 l 1,36,-1
 498 302 l 1,37,-1
 663 302 l 2,38,39
 681 302 681 302 693 314.5 c 128,-1,40
 705 327 705 327 705 344 c 2,41,-1
 705 357 l 1,42,-1
 715 357 l 1,43,-1
 715 219 l 1,44,-1
 705 219 l 1,45,-1
 705 229 l 2,46,47
 705 252 705 252 685 265 c 0,48,49
 676 271 676 271 664 271 c 2,50,-1
 498 271 l 1,51,-1
 498 30 l 1,52,-1
 660 30 l 1,53,54
 750 31 750 31 789 124 c 1,55,-1
 800 124 l 1,56,-1
 752 0 l 1,57,-1
 382 0 l 1,58,-1
 382 10 l 1,59,-1
 390 10 l 2,0,1
433 302 m 1,60,-1
 433 511 l 1,61,-1
 300 302 l 1,62,-1
 433 302 l 1,60,-1
EndSplineSet
EndChar

StartChar: ccedilla
Encoding: 231 231 167
Width: 705
GlyphClass: 2
Flags: W
LayerCount: 2
Fore
SplineSet
356 -61 m 1,0,1
 387 -50 387 -50 412 -57 c 0,2,3
 461 -70 461 -70 461 -118 c 128,-1,4
 461 -166 461 -166 417 -187 c 0,5,6
 392 -199 392 -199 367.5 -199 c 128,-1,7
 343 -199 343 -199 320 -192 c 1,8,-1
 321 -182 l 1,9,10
 357 -182 357 -182 384 -166.5 c 128,-1,11
 411 -151 411 -151 411 -121 c 0,12,13
 411 -77 411 -77 360 -77 c 0,14,15
 344 -77 344 -77 327 -85 c 1,16,-1
 322 -75 l 1,17,-1
 369 -14 l 1,18,19
 221 -10 221 -10 135.5 74 c 128,-1,20
 50 158 50 158 50 302 c 128,-1,21
 50 446 50 446 138.5 530 c 128,-1,22
 227 614 227 614 380 614 c 0,23,24
 442 614 442 614 505 598 c 128,-1,25
 568 582 568 582 614 554 c 1,26,-1
 636 412 l 1,27,-1
 627 412 l 1,28,29
 584 584 584 584 379 584 c 0,30,31
 260 584 260 584 191 508 c 128,-1,32
 122 432 122 432 122 300 c 0,33,34
 122 214 122 214 153 150.5 c 128,-1,35
 184 87 184 87 243 52 c 256,36,37
 302 17 302 17 380 17 c 128,-1,38
 458 17 458 17 516.5 40.5 c 128,-1,39
 575 64 575 64 613.5 118 c 128,-1,40
 652 172 652 172 657 252 c 1,41,-1
 666 252 l 1,42,-1
 655 115 l 1,43,44
 618 58 618 58 549 24 c 128,-1,45
 480 -10 480 -10 396 -14 c 1,46,-1
 356 -61 l 1,0,1
EndSplineSet
EndChar

StartChar: egrave
Encoding: 232 232 168
Width: 546
GlyphClass: 2
Flags: W
LayerCount: 2
Fore
SplineSet
304 671 m 1,0,-1
 297 664 l 1,1,2
 217 702 217 702 136 749 c 1,3,4
 151 777 151 777 177 802 c 1,5,6
 240 741 240 741 304 671 c 1,0,-1
69 10 m 2,7,8
 93 10 93 10 109.5 25.5 c 128,-1,9
 126 41 126 41 127 63 c 1,10,-1
 127 538 l 2,11,12
 127 560 127 560 110 575 c 128,-1,13
 93 590 93 590 69 590 c 2,14,-1
 55 590 l 1,15,-1
 55 600 l 1,16,-1
 347 600 l 2,17,18
 376 600 376 600 410.5 605 c 128,-1,19
 445 610 445 610 459 616 c 1,20,-1
 459 502 l 1,21,-1
 448 503 l 1,22,-1
 448 518 l 2,23,24
 448 548 448 548 424 562 c 0,25,26
 413 569 413 569 398 569 c 2,27,-1
 190 569 l 1,28,-1
 190 315 l 1,29,-1
 361 315 l 1,30,31
 388 316 388 316 398 336 c 0,32,33
 402 346 402 346 402 357 c 2,34,-1
 402 370 l 1,35,-1
 413 370 l 1,36,-1
 413 230 l 1,37,-1
 402 230 l 1,38,-1
 402 243 l 2,39,40
 402 260 402 260 392 272 c 128,-1,41
 382 284 382 284 364 285 c 1,42,-1
 190 285 l 1,43,-1
 190 31 l 1,44,-1
 347 31 l 2,45,46
 393 31 393 31 424.5 47 c 128,-1,47
 456 63 456 63 472.5 85 c 128,-1,48
 489 107 489 107 506 143 c 1,49,-1
 516 143 l 1,50,-1
 461 0 l 1,51,-1
 55 0 l 1,52,-1
 55 10 l 1,53,-1
 69 10 l 2,7,8
EndSplineSet
EndChar

StartChar: eacute
Encoding: 233 233 169
Width: 546
GlyphClass: 2
Flags: W
LayerCount: 2
Fore
SplineSet
297 664 m 1,0,-1
 290 671 l 1,1,2
 366 753 366 753 417 802 c 1,3,4
 444 775 444 775 458 749 c 1,5,6
 393 712 393 712 297 664 c 1,0,-1
69 10 m 2,7,8
 93 10 93 10 109.5 25.5 c 128,-1,9
 126 41 126 41 127 63 c 1,10,-1
 127 538 l 2,11,12
 127 560 127 560 110 575 c 128,-1,13
 93 590 93 590 69 590 c 2,14,-1
 55 590 l 1,15,-1
 55 600 l 1,16,-1
 347 600 l 2,17,18
 376 600 376 600 410.5 605 c 128,-1,19
 445 610 445 610 459 616 c 1,20,-1
 459 503 l 1,21,-1
 448 503 l 1,22,-1
 448 518 l 2,23,24
 448 548 448 548 424 562 c 0,25,26
 413 569 413 569 398 569 c 2,27,-1
 190 569 l 1,28,-1
 190 315 l 1,29,-1
 361 315 l 1,30,31
 388 316 388 316 398 336 c 0,32,33
 402 346 402 346 402 357 c 2,34,-1
 402 370 l 1,35,-1
 413 370 l 1,36,-1
 413 230 l 1,37,-1
 402 230 l 1,38,-1
 402 243 l 2,39,40
 402 260 402 260 392 272 c 128,-1,41
 382 284 382 284 364 285 c 1,42,-1
 190 285 l 1,43,-1
 190 31 l 1,44,-1
 347 31 l 2,45,46
 393 31 393 31 424.5 47 c 128,-1,47
 456 63 456 63 472.5 85 c 128,-1,48
 489 107 489 107 506 143 c 1,49,-1
 516 143 l 1,50,-1
 461 0 l 1,51,-1
 55 0 l 1,52,-1
 55 10 l 1,53,-1
 69 10 l 2,7,8
EndSplineSet
EndChar

StartChar: ecircumflex
Encoding: 234 234 170
Width: 546
GlyphClass: 2
Flags: W
LayerCount: 2
Fore
SplineSet
292 790 m 1,0,-1
 302 790 l 1,1,-1
 416 671 l 1,2,-1
 410 663 l 1,3,-1
 296 729 l 1,4,-1
 192 663 l 1,5,-1
 186 671 l 1,6,-1
 292 790 l 1,0,-1
69 10 m 2,7,8
 93 10 93 10 109.5 25.5 c 128,-1,9
 126 41 126 41 127 63 c 1,10,-1
 127 538 l 2,11,12
 127 560 127 560 110 575 c 128,-1,13
 93 590 93 590 69 590 c 2,14,-1
 55 590 l 1,15,-1
 55 600 l 1,16,-1
 347 600 l 2,17,18
 376 600 376 600 410.5 605 c 128,-1,19
 445 610 445 610 459 616 c 1,20,-1
 459 503 l 1,21,-1
 448 503 l 1,22,-1
 448 518 l 2,23,24
 448 548 448 548 424 562 c 0,25,26
 413 569 413 569 398 569 c 2,27,-1
 191 569 l 1,28,-1
 191 315 l 1,29,-1
 361 315 l 1,30,31
 388 316 388 316 398 336 c 0,32,33
 402 346 402 346 402 357 c 2,34,-1
 402 370 l 1,35,-1
 413 370 l 1,36,-1
 413 230 l 1,37,-1
 402 230 l 1,38,-1
 402 243 l 2,39,40
 402 260 402 260 392 272 c 128,-1,41
 382 284 382 284 364 285 c 1,42,-1
 191 285 l 1,43,-1
 191 31 l 1,44,-1
 347 31 l 2,45,46
 413 31 413 31 447 59.5 c 128,-1,47
 481 88 481 88 506 143 c 1,48,-1
 516 143 l 1,49,-1
 461 0 l 1,50,-1
 55 0 l 1,51,-1
 55 10 l 1,52,-1
 69 10 l 2,7,8
EndSplineSet
EndChar

StartChar: edieresis
Encoding: 235 235 171
Width: 546
GlyphClass: 2
Flags: W
LayerCount: 2
Fore
SplineSet
203 664 m 128,-1,1
 187 664 187 664 175.5 675.5 c 128,-1,2
 164 687 164 687 164 703 c 128,-1,3
 164 719 164 719 175.5 730.5 c 128,-1,4
 187 742 187 742 203 742 c 128,-1,5
 219 742 219 742 230.5 730.5 c 128,-1,6
 242 719 242 719 242 703 c 128,-1,7
 242 687 242 687 230.5 675.5 c 128,-1,0
 219 664 219 664 203 664 c 128,-1,1
391 664 m 128,-1,9
 375 664 375 664 363.5 675.5 c 128,-1,10
 352 687 352 687 352 703 c 128,-1,11
 352 719 352 719 363.5 730.5 c 128,-1,12
 375 742 375 742 391 742 c 128,-1,13
 407 742 407 742 418.5 730.5 c 128,-1,14
 430 719 430 719 430 703 c 128,-1,15
 430 687 430 687 418.5 675.5 c 128,-1,8
 407 664 407 664 391 664 c 128,-1,9
69 10 m 2,16,17
 93 10 93 10 109.5 25.5 c 128,-1,18
 126 41 126 41 127 63 c 1,19,-1
 127 538 l 2,20,21
 127 560 127 560 110 575 c 128,-1,22
 93 590 93 590 69 590 c 2,23,-1
 55 590 l 1,24,-1
 55 600 l 1,25,-1
 347 600 l 2,26,27
 376 600 376 600 410.5 605 c 128,-1,28
 445 610 445 610 459 616 c 1,29,-1
 459 502 l 1,30,-1
 448 503 l 1,31,-1
 448 518 l 2,32,33
 448 539 448 539 434 554 c 128,-1,34
 420 569 420 569 398 569 c 2,35,-1
 190 569 l 1,36,-1
 190 315 l 1,37,-1
 361 315 l 1,38,39
 388 316 388 316 398 336 c 0,40,41
 402 346 402 346 402 357 c 2,42,-1
 402 370 l 1,43,-1
 413 370 l 1,44,-1
 413 230 l 1,45,-1
 402 230 l 1,46,-1
 402 243 l 2,47,48
 402 260 402 260 392 272 c 128,-1,49
 382 284 382 284 364 285 c 1,50,-1
 190 285 l 1,51,-1
 190 31 l 1,52,-1
 347 31 l 2,53,54
 393 31 393 31 424.5 47 c 128,-1,55
 456 63 456 63 472.5 85 c 128,-1,56
 489 107 489 107 506 143 c 1,57,-1
 516 143 l 1,58,-1
 461 0 l 1,59,-1
 55 0 l 1,60,-1
 55 10 l 1,61,-1
 69 10 l 2,16,17
EndSplineSet
EndChar

StartChar: igrave
Encoding: 236 236 172
Width: 306
GlyphClass: 2
Flags: W
LayerCount: 2
Fore
SplineSet
161 671 m 1,0,-1
 154 664 l 1,1,2
 72 702 72 702 -7 749 c 1,3,4
 7 777 7 777 34 802 c 1,5,6
 97 741 97 741 161 671 c 1,0,-1
66 10 m 2,7,8
 89 10 89 10 105 26 c 128,-1,9
 121 42 121 42 121 64 c 2,10,-1
 121 536 l 2,11,12
 121 567 121 567 93 583 c 0,13,14
 81 590 81 590 66 590 c 2,15,-1
 55 590 l 1,16,-1
 55 600 l 1,17,-1
 252 600 l 1,18,-1
 251 590 l 1,19,-1
 240 590 l 2,20,21
 218 590 218 590 202 574.5 c 128,-1,22
 186 559 186 559 185 537 c 1,23,-1
 185 63 l 1,24,25
 186 41 186 41 202 25.5 c 128,-1,26
 218 10 218 10 241 10 c 2,27,-1
 251 10 l 1,28,-1
 252 0 l 1,29,-1
 55 0 l 1,30,-1
 55 10 l 1,31,-1
 66 10 l 2,7,8
EndSplineSet
EndChar

StartChar: iacute
Encoding: 237 237 173
Width: 306
GlyphClass: 2
Flags: W
LayerCount: 2
Fore
SplineSet
154 664 m 1,0,-1
 147 671 l 1,1,2
 223 753 223 753 273 802 c 1,3,4
 300 775 300 775 314 749 c 1,5,6
 250 712 250 712 154 664 c 1,0,-1
66 10 m 2,7,8
 89 10 89 10 105 26 c 128,-1,9
 121 42 121 42 121 64 c 2,10,-1
 121 536 l 2,11,12
 121 558 121 558 105 574 c 128,-1,13
 89 590 89 590 66 590 c 2,14,-1
 55 590 l 1,15,-1
 55 600 l 1,16,-1
 252 600 l 1,17,-1
 251 590 l 1,18,-1
 241 590 l 2,19,20
 218 590 218 590 202 574.5 c 128,-1,21
 186 559 186 559 185 537 c 1,22,-1
 185 63 l 1,23,24
 186 41 186 41 202 25.5 c 128,-1,25
 218 10 218 10 241 10 c 2,26,-1
 251 10 l 1,27,-1
 252 0 l 1,28,-1
 55 0 l 1,29,-1
 55 10 l 1,30,-1
 66 10 l 2,7,8
EndSplineSet
EndChar

StartChar: icircumflex
Encoding: 238 238 174
Width: 306
GlyphClass: 2
Flags: W
LayerCount: 2
Fore
SplineSet
148 790 m 1,0,-1
 158 790 l 1,1,-1
 273 671 l 1,2,-1
 267 663 l 1,3,-1
 153 729 l 1,4,-1
 48 663 l 1,5,-1
 42 671 l 1,6,-1
 148 790 l 1,0,-1
66 10 m 2,7,8
 89 10 89 10 105 26 c 128,-1,9
 121 42 121 42 121 64 c 2,10,-1
 121 536 l 2,11,12
 121 567 121 567 93 583 c 0,13,14
 81 590 81 590 66 590 c 2,15,-1
 55 590 l 1,16,-1
 55 600 l 1,17,-1
 252 600 l 1,18,-1
 251 590 l 1,19,-1
 241 590 l 2,20,21
 218 590 218 590 202 574.5 c 128,-1,22
 186 559 186 559 185 537 c 1,23,-1
 185 63 l 1,24,25
 186 41 186 41 202 25.5 c 128,-1,26
 218 10 218 10 241 10 c 2,27,-1
 251 10 l 1,28,-1
 252 0 l 1,29,-1
 55 0 l 1,30,-1
 55 10 l 1,31,-1
 66 10 l 2,7,8
EndSplineSet
EndChar

StartChar: idieresis
Encoding: 239 239 175
Width: 306
GlyphClass: 2
Flags: W
LayerCount: 2
Fore
SplineSet
59.5 664 m 128,-1,1
 43 664 43 664 31.5 675.5 c 128,-1,2
 20 687 20 687 20 703 c 128,-1,3
 20 719 20 719 31.5 730.5 c 128,-1,4
 43 742 43 742 59.5 742 c 128,-1,5
 76 742 76 742 87 730.5 c 128,-1,6
 98 719 98 719 98 703 c 128,-1,7
 98 687 98 687 87 675.5 c 128,-1,0
 76 664 76 664 59.5 664 c 128,-1,1
248 664 m 128,-1,9
 232 664 232 664 220.5 675.5 c 128,-1,10
 209 687 209 687 209 703 c 128,-1,11
 209 719 209 719 220.5 730.5 c 128,-1,12
 232 742 232 742 248 742 c 128,-1,13
 264 742 264 742 275.5 730.5 c 128,-1,14
 287 719 287 719 287 703 c 128,-1,15
 287 687 287 687 275.5 675.5 c 128,-1,8
 264 664 264 664 248 664 c 128,-1,9
66 10 m 2,16,17
 89 10 89 10 105 26 c 128,-1,18
 121 42 121 42 121 64 c 2,19,-1
 121 536 l 2,20,21
 121 567 121 567 93 583 c 0,22,23
 81 590 81 590 66 590 c 2,24,-1
 55 590 l 1,25,-1
 55 600 l 1,26,-1
 252 600 l 1,27,-1
 251 590 l 1,28,-1
 240 590 l 2,29,30
 218 590 218 590 202 574.5 c 128,-1,31
 186 559 186 559 185 537 c 1,32,-1
 185 63 l 1,33,34
 186 32 186 32 213 17 c 0,35,36
 226 10 226 10 241 10 c 2,37,-1
 251 10 l 1,38,-1
 252 0 l 1,39,-1
 55 0 l 1,40,-1
 55 10 l 1,41,-1
 66 10 l 2,16,17
EndSplineSet
EndChar

StartChar: eth
Encoding: 240 240 176
Width: 760
GlyphClass: 2
Flags: W
LayerCount: 2
Fore
SplineSet
710 300 m 0,0,1
 710 161 710 161 623.5 80.5 c 128,-1,2
 537 0 537 0 389 0 c 2,3,-1
 55 0 l 1,4,-1
 55 10 l 1,5,-1
 68 10 l 2,6,7
 92 10 92 10 108 26 c 128,-1,8
 124 42 124 42 125 64 c 1,9,-1
 125 285 l 1,10,-1
 62 285 l 1,11,-1
 62 315 l 1,12,-1
 125 315 l 1,13,-1
 125 536 l 1,14,15
 124 560 124 560 107.5 575 c 128,-1,16
 91 590 91 590 67 590 c 2,17,-1
 55 590 l 1,18,-1
 55 600 l 1,19,-1
 389 600 l 2,20,21
 487 600 487 600 559.5 564 c 128,-1,22
 632 528 632 528 671 460 c 128,-1,23
 710 392 710 392 710 300 c 0,0,1
190 285 m 1,24,-1
 190 30 l 1,25,-1
 389 30 l 2,26,27
 504 30 504 30 571 102 c 128,-1,28
 638 174 638 174 638 300 c 0,29,30
 638 425 638 425 571 497.5 c 128,-1,31
 504 570 504 570 389 570 c 2,32,-1
 190 570 l 1,33,-1
 190 315 l 1,34,-1
 347 315 l 1,35,-1
 347 285 l 1,36,-1
 190 285 l 1,24,-1
EndSplineSet
EndChar

StartChar: ntilde
Encoding: 241 241 177
Width: 779
GlyphClass: 2
Flags: W
LayerCount: 2
Fore
SplineSet
458 709 m 0,0,1
 500 709 500 709 514 743 c 1,2,-1
 524 743 l 1,3,4
 519 706 519 706 501.5 685 c 128,-1,5
 484 664 484 664 459.5 664 c 128,-1,6
 435 664 435 664 394 686 c 128,-1,7
 353 708 353 708 338 708 c 0,8,9
 300 708 300 708 284 667 c 1,10,-1
 274 667 l 1,11,12
 281 721 281 721 309 742 c 0,13,14
 322 752 322 752 342 752 c 128,-1,15
 362 752 362 752 402 730.5 c 128,-1,16
 442 709 442 709 458 709 c 0,0,1
727 590 m 2,17,18
 705 590 705 590 689 575.5 c 128,-1,19
 673 561 673 561 672 540 c 1,20,-1
 672 114 l 2,21,22
 672 56 672 56 679 4 c 1,23,-1
 681 -14 l 1,24,-1
 672 -14 l 1,25,-1
 152 479 l 1,26,-1
 152 62 l 2,27,28
 152 32 152 32 180 17 c 0,29,30
 192 10 192 10 207 10 c 2,31,-1
 224 10 l 1,32,-1
 224 0 l 1,33,-1
 35 0 l 1,34,-1
 35 10 l 1,35,-1
 52 10 l 2,36,37
 75 10 75 10 91 25 c 128,-1,38
 107 40 107 40 107 62 c 2,39,-1
 107 490 l 2,40,41
 107 551 107 551 100 599 c 2,42,-1
 98 615 l 1,43,-1
 109 614 l 1,44,-1
 628 125 l 1,45,-1
 628 540 l 1,46,47
 626 561 626 561 610 575.5 c 128,-1,48
 594 590 594 590 572 590 c 2,49,-1
 555 590 l 1,50,-1
 555 600 l 1,51,-1
 744 600 l 1,52,-1
 744 590 l 1,53,-1
 727 590 l 2,17,18
EndSplineSet
EndChar

StartChar: ograve
Encoding: 242 242 178
Width: 774
GlyphClass: 2
Flags: W
LayerCount: 2
Fore
SplineSet
394 671 m 1,0,-1
 387 664 l 1,1,2
 307 702 307 702 227 749 c 1,3,4
 241 777 241 777 267 802 c 1,5,6
 331 741 331 741 394 671 c 1,0,-1
387.5 614 m 128,-1,8
 480 614 480 614 557 574.5 c 128,-1,9
 634 535 634 535 679.5 463 c 128,-1,10
 725 391 725 391 725 300 c 128,-1,11
 725 209 725 209 679.5 137 c 128,-1,12
 634 65 634 65 557 25.5 c 128,-1,13
 480 -14 480 -14 387.5 -14 c 128,-1,14
 295 -14 295 -14 218 25.5 c 128,-1,15
 141 65 141 65 95.5 137 c 128,-1,16
 50 209 50 209 50 300 c 128,-1,17
 50 391 50 391 95.5 463 c 128,-1,18
 141 535 141 535 218 574.5 c 128,-1,7
 295 614 295 614 387.5 614 c 128,-1,8
387 16 m 128,-1,20
 499 16 499 16 575 95.5 c 128,-1,21
 651 175 651 175 651 300 c 128,-1,22
 651 425 651 425 575 504.5 c 128,-1,23
 499 584 499 584 387 584 c 128,-1,24
 275 584 275 584 199.5 504.5 c 128,-1,25
 124 425 124 425 124 300 c 128,-1,26
 124 175 124 175 199.5 95.5 c 128,-1,19
 275 16 275 16 387 16 c 128,-1,20
EndSplineSet
EndChar

StartChar: oacute
Encoding: 243 243 179
Width: 774
GlyphClass: 2
Flags: W
LayerCount: 2
Fore
SplineSet
387 664 m 1,0,-1
 380 671 l 1,1,2
 457 753 457 753 507 802 c 1,3,4
 534 775 534 775 548 749 c 1,5,6
 484 712 484 712 387 664 c 1,0,-1
387.5 614 m 128,-1,8
 480 614 480 614 557 574.5 c 128,-1,9
 634 535 634 535 679.5 463 c 128,-1,10
 725 391 725 391 725 300 c 128,-1,11
 725 209 725 209 679.5 137 c 128,-1,12
 634 65 634 65 557 25.5 c 128,-1,13
 480 -14 480 -14 387.5 -14 c 128,-1,14
 295 -14 295 -14 218 25.5 c 128,-1,15
 141 65 141 65 95.5 137 c 128,-1,16
 50 209 50 209 50 300 c 128,-1,17
 50 391 50 391 95.5 463 c 128,-1,18
 141 535 141 535 218 574.5 c 128,-1,7
 295 614 295 614 387.5 614 c 128,-1,8
387 16 m 128,-1,20
 499 16 499 16 575 95.5 c 128,-1,21
 651 175 651 175 651 300 c 128,-1,22
 651 425 651 425 575 504.5 c 128,-1,23
 499 584 499 584 387 584 c 128,-1,24
 275 584 275 584 199.5 504.5 c 128,-1,25
 124 425 124 425 124 300 c 128,-1,26
 124 175 124 175 199.5 95.5 c 128,-1,19
 275 16 275 16 387 16 c 128,-1,20
EndSplineSet
EndChar

StartChar: ocircumflex
Encoding: 244 244 180
Width: 774
GlyphClass: 2
Flags: W
LayerCount: 2
Fore
SplineSet
382 790 m 1,0,-1
 392 790 l 1,1,-1
 506 671 l 1,2,-1
 500 663 l 1,3,-1
 387 729 l 1,4,-1
 282 663 l 1,5,-1
 276 671 l 1,6,-1
 382 790 l 1,0,-1
387.5 614 m 128,-1,8
 480 614 480 614 557 574.5 c 128,-1,9
 634 535 634 535 679.5 463 c 128,-1,10
 725 391 725 391 725 300 c 128,-1,11
 725 209 725 209 679.5 137 c 128,-1,12
 634 65 634 65 557 25.5 c 128,-1,13
 480 -14 480 -14 399 -14 c 128,-1,14
 318 -14 318 -14 256 9 c 128,-1,15
 194 32 194 32 148.5 73 c 128,-1,16
 103 114 103 114 76.5 173 c 128,-1,17
 50 232 50 232 50 311.5 c 128,-1,18
 50 391 50 391 95.5 463 c 128,-1,19
 141 535 141 535 218 574.5 c 128,-1,7
 295 614 295 614 387.5 614 c 128,-1,8
387 16 m 128,-1,21
 499 16 499 16 575 95.5 c 128,-1,22
 651 175 651 175 651 300 c 128,-1,23
 651 425 651 425 575 504.5 c 128,-1,24
 499 584 499 584 387 584 c 128,-1,25
 275 584 275 584 199.5 504.5 c 128,-1,26
 124 425 124 425 124 300 c 128,-1,27
 124 175 124 175 199.5 95.5 c 128,-1,20
 275 16 275 16 387 16 c 128,-1,21
EndSplineSet
EndChar

StartChar: otilde
Encoding: 245 245 181
Width: 774
GlyphClass: 2
Flags: W
LayerCount: 2
Fore
SplineSet
458 709 m 0,0,1
 499 709 499 709 513 743 c 1,2,-1
 523 743 l 1,3,4
 519 706 519 706 501.5 685 c 128,-1,5
 484 664 484 664 459.5 664 c 128,-1,6
 435 664 435 664 393.5 686 c 128,-1,7
 352 708 352 708 337 708 c 0,8,9
 299 708 299 708 283 667 c 1,10,-1
 273 667 l 1,11,12
 281 721 281 721 308 742 c 0,13,14
 321 752 321 752 341 752 c 128,-1,15
 361 752 361 752 401.5 730.5 c 128,-1,16
 442 709 442 709 458 709 c 0,0,1
387.5 614 m 128,-1,18
 480 614 480 614 557 574.5 c 128,-1,19
 634 535 634 535 679.5 463 c 128,-1,20
 725 391 725 391 725 300 c 128,-1,21
 725 209 725 209 679.5 137 c 128,-1,22
 634 65 634 65 557 25.5 c 128,-1,23
 480 -14 480 -14 387.5 -14 c 128,-1,24
 295 -14 295 -14 218 25.5 c 128,-1,25
 141 65 141 65 95.5 137 c 128,-1,26
 50 209 50 209 50 300 c 128,-1,27
 50 391 50 391 95.5 463 c 128,-1,28
 141 535 141 535 218 574.5 c 128,-1,17
 295 614 295 614 387.5 614 c 128,-1,18
387 16 m 128,-1,30
 499 16 499 16 575 95.5 c 128,-1,31
 651 175 651 175 651 300 c 128,-1,32
 651 425 651 425 575 504.5 c 128,-1,33
 499 584 499 584 387 584 c 128,-1,34
 275 584 275 584 199.5 504.5 c 128,-1,35
 124 425 124 425 124 300 c 128,-1,36
 124 175 124 175 199.5 95.5 c 128,-1,29
 275 16 275 16 387 16 c 128,-1,30
EndSplineSet
EndChar

StartChar: odieresis
Encoding: 246 246 182
Width: 774
GlyphClass: 2
Flags: W
LayerCount: 2
Fore
SplineSet
293 664 m 128,-1,1
 277 664 277 664 265.5 675.5 c 128,-1,2
 254 687 254 687 254 703 c 128,-1,3
 254 719 254 719 265.5 730.5 c 128,-1,4
 277 742 277 742 293 742 c 128,-1,5
 309 742 309 742 320.5 730.5 c 128,-1,6
 332 719 332 719 332 703 c 128,-1,7
 332 687 332 687 320.5 675.5 c 128,-1,0
 309 664 309 664 293 664 c 128,-1,1
481.5 664 m 128,-1,9
 465 664 465 664 454 675.5 c 128,-1,10
 443 687 443 687 443 703 c 128,-1,11
 443 719 443 719 454 730.5 c 128,-1,12
 465 742 465 742 481.5 742 c 128,-1,13
 498 742 498 742 509.5 730.5 c 128,-1,14
 521 719 521 719 521 703 c 128,-1,15
 521 687 521 687 509.5 675.5 c 128,-1,8
 498 664 498 664 481.5 664 c 128,-1,9
387.5 614 m 128,-1,17
 480 614 480 614 557 574.5 c 128,-1,18
 634 535 634 535 679.5 463 c 128,-1,19
 725 391 725 391 725 300 c 128,-1,20
 725 209 725 209 679.5 137 c 128,-1,21
 634 65 634 65 557 25.5 c 128,-1,22
 480 -14 480 -14 387.5 -14 c 128,-1,23
 295 -14 295 -14 218 25.5 c 128,-1,24
 141 65 141 65 95.5 137 c 128,-1,25
 50 209 50 209 50 300 c 128,-1,26
 50 391 50 391 95.5 463 c 128,-1,27
 141 535 141 535 218 574.5 c 128,-1,16
 295 614 295 614 387.5 614 c 128,-1,17
387 16 m 128,-1,29
 499 16 499 16 575 95.5 c 128,-1,30
 651 175 651 175 651 300 c 128,-1,31
 651 425 651 425 575 504.5 c 128,-1,32
 499 584 499 584 387 584 c 128,-1,33
 275 584 275 584 199.5 504.5 c 128,-1,34
 124 425 124 425 124 300 c 128,-1,35
 124 175 124 175 199.5 95.5 c 128,-1,28
 275 16 275 16 387 16 c 128,-1,29
EndSplineSet
EndChar

StartChar: divide
Encoding: 247 247 183
Width: 481
GlyphClass: 2
Flags: W
LayerCount: 2
Fore
SplineSet
240.5 433 m 128,-1,1
 226 433 226 433 215.5 443.5 c 128,-1,2
 205 454 205 454 205 468.5 c 128,-1,3
 205 483 205 483 215.5 493 c 128,-1,4
 226 503 226 503 240.5 503 c 128,-1,5
 255 503 255 503 265.5 493 c 128,-1,6
 276 483 276 483 276 468.5 c 128,-1,7
 276 454 276 454 265.5 443.5 c 128,-1,0
 255 433 255 433 240.5 433 c 128,-1,1
40 287 m 1,8,-1
 40 332 l 1,9,-1
 442 332 l 1,10,-1
 442 287 l 1,11,-1
 40 287 l 1,8,-1
240.5 117 m 128,-1,13
 226 117 226 117 215.5 127.5 c 128,-1,14
 205 138 205 138 205 152.5 c 128,-1,15
 205 167 205 167 215.5 177 c 128,-1,16
 226 187 226 187 240.5 187 c 128,-1,17
 255 187 255 187 265.5 177 c 128,-1,18
 276 167 276 167 276 152.5 c 128,-1,19
 276 138 276 138 265.5 127.5 c 128,-1,12
 255 117 255 117 240.5 117 c 128,-1,13
EndSplineSet
EndChar

StartChar: oslash
Encoding: 248 248 184
Width: 774
GlyphClass: 2
Flags: W
LayerCount: 2
Fore
SplineSet
689.5 445.5 m 128,-1,1
 725 380 725 380 725 294.5 c 128,-1,2
 725 209 725 209 679.5 137 c 128,-1,3
 634 65 634 65 557 25.5 c 128,-1,4
 480 -14 480 -14 387 -14 c 0,5,6
 266 -14 266 -14 175 52 c 1,7,-1
 113 -23 l 1,8,-1
 88 -1 l 1,9,-1
 149 73 l 1,10,11
 50 162 50 162 50 300 c 0,12,13
 50 391 50 391 95.5 463 c 128,-1,14
 141 535 141 535 218 574.5 c 128,-1,15
 295 614 295 614 389.5 614 c 128,-1,16
 484 614 484 614 563 571 c 1,17,-1
 613 631 l 1,18,-1
 639 608 l 1,19,-1
 593 553 l 1,20,0
 654 511 654 511 689.5 445.5 c 128,-1,1
387 584 m 0,21,22
 275 584 275 584 199.5 504.5 c 128,-1,23
 124 425 124 425 124 308 c 128,-1,24
 124 191 124 191 184 114 c 1,25,-1
 536 538 l 1,26,27
 471 584 471 584 387 584 c 0,21,22
206 89 m 1,28,29
 280 16 280 16 389.5 16 c 128,-1,30
 499 16 499 16 575 95.5 c 128,-1,31
 651 175 651 175 651 305.5 c 128,-1,32
 651 436 651 436 563 517 c 1,33,-1
 206 89 l 1,28,29
EndSplineSet
EndChar

StartChar: ugrave
Encoding: 249 249 185
Width: 700
GlyphClass: 2
Flags: W
LayerCount: 2
Fore
SplineSet
358 671 m 1,0,-1
 351 664 l 1,1,2
 270 702 270 702 190 749 c 1,3,4
 204 777 204 777 231 802 c 1,5,6
 294 741 294 741 358 671 c 1,0,-1
665 590 m 1,7,-1
 650 590 l 2,8,9
 631 590 631 590 617 578 c 128,-1,10
 603 566 603 566 602 548 c 1,11,-1
 602 211 l 2,12,13
 602 107 602 107 535.5 46.5 c 128,-1,14
 469 -14 469 -14 353 -14 c 128,-1,15
 237 -14 237 -14 170 46 c 128,-1,16
 103 106 103 106 103 210 c 2,17,-1
 103 547 l 2,18,19
 103 565 103 565 89 577.5 c 128,-1,20
 75 590 75 590 55 590 c 2,21,-1
 40 590 l 1,22,-1
 40 600 l 1,23,-1
 230 600 l 1,24,-1
 230 590 l 1,25,-1
 215 590 l 2,26,27
 195 590 195 590 181 577.5 c 128,-1,28
 167 565 167 565 167 547 c 2,29,-1
 167 222 l 2,30,31
 167 125 167 125 216.5 69 c 128,-1,32
 266 13 266 13 356.5 13 c 128,-1,33
 447 13 447 13 501.5 66 c 128,-1,34
 556 119 556 119 556 211 c 2,35,-1
 556 547 l 1,36,37
 555 566 555 566 541.5 578 c 128,-1,38
 528 590 528 590 508 590 c 2,39,-1
 493 590 l 1,40,-1
 493 600 l 1,41,-1
 665 600 l 1,42,-1
 665 590 l 1,7,-1
EndSplineSet
EndChar

StartChar: uacute
Encoding: 250 250 186
Width: 700
GlyphClass: 2
Flags: W
LayerCount: 2
Fore
SplineSet
350 664 m 1,0,-1
 344 671 l 1,1,2
 420 753 420 753 470 802 c 1,3,4
 497 775 497 775 511 749 c 1,5,6
 447 712 447 712 350 664 c 1,0,-1
665 590 m 1,7,-1
 650 590 l 2,8,9
 623 590 623 590 609 569 c 0,10,11
 603 560 603 560 602 548 c 1,12,-1
 602 211 l 2,13,14
 602 107 602 107 535.5 46.5 c 128,-1,15
 469 -14 469 -14 353 -14 c 128,-1,16
 237 -14 237 -14 170 46 c 128,-1,17
 103 106 103 106 103 210 c 2,18,-1
 103 547 l 2,19,20
 103 565 103 565 89 577.5 c 128,-1,21
 75 590 75 590 55 590 c 2,22,-1
 40 590 l 1,23,-1
 40 600 l 1,24,-1
 230 600 l 1,25,-1
 230 590 l 1,26,-1
 215 590 l 2,27,28
 195 590 195 590 181 577.5 c 128,-1,29
 167 565 167 565 167 547 c 2,30,-1
 167 222 l 2,31,32
 167 125 167 125 216.5 69 c 128,-1,33
 266 13 266 13 356.5 13 c 128,-1,34
 447 13 447 13 501.5 66 c 128,-1,35
 556 119 556 119 556 211 c 2,36,-1
 556 547 l 1,37,38
 555 566 555 566 541.5 578 c 128,-1,39
 528 590 528 590 508 590 c 2,40,-1
 493 590 l 1,41,-1
 493 600 l 1,42,-1
 665 600 l 1,43,-1
 665 590 l 1,7,-1
EndSplineSet
EndChar

StartChar: ucircumflex
Encoding: 251 251 187
Width: 700
GlyphClass: 2
Flags: W
LayerCount: 2
Fore
SplineSet
345 790 m 1,0,-1
 355 790 l 1,1,-1
 470 671 l 1,2,-1
 464 663 l 1,3,-1
 350 729 l 1,4,-1
 245 663 l 1,5,-1
 239 671 l 1,6,-1
 345 790 l 1,0,-1
665 590 m 1,7,-1
 650 590 l 2,8,9
 623 590 623 590 609 569 c 0,10,11
 603 560 603 560 602 548 c 1,12,-1
 602 211 l 2,13,14
 602 107 602 107 535.5 46.5 c 128,-1,15
 469 -14 469 -14 353 -14 c 128,-1,16
 237 -14 237 -14 170 46 c 128,-1,17
 103 106 103 106 103 210 c 2,18,-1
 103 547 l 2,19,20
 103 565 103 565 89 577.5 c 128,-1,21
 75 590 75 590 55 590 c 2,22,-1
 40 590 l 1,23,-1
 40 600 l 1,24,-1
 230 600 l 1,25,-1
 230 590 l 1,26,-1
 215 590 l 2,27,28
 195 590 195 590 181 577.5 c 128,-1,29
 167 565 167 565 167 547 c 2,30,-1
 167 222 l 2,31,32
 167 125 167 125 216.5 69 c 128,-1,33
 266 13 266 13 356.5 13 c 128,-1,34
 447 13 447 13 501.5 66 c 128,-1,35
 556 119 556 119 556 211 c 2,36,-1
 556 547 l 1,37,38
 555 576 555 576 526 587 c 0,39,40
 518 590 518 590 508 590 c 2,41,-1
 493 590 l 1,42,-1
 493 600 l 1,43,-1
 665 600 l 1,44,-1
 665 590 l 1,7,-1
EndSplineSet
EndChar

StartChar: udieresis
Encoding: 252 252 188
Width: 700
GlyphClass: 2
Flags: W
LayerCount: 2
Fore
SplineSet
256.5 664 m 128,-1,1
 240 664 240 664 228.5 675.5 c 128,-1,2
 217 687 217 687 217 703 c 128,-1,3
 217 719 217 719 228.5 730.5 c 128,-1,4
 240 742 240 742 256.5 742 c 128,-1,5
 273 742 273 742 284 730.5 c 128,-1,6
 295 719 295 719 295 703 c 128,-1,7
 295 687 295 687 284 675.5 c 128,-1,0
 273 664 273 664 256.5 664 c 128,-1,1
445 664 m 128,-1,9
 429 664 429 664 417.5 675.5 c 128,-1,10
 406 687 406 687 406 703 c 128,-1,11
 406 719 406 719 417.5 730.5 c 128,-1,12
 429 742 429 742 445 742 c 128,-1,13
 461 742 461 742 472.5 730.5 c 128,-1,14
 484 719 484 719 484 703 c 128,-1,15
 484 687 484 687 472.5 675.5 c 128,-1,8
 461 664 461 664 445 664 c 128,-1,9
665 590 m 1,16,-1
 650 590 l 2,17,18
 623 590 623 590 609 569 c 0,19,20
 603 560 603 560 602 548 c 1,21,-1
 602 211 l 2,22,23
 602 107 602 107 535.5 46.5 c 128,-1,24
 469 -14 469 -14 353 -14 c 128,-1,25
 237 -14 237 -14 170 46 c 128,-1,26
 103 106 103 106 103 210 c 2,27,-1
 103 547 l 2,28,29
 103 565 103 565 89 577.5 c 128,-1,30
 75 590 75 590 55 590 c 2,31,-1
 40 590 l 1,32,-1
 40 600 l 1,33,-1
 230 600 l 1,34,-1
 230 590 l 1,35,-1
 215 590 l 2,36,37
 195 590 195 590 181 577.5 c 128,-1,38
 167 565 167 565 167 547 c 2,39,-1
 167 222 l 2,40,41
 167 125 167 125 216.5 69 c 128,-1,42
 266 13 266 13 356.5 13 c 128,-1,43
 447 13 447 13 501.5 66 c 128,-1,44
 556 119 556 119 556 211 c 2,45,-1
 556 547 l 1,46,47
 555 576 555 576 526 587 c 0,48,49
 518 590 518 590 508 590 c 2,50,-1
 493 590 l 1,51,-1
 493 600 l 1,52,-1
 665 600 l 1,53,-1
 665 590 l 1,16,-1
EndSplineSet
EndChar

StartChar: yacute
Encoding: 253 253 189
Width: 640
GlyphClass: 2
Flags: W
LayerCount: 2
Fore
SplineSet
333 664 m 1,0,-1
 326 671 l 1,1,2
 403 753 403 753 453 802 c 1,3,4
 480 775 480 775 494 749 c 1,5,6
 430 712 430 712 333 664 c 1,0,-1
645 590 m 1,7,-1
 633 590 l 2,8,9
 606 590 606 590 581.5 575.5 c 128,-1,10
 557 561 557 561 541 539 c 1,11,-1
 349 248 l 1,12,-1
 349 64 l 2,13,14
 349 42 349 42 366 26 c 128,-1,15
 383 10 383 10 407 10 c 2,16,-1
 419 10 l 1,17,-1
 419 0 l 1,18,-1
 214 0 l 1,19,-1
 214 10 l 1,20,-1
 226 10 l 2,21,22
 250 10 250 10 267 26 c 128,-1,23
 284 42 284 42 284 64 c 2,24,-1
 284 249 l 1,25,-1
 99 540 l 1,26,27
 65 590 65 590 7 590 c 2,28,-1
 -5 590 l 1,29,-1
 -5 600 l 1,30,-1
 227 600 l 1,31,-1
 227 590 l 1,32,-1
 215 590 l 2,33,34
 196 590 196 590 187.5 578 c 128,-1,35
 179 566 179 566 179 557.5 c 128,-1,36
 179 549 179 549 181 542 c 1,37,-1
 327 283 l 1,38,-1
 482 541 l 1,39,40
 485 549 485 549 485 557.5 c 128,-1,41
 485 566 485 566 476.5 578 c 128,-1,42
 468 590 468 590 448 590 c 2,43,-1
 436 590 l 1,44,-1
 436 600 l 1,45,-1
 645 600 l 1,46,-1
 645 590 l 1,7,-1
EndSplineSet
EndChar

StartChar: thorn
Encoding: 254 254 190
Width: 527
GlyphClass: 2
Flags: W
LayerCount: 2
Fore
SplineSet
492 304 m 0,0,1
 492 249 492 249 468 207 c 0,2,3
 422 125 422 125 325 125 c 0,4,5
 276 125 276 125 229 150 c 1,6,-1
 229 159 l 1,7,8
 274 146 274 146 324 160 c 0,9,10
 392 180 392 180 417 260 c 0,11,12
 424 280 424 280 424 314 c 0,13,14
 424 375 424 375 385.5 410 c 128,-1,15
 347 445 347 445 280 445 c 2,16,-1
 184 445 l 1,17,-1
 184 64 l 2,18,19
 184 41 184 41 199.5 25.5 c 128,-1,20
 215 10 215 10 237 10 c 2,21,-1
 250 10 l 1,22,-1
 250 0 l 1,23,-1
 53 0 l 1,24,-1
 54 10 l 1,25,-1
 66 10 l 2,26,27
 88 10 88 10 103.5 25.5 c 128,-1,28
 119 41 119 41 120 63 c 1,29,-1
 120 537 l 1,30,31
 119 560 119 560 104 575 c 128,-1,32
 89 590 89 590 66 590 c 2,33,-1
 54 590 l 1,34,-1
 53 600 l 1,35,-1
 250 600 l 1,36,-1
 250 590 l 1,37,-1
 237 590 l 2,38,39
 215 590 215 590 200 575.5 c 128,-1,40
 185 561 185 561 184 539 c 1,41,-1
 184 475 l 1,42,-1
 284 475 l 2,43,44
 381 475 381 475 436.5 429.5 c 128,-1,45
 492 384 492 384 492 304 c 0,0,1
EndSplineSet
EndChar

StartChar: ydieresis
Encoding: 255 255 191
Width: 640
GlyphClass: 2
Flags: W
LayerCount: 2
Fore
SplineSet
239 664 m 128,-1,1
 223 664 223 664 211.5 675.5 c 128,-1,2
 200 687 200 687 200 703 c 128,-1,3
 200 719 200 719 211.5 730.5 c 128,-1,4
 223 742 223 742 239 742 c 128,-1,5
 255 742 255 742 266.5 730.5 c 128,-1,6
 278 719 278 719 278 703 c 128,-1,7
 278 687 278 687 266.5 675.5 c 128,-1,0
 255 664 255 664 239 664 c 128,-1,1
427.5 664 m 128,-1,9
 411 664 411 664 400 675.5 c 128,-1,10
 389 687 389 687 389 703 c 128,-1,11
 389 719 389 719 400 730.5 c 128,-1,12
 411 742 411 742 427.5 742 c 128,-1,13
 444 742 444 742 455.5 730.5 c 128,-1,14
 467 719 467 719 467 703 c 128,-1,15
 467 687 467 687 455.5 675.5 c 128,-1,8
 444 664 444 664 427.5 664 c 128,-1,9
645 590 m 1,16,-1
 633 590 l 2,17,18
 606 590 606 590 581.5 575.5 c 128,-1,19
 557 561 557 561 541 539 c 1,20,-1
 349 248 l 1,21,-1
 349 64 l 2,22,23
 349 42 349 42 366 26 c 128,-1,24
 383 10 383 10 407 10 c 2,25,-1
 419 10 l 1,26,-1
 419 0 l 1,27,-1
 214 0 l 1,28,-1
 214 10 l 1,29,-1
 226 10 l 2,30,31
 250 10 250 10 267 26 c 128,-1,32
 284 42 284 42 284 64 c 2,33,-1
 284 249 l 1,34,-1
 99 540 l 1,35,36
 65 590 65 590 7 590 c 2,37,-1
 -5 590 l 1,38,-1
 -5 600 l 1,39,-1
 227 600 l 1,40,-1
 227 590 l 1,41,-1
 215 590 l 2,42,43
 196 590 196 590 187.5 578 c 128,-1,44
 179 566 179 566 179 557.5 c 128,-1,45
 179 549 179 549 181 542 c 1,46,-1
 327 283 l 1,47,-1
 482 541 l 1,48,49
 485 549 485 549 485 557.5 c 128,-1,50
 485 566 485 566 476.5 578 c 128,-1,51
 468 590 468 590 448 590 c 2,52,-1
 436 590 l 1,53,-1
 436 600 l 1,54,-1
 645 600 l 1,55,-1
 645 590 l 1,16,-1
EndSplineSet
EndChar

StartChar: Amacron
Encoding: 256 256 192
Width: 712
GlyphClass: 2
Flags: W
LayerCount: 2
Fore
SplineSet
234 795 m 1,0,-1
 234 830 l 1,1,-1
 484 830 l 1,2,-1
 484 795 l 1,3,-1
 234 795 l 1,0,-1
715 10 m 2,4,-1
 723 10 l 1,5,-1
 723 0 l 1,6,-1
 498 0 l 1,7,-1
 498 10 l 1,8,-1
 507 10 l 2,9,10
 528 10 528 10 538.5 23.5 c 128,-1,11
 549 37 549 37 549 49 c 128,-1,12
 549 61 549 61 545 73 c 2,13,-1
 481 243 l 1,14,-1
 211 243 l 1,15,-1
 144 72 l 2,16,17
 140 60 140 60 140 48.5 c 128,-1,18
 140 37 140 37 150.5 23.5 c 128,-1,19
 161 10 161 10 182 10 c 2,20,-1
 191 10 l 1,21,-1
 191 0 l 1,22,-1
 -10 0 l 1,23,-1
 -10 10 l 1,24,-1
 -1 10 l 2,25,26
 24 10 24 10 48 26 c 128,-1,27
 72 42 72 42 87 73 c 1,28,-1
 313 611 l 1,29,30
 350 692 350 692 350 714 c 1,31,-1
 359 714 l 1,32,-1
 627 73 l 2,33,34
 641 42 641 42 665 26 c 128,-1,35
 689 10 689 10 715 10 c 2,4,-1
223 273 m 1,36,-1
 469 273 l 1,37,-1
 349 594 l 1,38,-1
 223 273 l 1,36,-1
EndSplineSet
EndChar

StartChar: amacron
Encoding: 257 257 193
Width: 663
GlyphClass: 2
Flags: W
LayerCount: 2
Fore
SplineSet
210 695 m 1,0,-1
 210 730 l 1,1,-1
 460 730 l 1,2,-1
 460 695 l 1,3,-1
 210 695 l 1,0,-1
660 10 m 2,4,-1
 668 10 l 1,5,-1
 668 0 l 1,6,-1
 463 0 l 1,7,-1
 463 10 l 1,8,-1
 471 10 l 2,9,10
 490 10 490 10 500 23 c 128,-1,11
 510 36 510 36 510 47.5 c 128,-1,12
 510 59 510 59 506 70 c 2,13,-1
 451 203 l 1,14,-1
 198 203 l 1,15,-1
 143 73 l 2,16,17
 138 60 138 60 138 48.5 c 128,-1,18
 138 37 138 37 148 23.5 c 128,-1,19
 158 10 158 10 178 10 c 2,20,-1
 186 10 l 1,21,-1
 186 0 l 1,22,-1
 -5 0 l 1,23,-1
 -5 10 l 1,24,-1
 3 10 l 2,25,26
 24 10 24 10 45.5 24.5 c 128,-1,27
 67 39 67 39 81 68 c 0,28,29
 300 536 300 536 309 558 c 0,30,31
 326 600 326 600 327 614 c 1,32,-1
 336 614 l 1,33,-1
 583 68 l 1,34,35
 612 10 612 10 660 10 c 2,4,-1
211 233 m 1,36,-1
 439 233 l 1,37,-1
 327 507 l 1,38,-1
 211 233 l 1,36,-1
EndSplineSet
EndChar

StartChar: Abreve
Encoding: 258 258 194
Width: 712
GlyphClass: 2
Flags: W
LayerCount: 2
Fore
SplineSet
460 868 m 1,0,1
 460 840 460 840 446 816 c 128,-1,2
 432 792 432 792 408 778 c 128,-1,3
 384 764 384 764 349.5 764 c 128,-1,4
 315 764 315 764 284.5 795 c 128,-1,5
 254 826 254 826 254 868 c 1,6,-1
 264 868 l 1,7,8
 272 846 272 846 298 830 c 128,-1,9
 324 814 324 814 357 814 c 128,-1,10
 390 814 390 814 416 830 c 128,-1,11
 442 846 442 846 450 868 c 1,12,-1
 460 868 l 1,0,1
715 10 m 2,13,-1
 723 10 l 1,14,-1
 723 0 l 1,15,-1
 498 0 l 1,16,-1
 498 10 l 1,17,-1
 507 10 l 2,18,19
 528 10 528 10 538.5 23.5 c 128,-1,20
 549 37 549 37 549 49 c 128,-1,21
 549 61 549 61 545 73 c 2,22,-1
 481 243 l 1,23,-1
 211 243 l 1,24,-1
 144 72 l 2,25,26
 140 60 140 60 140 48.5 c 128,-1,27
 140 37 140 37 150.5 23.5 c 128,-1,28
 161 10 161 10 182 10 c 2,29,-1
 191 10 l 1,30,-1
 191 0 l 1,31,-1
 -10 0 l 1,32,-1
 -10 10 l 1,33,-1
 -1 10 l 2,34,35
 24 10 24 10 48 26 c 128,-1,36
 72 42 72 42 87 73 c 1,37,-1
 313 611 l 1,38,39
 350 692 350 692 350 714 c 1,40,-1
 359 714 l 1,41,-1
 627 73 l 2,42,43
 641 42 641 42 665 26 c 128,-1,44
 689 10 689 10 715 10 c 2,13,-1
223 273 m 1,45,-1
 469 273 l 1,46,-1
 349 594 l 1,47,-1
 223 273 l 1,45,-1
EndSplineSet
EndChar

StartChar: abreve
Encoding: 259 259 195
Width: 663
GlyphClass: 2
Flags: W
LayerCount: 2
Fore
SplineSet
435 768 m 1,0,1
 435 740 435 740 421 716 c 128,-1,2
 407 692 407 692 383.5 678 c 128,-1,3
 360 664 360 664 325 664 c 128,-1,4
 290 664 290 664 259.5 695 c 128,-1,5
 229 726 229 726 229 768 c 1,6,-1
 239 768 l 1,7,8
 247 746 247 746 273 730 c 128,-1,9
 299 714 299 714 332.5 714 c 128,-1,10
 366 714 366 714 391.5 730 c 128,-1,11
 417 746 417 746 425 768 c 1,12,-1
 435 768 l 1,0,1
660 10 m 2,13,-1
 668 10 l 1,14,-1
 668 0 l 1,15,-1
 463 0 l 1,16,-1
 463 10 l 1,17,-1
 471 10 l 2,18,19
 490 10 490 10 500 23 c 128,-1,20
 510 36 510 36 510 47.5 c 128,-1,21
 510 59 510 59 506 70 c 2,22,-1
 451 203 l 1,23,-1
 198 203 l 1,24,-1
 143 73 l 2,25,26
 138 60 138 60 138 48.5 c 128,-1,27
 138 37 138 37 148 23.5 c 128,-1,28
 158 10 158 10 178 10 c 2,29,-1
 186 10 l 1,30,-1
 186 0 l 1,31,-1
 -5 0 l 1,32,-1
 -5 10 l 1,33,-1
 3 10 l 2,34,35
 24 10 24 10 45.5 24.5 c 128,-1,36
 67 39 67 39 81 68 c 0,37,38
 300 536 300 536 309 558 c 0,39,40
 326 600 326 600 327 614 c 1,41,-1
 336 614 l 1,42,-1
 583 68 l 1,43,44
 612 10 612 10 660 10 c 2,13,-1
211 233 m 1,45,-1
 439 233 l 1,46,-1
 327 507 l 1,47,-1
 211 233 l 1,45,-1
EndSplineSet
EndChar

StartChar: Aogonek
Encoding: 260 260 196
Width: 737
GlyphClass: 2
Flags: W
LayerCount: 2
Fore
SplineSet
674 -113 m 1,0,-1
 680 -119 l 1,1,2
 671 -143 671 -143 650 -158 c 128,-1,3
 629 -173 629 -173 614 -174.5 c 128,-1,4
 599 -176 599 -176 587 -176 c 0,5,6
 543 -176 543 -176 518 -140 c 0,7,8
 502 -117 502 -117 502 -92 c 128,-1,9
 502 -67 502 -67 510 -52 c 0,10,11
 523 -24 523 -24 548 -10 c 0,12,13
 579 7 579 7 579 33 c 0,14,15
 579 48 579 48 571 71 c 1,16,-1
 502 243 l 1,17,-1
 215 243 l 1,18,-1
 144 72 l 2,19,20
 140 60 140 60 140 48.5 c 128,-1,21
 140 37 140 37 150.5 23.5 c 128,-1,22
 161 10 161 10 182 10 c 2,23,-1
 191 10 l 1,24,-1
 191 0 l 1,25,-1
 -10 0 l 1,26,-1
 -10 10 l 1,27,-1
 -1 10 l 2,28,29
 24 10 24 10 48 26 c 128,-1,30
 72 42 72 42 87 73 c 1,31,-1
 327 611 l 2,32,33
 364 692 364 692 364 714 c 1,34,-1
 373 714 l 1,35,-1
 656 68 l 2,36,37
 677 22 677 22 721 11 c 0,38,39
 730 9 730 9 739 9 c 2,40,-1
 748 9 l 1,41,-1
 748 0 l 1,42,43
 703 0 703 0 678 2 c 0,44,45
 639 5 639 5 610.5 0 c 128,-1,46
 582 -5 582 -5 566 -25.5 c 128,-1,47
 550 -46 550 -46 550 -69 c 128,-1,48
 550 -92 550 -92 562 -109 c 1,49,50
 584 -137 584 -137 617 -137 c 128,-1,51
 650 -137 650 -137 674 -113 c 1,0,-1
228 273 m 1,52,-1
 490 273 l 1,53,-1
 362 596 l 1,54,-1
 228 273 l 1,52,-1
EndSplineSet
EndChar

StartChar: aogonek
Encoding: 261 261 197
Width: 633
GlyphClass: 2
Flags: W
LayerCount: 2
Fore
SplineSet
664 0 m 1,0,-1
 541 5 l 1,1,2
 511 5 511 5 493 0 c 0,3,4
 442 -13 442 -13 442 -67 c 0,5,6
 442 -98 442 -98 462 -118 c 128,-1,7
 482 -138 482 -138 511 -138 c 128,-1,8
 540 -138 540 -138 564 -113 c 1,9,-1
 570 -119 l 1,10,11
 561 -143 561 -143 540 -158 c 0,12,13
 517 -175 517 -175 492 -175 c 128,-1,14
 467 -175 467 -175 446.5 -168 c 128,-1,15
 426 -161 426 -161 411 -138 c 128,-1,16
 396 -115 396 -115 396 -83.5 c 128,-1,17
 396 -52 396 -52 416 -27.5 c 128,-1,18
 436 -3 436 -3 472.5 10 c 128,-1,19
 509 23 509 23 509 51 c 0,20,21
 509 61 509 61 505 72 c 2,22,-1
 451 203 l 1,23,-1
 198 203 l 1,24,-1
 143 73 l 1,25,26
 139 60 139 60 139 52 c 128,-1,27
 139 44 139 44 142 34.5 c 128,-1,28
 145 25 145 25 155 17.5 c 128,-1,29
 165 10 165 10 178 10 c 2,30,-1
 186 10 l 1,31,-1
 186 0 l 1,32,-1
 -5 0 l 1,33,-1
 -5 10 l 1,34,-1
 3 10 l 2,35,36
 24 10 24 10 45.5 24.5 c 128,-1,37
 67 39 67 39 81 68 c 0,38,39
 288 511 288 511 306.5 551 c 128,-1,40
 325 591 325 591 327 614 c 1,41,-1
 336 614 l 1,42,-1
 587 60 l 1,43,44
 614 10 614 10 656 10 c 2,45,-1
 664 10 l 1,46,-1
 664 0 l 1,0,-1
211 233 m 1,47,-1
 439 233 l 1,48,-1
 327 507 l 1,49,-1
 211 233 l 1,47,-1
EndSplineSet
EndChar

StartChar: Cacute
Encoding: 262 262 198
Width: 760
GlyphClass: 2
Flags: W
LayerCount: 2
Fore
SplineSet
417 764 m 1,0,-1
 410 771 l 1,1,2
 486 853 486 853 537 902 c 1,3,4
 564 875 564 875 578 849 c 1,5,6
 514 812 514 812 417 764 c 1,0,-1
159.5 87 m 128,-1,8
 60 187 60 187 60 350.5 c 128,-1,9
 60 514 60 514 159.5 614 c 128,-1,10
 259 714 259 714 423 714 c 0,11,12
 557 714 557 714 660 646 c 1,13,-1
 680 505 l 1,14,-1
 671 505 l 1,15,16
 649 591 649 591 582 637.5 c 128,-1,17
 515 684 515 684 423 684 c 0,18,19
 292 684 292 684 213.5 593 c 128,-1,20
 135 502 135 502 135 352 c 128,-1,21
 135 202 135 202 212.5 110.5 c 128,-1,22
 290 19 290 19 417 16 c 1,23,24
 529 16 529 16 604 77 c 0,25,26
 685 143 685 143 702 292 c 1,27,-1
 710 292 l 1,28,-1
 698 135 l 1,29,30
 607 -14 607 -14 417 -14 c 1,31,7
 259 -13 259 -13 159.5 87 c 128,-1,8
EndSplineSet
EndChar

StartChar: cacute
Encoding: 263 263 199
Width: 705
GlyphClass: 2
Flags: W
LayerCount: 2
Fore
SplineSet
380 664 m 1,0,-1
 373 671 l 1,1,2
 449 753 449 753 500 802 c 1,3,4
 527 775 527 775 541 749 c 1,5,6
 477 712 477 712 380 664 c 1,0,-1
138.5 71 m 128,-1,8
 50 155 50 155 50 300.5 c 128,-1,9
 50 446 50 446 138.5 530 c 128,-1,10
 227 614 227 614 380 614 c 0,11,12
 442 614 442 614 505 598 c 128,-1,13
 568 582 568 582 614 554 c 1,14,-1
 636 412 l 1,15,-1
 627 412 l 1,16,17
 584 584 584 584 379 584 c 0,18,19
 260 584 260 584 191 508 c 128,-1,20
 122 432 122 432 122 301 c 128,-1,21
 122 170 122 170 191 94 c 0,22,23
 262 17 262 17 380.5 17 c 128,-1,24
 499 17 499 17 574 75.5 c 128,-1,25
 649 134 649 134 657 252 c 1,26,-1
 666 252 l 1,27,-1
 655 115 l 1,28,29
 616 55 616 55 542 20.5 c 128,-1,30
 468 -14 468 -14 380 -14 c 0,31,7
 227 -13 227 -13 138.5 71 c 128,-1,8
EndSplineSet
EndChar

StartChar: Cdotaccent
Encoding: 266 266 200
Width: 760
GlyphClass: 2
Flags: W
LayerCount: 2
Fore
SplineSet
416 765 m 128,-1,1
 398 765 398 765 385.5 777.5 c 128,-1,2
 373 790 373 790 373 808 c 128,-1,3
 373 826 373 826 385.5 838.5 c 128,-1,4
 398 851 398 851 416 851 c 128,-1,5
 434 851 434 851 446.5 838.5 c 128,-1,6
 459 826 459 826 459 808 c 128,-1,7
 459 790 459 790 446.5 777.5 c 128,-1,0
 434 765 434 765 416 765 c 128,-1,1
159.5 87 m 128,-1,9
 60 187 60 187 60 350.5 c 128,-1,10
 60 514 60 514 159.5 614 c 128,-1,11
 259 714 259 714 423 714 c 0,12,13
 557 714 557 714 660 646 c 1,14,-1
 680 505 l 1,15,-1
 671 505 l 1,16,17
 649 591 649 591 582 637.5 c 128,-1,18
 515 684 515 684 423 684 c 0,19,20
 292 684 292 684 213.5 593 c 128,-1,21
 135 502 135 502 135 352 c 128,-1,22
 135 202 135 202 212.5 110.5 c 128,-1,23
 290 19 290 19 417 16 c 1,24,25
 529 16 529 16 604 77 c 0,26,27
 685 143 685 143 702 292 c 1,28,-1
 710 292 l 1,29,-1
 698 135 l 1,30,31
 607 -14 607 -14 417 -14 c 1,32,8
 259 -13 259 -13 159.5 87 c 128,-1,9
EndSplineSet
EndChar

StartChar: cdotaccent
Encoding: 267 267 201
Width: 705
GlyphClass: 2
Flags: W
LayerCount: 2
Fore
SplineSet
379 665 m 128,-1,1
 361 665 361 665 348.5 677.5 c 128,-1,2
 336 690 336 690 336 708 c 128,-1,3
 336 726 336 726 348.5 738.5 c 128,-1,4
 361 751 361 751 379 751 c 128,-1,5
 397 751 397 751 409.5 738.5 c 128,-1,6
 422 726 422 726 422 708 c 128,-1,7
 422 690 422 690 409.5 677.5 c 128,-1,0
 397 665 397 665 379 665 c 128,-1,1
138.5 71 m 128,-1,9
 50 155 50 155 50 300.5 c 128,-1,10
 50 446 50 446 138.5 530 c 128,-1,11
 227 614 227 614 380 614 c 0,12,13
 442 614 442 614 505 598 c 128,-1,14
 568 582 568 582 614 554 c 1,15,-1
 636 412 l 1,16,-1
 627 412 l 1,17,18
 584 584 584 584 379 584 c 0,19,20
 260 584 260 584 191 508 c 128,-1,21
 122 432 122 432 122 300 c 0,22,23
 122 214 122 214 153 150.5 c 128,-1,24
 184 87 184 87 243 52 c 256,25,26
 302 17 302 17 380 17 c 128,-1,27
 458 17 458 17 516.5 40.5 c 128,-1,28
 575 64 575 64 613.5 118 c 128,-1,29
 652 172 652 172 657 252 c 1,30,-1
 666 252 l 1,31,-1
 655 115 l 1,32,33
 616 55 616 55 542 20.5 c 128,-1,34
 468 -14 468 -14 380 -14 c 0,35,8
 227 -13 227 -13 138.5 71 c 128,-1,9
EndSplineSet
EndChar

StartChar: Ccaron
Encoding: 268 268 202
Width: 760
GlyphClass: 2
Flags: W
LayerCount: 2
Fore
SplineSet
422 764 m 1,0,-1
 412 764 l 1,1,-1
 298 883 l 1,2,-1
 304 891 l 1,3,-1
 418 825 l 1,4,-1
 522 891 l 1,5,-1
 528 883 l 1,6,-1
 422 764 l 1,0,-1
60 351 m 0,7,8
 60 459 60 459 104.5 541 c 128,-1,9
 149 623 149 623 231.5 668.5 c 128,-1,10
 314 714 314 714 423 714 c 0,11,12
 557 714 557 714 660 646 c 1,13,-1
 680 505 l 1,14,-1
 671 505 l 1,15,16
 649 591 649 591 582 637.5 c 128,-1,17
 515 684 515 684 423 684 c 0,18,19
 292 684 292 684 213.5 593 c 128,-1,20
 135 502 135 502 135 352 c 128,-1,21
 135 202 135 202 212.5 110.5 c 128,-1,22
 290 19 290 19 417 16 c 1,23,24
 529 16 529 16 604 77 c 0,25,26
 685 143 685 143 702 292 c 1,27,-1
 710 292 l 1,28,-1
 698 135 l 1,29,30
 607 -14 607 -14 417 -14 c 1,31,32
 259 -13 259 -13 159.5 87 c 128,-1,33
 60 187 60 187 60 351 c 0,7,8
EndSplineSet
EndChar

StartChar: ccaron
Encoding: 269 269 203
Width: 705
GlyphClass: 2
Flags: W
LayerCount: 2
Fore
SplineSet
385 664 m 1,0,-1
 375 664 l 1,1,-1
 261 783 l 1,2,-1
 267 791 l 1,3,-1
 381 725 l 1,4,-1
 485 791 l 1,5,-1
 491 783 l 1,6,-1
 385 664 l 1,0,-1
138.5 71 m 128,-1,8
 50 155 50 155 50 300.5 c 128,-1,9
 50 446 50 446 138.5 530 c 128,-1,10
 227 614 227 614 380 614 c 0,11,12
 442 614 442 614 505 598 c 128,-1,13
 568 582 568 582 614 554 c 1,14,-1
 636 412 l 1,15,-1
 627 412 l 1,16,17
 584 584 584 584 379 584 c 0,18,19
 260 584 260 584 191 508 c 128,-1,20
 122 432 122 432 122 300 c 0,21,22
 122 170 122 170 191 94 c 0,23,24
 262 17 262 17 384 17 c 0,25,26
 541 17 541 17 613 118 c 0,27,28
 652 172 652 172 657 252 c 1,29,-1
 666 252 l 1,30,-1
 655 115 l 1,31,32
 616 55 616 55 542 20.5 c 128,-1,33
 468 -14 468 -14 380 -14 c 0,34,7
 227 -13 227 -13 138.5 71 c 128,-1,8
EndSplineSet
EndChar

StartChar: Dcaron
Encoding: 270 270 204
Width: 807
GlyphClass: 2
Flags: W
LayerCount: 2
Fore
SplineSet
404 764 m 1,0,-1
 394 764 l 1,1,-1
 280 883 l 1,2,-1
 286 891 l 1,3,-1
 400 825 l 1,4,-1
 504 891 l 1,5,-1
 510 883 l 1,6,-1
 404 764 l 1,0,-1
658.5 603.5 m 128,-1,8
 758 507 758 507 758 350 c 128,-1,9
 758 193 758 193 658.5 96.5 c 128,-1,10
 559 0 559 0 399 0 c 2,11,-1
 60 0 l 1,12,-1
 60 10 l 1,13,-1
 73 10 l 2,14,15
 99 10 99 10 117.5 28.5 c 128,-1,16
 136 47 136 47 137 73 c 1,17,-1
 137 633 l 2,18,19
 137 657 137 657 117.5 673.5 c 128,-1,20
 98 690 98 690 73 690 c 2,21,-1
 60 690 l 1,22,-1
 60 700 l 1,23,-1
 399 700 l 2,24,7
 559 700 559 700 658.5 603.5 c 128,-1,8
202 670 m 1,25,-1
 202 30 l 1,26,-1
 399 30 l 2,27,28
 483 30 483 30 547.5 70 c 128,-1,29
 612 110 612 110 647.5 182.5 c 128,-1,30
 683 255 683 255 683 350 c 0,31,32
 683 494 683 494 604.5 582 c 128,-1,33
 526 670 526 670 399 670 c 2,34,-1
 202 670 l 1,25,-1
EndSplineSet
EndChar

StartChar: dcaron
Encoding: 271 271 205
Width: 760
GlyphClass: 2
Flags: W
LayerCount: 2
Fore
SplineSet
393 665 m 1,0,-1
 383 665 l 1,1,-1
 269 784 l 1,2,-1
 275 792 l 1,3,-1
 388 726 l 1,4,-1
 493 792 l 1,5,-1
 499 784 l 1,6,-1
 393 665 l 1,0,-1
623.5 519.5 m 128,-1,8
 710 439 710 439 710 300 c 128,-1,9
 710 161 710 161 623.5 80.5 c 128,-1,10
 537 0 537 0 389 0 c 2,11,-1
 55 0 l 1,12,-1
 55 10 l 1,13,-1
 68 10 l 2,14,15
 92 10 92 10 108 26 c 128,-1,16
 124 42 124 42 125 64 c 1,17,-1
 125 536 l 1,18,19
 124 560 124 560 107.5 575 c 128,-1,20
 91 590 91 590 67 590 c 2,21,-1
 55 590 l 1,22,-1
 55 600 l 1,23,-1
 389 600 l 2,24,7
 537 600 537 600 623.5 519.5 c 128,-1,8
190 570 m 1,25,-1
 190 30 l 1,26,-1
 389 30 l 2,27,28
 504 30 504 30 571 102.5 c 128,-1,29
 638 175 638 175 638 300 c 256,30,31
 638 425 638 425 571 497.5 c 128,-1,32
 504 570 504 570 389 570 c 2,33,-1
 190 570 l 1,25,-1
EndSplineSet
EndChar

StartChar: Dcroat
Encoding: 272 272 206
Width: 807
GlyphClass: 2
Flags: W
LayerCount: 2
Fore
SplineSet
277 795 m 1,0,-1
 277 830 l 1,1,-1
 527 830 l 1,2,-1
 527 795 l 1,3,-1
 277 795 l 1,0,-1
658.5 603.5 m 128,-1,5
 758 507 758 507 758 350 c 128,-1,6
 758 193 758 193 658.5 96.5 c 128,-1,7
 559 0 559 0 399 0 c 2,8,-1
 60 0 l 1,9,-1
 60 10 l 1,10,-1
 73 10 l 2,11,12
 99 10 99 10 117.5 28.5 c 128,-1,13
 136 47 136 47 137 73 c 1,14,-1
 137 633 l 2,15,16
 137 657 137 657 117.5 673.5 c 128,-1,17
 98 690 98 690 73 690 c 2,18,-1
 61 690 l 1,19,-1
 60 700 l 1,20,-1
 399 700 l 2,21,4
 559 700 559 700 658.5 603.5 c 128,-1,5
202 670 m 1,22,-1
 202 30 l 1,23,-1
 399 30 l 2,24,25
 483 30 483 30 547.5 70 c 128,-1,26
 612 110 612 110 647.5 182.5 c 128,-1,27
 683 255 683 255 683 350 c 0,28,29
 683 494 683 494 604.5 582 c 128,-1,30
 526 670 526 670 399 670 c 2,31,-1
 202 670 l 1,22,-1
EndSplineSet
EndChar

StartChar: dcroat
Encoding: 273 273 207
Width: 760
GlyphClass: 2
Flags: W
LayerCount: 2
Fore
SplineSet
266 696 m 1,0,-1
 266 731 l 1,1,-1
 516 731 l 1,2,-1
 516 696 l 1,3,-1
 266 696 l 1,0,-1
623.5 519.5 m 128,-1,5
 710 439 710 439 710 300 c 128,-1,6
 710 161 710 161 623.5 80.5 c 128,-1,7
 537 0 537 0 389 0 c 2,8,-1
 55 0 l 1,9,-1
 55 10 l 1,10,-1
 68 10 l 2,11,12
 92 10 92 10 108 26 c 128,-1,13
 124 42 124 42 125 64 c 1,14,-1
 125 536 l 1,15,16
 124 560 124 560 107.5 575 c 128,-1,17
 91 590 91 590 67 590 c 2,18,-1
 55 590 l 1,19,-1
 55 600 l 1,20,-1
 389 600 l 2,21,4
 537 600 537 600 623.5 519.5 c 128,-1,5
190 570 m 1,22,-1
 190 30 l 1,23,-1
 389 30 l 2,24,25
 504 30 504 30 571 102.5 c 128,-1,26
 638 175 638 175 638 300 c 256,27,28
 638 425 638 425 571 497.5 c 128,-1,29
 504 570 504 570 389 570 c 2,30,-1
 190 570 l 1,22,-1
EndSplineSet
EndChar

StartChar: Emacron
Encoding: 274 274 208
Width: 577
GlyphClass: 2
Flags: W
LayerCount: 2
Fore
SplineSet
176 795 m 1,0,-1
 176 830 l 1,1,-1
 426 830 l 1,2,-1
 426 795 l 1,3,-1
 176 795 l 1,0,-1
73 10 m 2,4,5
 99 10 99 10 117.5 28.5 c 128,-1,6
 136 47 136 47 137 73 c 1,7,-1
 137 633 l 1,8,9
 134 657 134 657 116 673.5 c 128,-1,10
 98 690 98 690 73 690 c 2,11,-1
 61 690 l 1,12,-1
 60 700 l 1,13,-1
 353 700 l 2,14,15
 384 700 384 700 420.5 706 c 128,-1,16
 457 712 457 712 472 718 c 1,17,-1
 472 592 l 1,18,-1
 462 592 l 1,19,-1
 462 610 l 2,20,21
 462 634 462 634 445.5 651 c 128,-1,22
 429 668 429 668 406 669 c 1,23,-1
 202 669 l 1,24,-1
 202 360 l 1,25,-1
 371 360 l 1,26,27
 391 361 391 361 405 375 c 128,-1,28
 419 389 419 389 419 410 c 2,29,-1
 419 424 l 1,30,-1
 429 424 l 1,31,-1
 429 266 l 1,32,-1
 419 266 l 1,33,-1
 419 281 l 2,34,35
 419 301 419 301 405.5 315 c 128,-1,36
 392 329 392 329 372 330 c 1,37,-1
 202 330 l 1,38,-1
 202 31 l 1,39,-1
 345 31 l 2,40,41
 419 31 419 31 458 64 c 128,-1,42
 497 97 497 97 523 162 c 1,43,-1
 533 162 l 1,44,-1
 475 0 l 1,45,-1
 60 0 l 1,46,-1
 60 10 l 1,47,-1
 73 10 l 2,4,5
EndSplineSet
EndChar

StartChar: emacron
Encoding: 275 275 209
Width: 546
GlyphClass: 2
Flags: W
LayerCount: 2
Fore
SplineSet
175 695 m 1,0,-1
 175 730 l 1,1,-1
 425 730 l 1,2,-1
 425 695 l 1,3,-1
 175 695 l 1,0,-1
69 10 m 2,4,5
 93 10 93 10 109.5 25.5 c 128,-1,6
 126 41 126 41 127 63 c 1,7,-1
 127 538 l 2,8,9
 127 560 127 560 110 575 c 128,-1,10
 93 590 93 590 69 590 c 2,11,-1
 55 590 l 1,12,-1
 55 600 l 1,13,-1
 347 600 l 2,14,15
 388 600 388 600 419 606 c 128,-1,16
 450 612 450 612 459 616 c 1,17,-1
 459 502 l 1,18,-1
 448 503 l 1,19,-1
 448 518 l 2,20,21
 448 539 448 539 434 554 c 128,-1,22
 420 569 420 569 398 569 c 2,23,-1
 190 569 l 1,24,-1
 190 315 l 1,25,-1
 361 315 l 2,26,27
 381 315 381 315 391.5 327 c 128,-1,28
 402 339 402 339 402 357 c 2,29,-1
 402 370 l 1,30,-1
 413 370 l 1,31,-1
 413 230 l 1,32,-1
 402 230 l 1,33,-1
 402 243 l 2,34,35
 402 271 402 271 381 281 c 0,36,37
 373 284 373 284 364 285 c 1,38,-1
 190 285 l 1,39,-1
 190 31 l 1,40,-1
 347 31 l 2,41,42
 393 31 393 31 424.5 47 c 128,-1,43
 456 63 456 63 472.5 85 c 128,-1,44
 489 107 489 107 506 143 c 1,45,-1
 516 143 l 1,46,-1
 461 0 l 1,47,-1
 55 0 l 1,48,-1
 55 10 l 1,49,-1
 69 10 l 2,4,5
EndSplineSet
EndChar

StartChar: Edotaccent
Encoding: 278 278 210
Width: 577
GlyphClass: 2
Flags: W
LayerCount: 2
Fore
SplineSet
297 765 m 128,-1,1
 279 765 279 765 266.5 777.5 c 128,-1,2
 254 790 254 790 254 808 c 128,-1,3
 254 826 254 826 266.5 838.5 c 128,-1,4
 279 851 279 851 297 851 c 128,-1,5
 315 851 315 851 327.5 838.5 c 128,-1,6
 340 826 340 826 340 808 c 128,-1,7
 340 790 340 790 327.5 777.5 c 128,-1,0
 315 765 315 765 297 765 c 128,-1,1
73 10 m 2,8,9
 99 10 99 10 117.5 28.5 c 128,-1,10
 136 47 136 47 137 73 c 1,11,-1
 137 633 l 1,12,13
 133 666 133 666 104 683 c 1,14,15
 89 690 89 690 73 690 c 2,16,-1
 61 690 l 1,17,-1
 60 700 l 1,18,-1
 353 700 l 2,19,20
 396 700 396 700 429.5 707 c 128,-1,21
 463 714 463 714 472 718 c 1,22,-1
 472 592 l 1,23,-1
 462 592 l 1,24,-1
 462 610 l 2,25,26
 462 634 462 634 445.5 651 c 128,-1,27
 429 668 429 668 406 669 c 1,28,-1
 202 669 l 1,29,-1
 202 360 l 1,30,-1
 371 360 l 1,31,32
 391 361 391 361 405 375 c 128,-1,33
 419 389 419 389 419 410 c 2,34,-1
 419 424 l 1,35,-1
 429 424 l 1,36,-1
 429 266 l 1,37,-1
 419 266 l 1,38,-1
 419 281 l 2,39,40
 419 301 419 301 405.5 315 c 128,-1,41
 392 329 392 329 372 330 c 1,42,-1
 202 330 l 1,43,-1
 202 31 l 1,44,-1
 345 31 l 2,45,46
 419 31 419 31 458 64 c 128,-1,47
 497 97 497 97 523 162 c 1,48,-1
 533 162 l 1,49,-1
 475 0 l 1,50,-1
 60 0 l 1,51,-1
 60 10 l 1,52,-1
 73 10 l 2,8,9
EndSplineSet
EndChar

